<?xml version="1.0" encoding="UTF-8"?>
<svg version="1.1" xmlns="http://www.w3.org/2000/svg" width="256" height="256">
<path d="M0 0 C0.73460449 -0.00902344 1.46920898 -0.01804688 2.22607422 -0.02734375 C7.99324419 0.00321754 13.38729074 0.96399824 19 2.25 C19.50581854 5.64499304 20.00362244 9.04111482 20.5 12.4375 C20.64308594 13.39720703 20.78617187 14.35691406 20.93359375 15.34570312 C21.06894531 16.27705078 21.20429688 17.20839844 21.34375 18.16796875 C21.53227539 19.44837036 21.53227539 19.44837036 21.72460938 20.75463867 C22.00272556 23.27469675 22.047608 25.71685782 22 28.25 C23.98 27.92 25.96 27.59 28 27.25 C29.65 19.99 31.3 12.73 33 5.25 C43.33306046 5.03472791 50.41591555 5.54305477 59.7421875 9.83203125 C60.72815918 10.28425049 61.71413086 10.73646973 62.72998047 11.20239258 C63.47908691 11.54810303 64.22819336 11.89381348 65 12.25 C64.78599498 16.7675422 64.55540309 21.28384262 64.31030273 25.79980469 C64.22939178 27.33180453 64.15278805 28.86403884 64.08081055 30.39648438 C62.93337005 54.64308908 62.93337005 54.64308908 54.2578125 62.91015625 C49.72664835 66.88667582 49.72664835 66.88667582 47 68.25 C47.55484798 80.77938355 48.83900528 93.12679235 50.4375 105.5625 C50.87708887 109.01650534 51.31310149 112.47094286 51.74609375 115.92578125 C51.85174652 116.76706573 51.95739929 117.60835022 52.06625366 118.47512817 C53.2096529 127.71671297 54.11715483 136.98043589 55 146.25 C56.3921875 146.69279297 56.3921875 146.69279297 57.8125 147.14453125 C65.21405801 149.71149316 70.76141903 154.87943716 74.3125 161.8125 C76.12062944 168.22314074 76.1519896 174.45454632 76.125 181.0625 C76.12886719 182.02865234 76.13273438 182.99480469 76.13671875 183.99023438 C76.13478516 185.36598633 76.13478516 185.36598633 76.1328125 186.76953125 C76.13168457 187.60589111 76.13055664 188.44225098 76.12939453 189.30395508 C76 191.25 76 191.25 75 192.25 C73.06602511 192.34881747 71.12839223 192.37632227 69.19189453 192.37698364 C67.92984192 192.37980347 66.66778931 192.38262329 65.36749268 192.38552856 C63.95593248 192.38358397 62.54437242 192.38153578 61.1328125 192.37939453 C59.65647336 192.38074852 58.18013455 192.38252844 56.70379639 192.38470459 C52.68324716 192.38927919 48.66272347 192.38748926 44.64217377 192.3843255 C40.44390288 192.38180204 36.24563425 192.3841394 32.04736328 192.38571167 C24.99576421 192.38753341 17.94417561 192.38512695 10.89257812 192.38037109 C2.7281695 192.37492847 -5.43621416 192.37669112 -13.60062218 192.3821975 C-20.59762982 192.38672852 -27.59462993 192.38737923 -34.59163857 192.38475883 C-38.77624547 192.38319599 -42.96084062 192.38300247 -47.14544678 192.38629532 C-51.07863286 192.38917387 -55.01178661 192.38719864 -58.94496918 192.38140106 C-60.3926259 192.38007338 -61.84028532 192.38046772 -63.28794098 192.38266373 C-65.25592454 192.38537487 -67.22391402 192.38138073 -69.19189453 192.37698364 C-70.2958255 192.37660662 -71.39975647 192.37622959 -72.53713989 192.37584114 C-75 192.25 -75 192.25 -76 191.25 C-76.25445459 187.92455646 -76.18524425 184.58400484 -76.1875 181.25 C-76.19974609 180.32832031 -76.21199219 179.40664062 -76.22460938 178.45703125 C-76.2468626 167.93867299 -74.71523116 160.75110302 -67.75 152.625 C-64.28568762 149.63309386 -59.76286388 146.25 -55 146.25 C-54.89977539 145.27691895 -54.79955078 144.30383789 -54.69628906 143.30126953 C-54.21718984 138.65886685 -53.73422549 134.01687056 -53.25 129.375 C-53.1617395 128.52808594 -53.073479 127.68117188 -52.98254395 126.80859375 C-51.5225716 112.83711278 -49.93722532 98.88406098 -48.21972656 84.94189453 C-48.05793299 83.60709753 -47.89614862 82.27229942 -47.734375 80.9375 C-47.59225586 79.78636719 -47.45013672 78.63523437 -47.30371094 77.44921875 C-47.00871449 74.34179634 -46.83020499 71.36771933 -47 68.25 C-48.56365675 66.42824696 -48.56365675 66.42824696 -50.75 65.1875 C-56.56795239 61.22677756 -59.66571915 56.90416722 -62 50.25 C-62.6953125 46.5859375 -62.6953125 46.5859375 -63.125 42.625 C-63.20282715 41.912229 -63.2806543 41.19945801 -63.36083984 40.46508789 C-64.3180194 31.08894229 -64.65028785 21.66461917 -65 12.25 C-62.9627797 11.26161567 -60.92000393 10.28467748 -58.875 9.3125 C-57.73804687 8.76722656 -56.60109375 8.22195312 -55.4296875 7.66015625 C-48.06562149 4.63233412 -40.85087001 5.16988908 -33 5.25 C-30.525 16.14 -30.525 16.14 -28 27.25 C-26.02 27.58 -24.04 27.91 -22 28.25 C-21.95101562 27.46238281 -21.90203125 26.67476562 -21.8515625 25.86328125 C-21.30556167 17.90861404 -20.32521452 10.111224 -19 2.25 C-12.68870614 0.47395751 -6.51798591 0.03254247 0 0 Z " fill="#262626" transform="translate(128,40.75)"/>
<path d="M0 0 C1.48692785 0.14505822 2.97390689 0.28959276 4.4609375 0.43359375 C8.05790026 0.78304399 11.65412407 1.13951759 15.25 1.5 C17.00231458 5.38730612 17.71152071 8.91198561 18.21142578 13.13867188 C18.2897464 13.78485977 18.36806702 14.43104767 18.44876099 15.09681702 C18.70433766 17.22005362 18.94999682 19.34430542 19.1953125 21.46875 C19.37129579 22.95184405 19.54780744 24.43487549 19.724823 25.91784668 C20.09375384 29.02075589 20.45809605 32.12415674 20.81884766 35.22802734 C21.28059917 39.19992469 21.75096038 43.17074046 22.22441292 47.14125824 C22.58888927 50.20191941 22.95020093 53.26294716 23.31042099 56.32411194 C23.48281428 57.78816819 23.65585508 59.25214835 23.82956314 60.71604919 C24.07182445 62.76413879 24.31016585 64.81264667 24.54736328 66.86132812 C24.68345001 68.02539185 24.81953674 69.18945557 24.95974731 70.38879395 C25.21442442 73.11866687 25.30768261 75.7612184 25.25 78.5 C24.30084717 78.43941406 23.35169434 78.37882812 22.3737793 78.31640625 C-8.87348551 76.34600543 -39.51864522 76.31320434 -70.75 78.5 C-70.17625152 68.69871449 -69.32929089 58.98464516 -68.15625 49.234375 C-68.00466431 47.95314758 -67.85307861 46.67192017 -67.69689941 45.35186768 C-67.37997473 42.67617412 -67.06040709 40.00081461 -66.73876953 37.32568359 C-66.32707859 33.90007319 -65.92180446 30.47373835 -65.51837921 27.04714584 C-65.13001461 23.75500817 -64.73670895 20.4634675 -64.34375 17.171875 C-64.19893188 15.94386169 -64.05411377 14.71584839 -63.90490723 13.45062256 C-63.69964417 11.75174896 -63.69964417 11.75174896 -63.49023438 10.01855469 C-63.37111694 9.02233093 -63.25199951 8.02610718 -63.12927246 6.99969482 C-62.75 4.5 -62.75 4.5 -61.75 1.5 C-40.93494551 -0.95584263 -20.90548452 -2.09994417 0 0 Z " fill="#555251" transform="translate(150.75,107.5)"/>
<path d="M0 0 C3.71183487 0.0107554 7.42318915 0.00002562 11.13500977 -0.01269531 C23.40936843 -0.0202334 35.40590264 0.14457281 47.51977539 2.26074219 C48.3411499 2.40141113 49.16252441 2.54208008 50.00878906 2.68701172 C57.89885899 4.20129572 65.776861 6.32275998 70.51977539 13.26074219 C72.51977539 20.26074219 72.51977539 20.26074219 72.51977539 37.26074219 C26.97977539 37.26074219 -18.56022461 37.26074219 -65.48022461 37.26074219 C-65.48022461 15.98881236 -65.48022461 15.98881236 -61.14428711 10.60058594 C-47.04812408 -3.39243443 -18.08178112 -0.06228901 0 0 Z " fill="#555251" transform="translate(124.480224609375,188.7392578125)"/>
<path d="M0 0 C0.52416992 1.87597656 0.52416992 1.87597656 0.73046875 4.140625 C0.81103516 4.96433594 0.89160156 5.78804687 0.97460938 6.63671875 C1.04486328 7.49910156 1.11511719 8.36148438 1.1875 9.25 C1.26935547 10.09691406 1.35121094 10.94382812 1.43554688 11.81640625 C1.84673329 16.25998386 2 20.51515577 2 25 C7.94 25 13.88 25 20 25 C20.185625 22.4321875 20.185625 22.4321875 20.375 19.8125 C20.6663641 15.78196327 21.43650777 12.71329405 23 9 C23.3813074 6.67402489 23.72460254 4.34087842 24 2 C31.32110805 1.14870837 37.34969322 4.19987083 44 7 C42.43274462 42.63443809 42.43274462 42.63443809 36 49 C31.55239514 52.31370999 27.23001266 54.29557095 21.66796875 53.6953125 C20.79978516 53.60660889 19.93160156 53.51790527 19.03710938 53.42651367 C18.09673828 53.32701416 17.15636719 53.22751465 16.1875 53.125 C12.12583909 52.74083347 8.0628456 52.37140322 4 52 C3.15002441 51.9189502 2.30004883 51.83790039 1.42431641 51.75439453 C-8.3291948 50.87659807 -17.80693423 50.89365054 -27.5546875 51.78515625 C-28.40009094 51.86102463 -29.24549438 51.93689301 -30.11651611 52.01506042 C-34.38465265 52.40533544 -38.64406011 52.83497024 -42.90234375 53.32104492 C-57.14244092 54.81555425 -57.14244092 54.81555425 -62.78955078 50.43066406 C-64 49 -64 49 -65 46 C-65.66 46 -66.32 46 -67 46 C-68.68992669 42.98793881 -69.39731228 40.4154534 -69.8515625 37 C-69.98071045 36.03521729 -70.1098584 35.07043457 -70.24291992 34.07641602 C-70.36900635 33.06119873 -70.49509277 32.04598145 -70.625 31 C-70.75688721 29.96866943 -70.88877441 28.93733887 -71.0246582 27.87475586 C-71.87851093 20.87228038 -72.40975163 14.05683362 -72 7 C-65.36270688 3.47649871 -59.486774 2.2798794 -52 2 C-51.3267344 4.89444095 -50.66119596 7.79030013 -50 10.6875 C-49.80921875 11.50412109 -49.6184375 12.32074219 -49.421875 13.16210938 C-49.15117188 14.35610352 -49.15117188 14.35610352 -48.875 15.57421875 C-48.70742187 16.30213623 -48.53984375 17.03005371 -48.3671875 17.7800293 C-48 20 -48 20 -48 25 C-42.06 25 -36.12 25 -30 25 C-29.71270635 19.43668717 -29.71270635 19.43668717 -29.43188477 13.87304688 C-28.67057837 -0.32942163 -28.67057837 -0.32942163 -27 -2 C-18.97464893 -3.38368122 -6.98010931 -4.65340621 0 0 Z " fill="#555251" transform="translate(142,50)"/>
<path d="M0 0 C1.48692785 0.14505822 2.97390689 0.28959276 4.4609375 0.43359375 C8.05790026 0.78304399 11.65412407 1.13951759 15.25 1.5 C17.00231458 5.38730612 17.71152071 8.91198561 18.21142578 13.13867188 C18.2897464 13.78485977 18.36806702 14.43104767 18.44876099 15.09681702 C18.70433766 17.22005362 18.94999682 19.34430542 19.1953125 21.46875 C19.37129579 22.95184405 19.54780744 24.43487549 19.724823 25.91784668 C20.09375384 29.02075589 20.45809605 32.12415674 20.81884766 35.22802734 C21.28059917 39.19992469 21.75096038 43.17074046 22.22441292 47.14125824 C22.58888927 50.20191941 22.95020093 53.26294716 23.31042099 56.32411194 C23.48281428 57.78816819 23.65585508 59.25214835 23.82956314 60.71604919 C24.07182445 62.76413879 24.31016585 64.81264667 24.54736328 66.86132812 C24.68345001 68.02539185 24.81953674 69.18945557 24.95974731 70.38879395 C25.21442442 73.11866687 25.30768261 75.7612184 25.25 78.5 C23.31215735 78.35879286 21.37473045 78.21187127 19.4375 78.0625 C17.81908203 77.94068359 17.81908203 77.94068359 16.16796875 77.81640625 C13.25 77.5 13.25 77.5 10.25 76.5 C10.15501221 75.84217529 10.06002441 75.18435059 9.9621582 74.5065918 C6.46998328 42.70395123 6.46998328 42.70395123 -8.75 15.5 C-8.75 14.84 -8.75 14.18 -8.75 13.5 C-9.41 13.5 -10.07 13.5 -10.75 13.5 C-10.75 12.84 -10.75 12.18 -10.75 11.5 C-11.29269531 11.231875 -11.83539063 10.96375 -12.39453125 10.6875 C-14.08982687 9.8328236 -15.77348924 8.95492903 -17.44921875 8.0625 C-22.88774293 5.21882723 -27.82049756 2.87444731 -33.91015625 1.921875 C-35.75 1.5 -35.75 1.5 -38.75 -0.5 C-25.69676653 -2.11721477 -13.03087542 -1.30894411 0 0 Z " fill="#444242" transform="translate(150.75,107.5)"/>
<path d="M0 0 C3.71183487 0.0107554 7.42318915 0.00002562 11.13500977 -0.01269531 C55.73933569 -0.04027474 55.73933569 -0.04027474 66.95727539 9.51074219 C67.80290039 10.41824219 68.64852539 11.32574219 69.51977539 12.26074219 C69.18977539 13.25074219 68.85977539 14.24074219 68.51977539 15.26074219 C67.87137695 15.06738281 67.22297852 14.87402344 66.55493164 14.67480469 C46.87274923 9.45036205 25.75541124 9.92950204 5.54418945 10 C1.89005027 10.0107561 -1.76359977 10.00000619 -5.41772461 9.98730469 C-34.24898668 9.9629902 -34.24898668 9.9629902 -62.48022461 15.26074219 C-61.77220187 11.58836052 -60.53045563 9.80038439 -57.50366211 7.49121094 C-41.41553831 -2.29210759 -18.02586308 -0.06209638 0 0 Z " fill="#747171" transform="translate(124.480224609375,188.7392578125)"/>
<path d="M0 0 C4.75 0.875 4.75 0.875 7 2 C5.43274462 37.63443809 5.43274462 37.63443809 -1 44 C-4.10914479 46.3164837 -7.31584374 47.77194791 -11 49 C-13.26171875 48.66015625 -13.26171875 48.66015625 -15.6875 48.0625 C-16.49574219 47.86785156 -17.30398437 47.67320313 -18.13671875 47.47265625 C-19.05904297 47.23869141 -19.05904297 47.23869141 -20 47 C-17.92444503 44.84757262 -15.95598335 42.96918834 -13.5 41.25 C-3.49945422 32.2495088 -2.39971557 12.65304576 0 0 Z " fill="#444242" transform="translate(179,55)"/>
<path d="M0 0 C-0.27714844 0.80824219 -0.55429688 1.61648437 -0.83984375 2.44921875 C-1.20207031 3.51785156 -1.56429687 4.58648437 -1.9375 5.6875 C-2.29714844 6.74324219 -2.65679687 7.79898438 -3.02734375 8.88671875 C-4.40754106 13.30445874 -5.11798384 17.46162371 -5.31640625 22.08203125 C-5.35830078 23.01337891 -5.40019531 23.94472656 -5.44335938 24.90429688 C-5.48267578 25.86400391 -5.52199219 26.82371094 -5.5625 27.8125 C-5.62727539 29.28106445 -5.62727539 29.28106445 -5.69335938 30.77929688 C-5.7990226 33.18607027 -5.90112327 35.59293983 -6 38 C-6.66 37.67 -7.32 37.34 -8 37 C-8.50244141 34.96557617 -8.50244141 34.96557617 -8.8515625 32.29296875 C-9.04528442 30.83129272 -9.04528442 30.83129272 -9.24291992 29.34008789 C-9.36900635 28.29973389 -9.49509277 27.25937988 -9.625 26.1875 C-9.75688721 25.14263428 -9.88877441 24.09776855 -10.0246582 23.02124023 C-10.87298676 15.9719425 -11.41238548 9.1021944 -11 2 C-4.03571429 -1.34821429 -4.03571429 -1.34821429 0 0 Z " fill="#82807F" transform="translate(81,55)"/>
<path d="M0 0 C1.79244141 0.01740234 1.79244141 0.01740234 3.62109375 0.03515625 C5.41740234 0.04869141 5.41740234 0.04869141 7.25 0.0625 C8.17683594 0.07410156 9.10367188 0.08570313 10.05859375 0.09765625 C9.30964844 0.67386719 8.56070313 1.25007813 7.7890625 1.84375 C5.37983708 3.83248114 3.39791354 5.79629227 1.37109375 8.16015625 C0.49904297 9.16755859 0.49904297 9.16755859 -0.390625 10.1953125 C-2.09419614 12.22307064 -2.09419614 12.22307064 -3.94140625 15.09765625 C-3.96826037 12.78521833 -3.98773466 10.47269355 -4.00390625 8.16015625 C-4.01550781 6.87238281 -4.02710937 5.58460937 -4.0390625 4.2578125 C-3.91149919 0.12986385 -3.91149919 0.12986385 0 0 Z " fill="#807D7D" transform="translate(117.94140625,47.90234375)"/>
<path d="M0 0 C6.75 -0.125 6.75 -0.125 9 1 C9 1.66 9 2.32 9 3 C7.35546875 4.62109375 7.35546875 4.62109375 5.1875 6.4375 C2.6711063 8.55970452 0.33439423 10.66560577 -2 13 C-1.34 8.71 -0.68 4.42 0 0 Z " fill="#7F7C7C" transform="translate(166,52)"/>
</svg>
