<?xml version="1.0" encoding="UTF-8"?>
<svg version="1.1" xmlns="http://www.w3.org/2000/svg" width="256" height="256">
<path d="M0 0 C5.22059431 4.65464493 7.56200014 9.41560148 8.234375 16.453125 C7.94071486 19.64423185 6.9725578 20.73687143 4.875 23.125 C-11.84845314 43.52356684 -15.49894531 69.7941542 -17.69042969 95.16357422 C-17.97776859 97.7963056 -18.48061286 100.40306428 -19 103 C-14.71 103 -10.42 103 -6 103 C-6.02320313 102.01902344 -6.04640625 101.03804688 -6.0703125 100.02734375 C-6.44728878 77.36058209 -1.96287503 56.85100035 9 37 C9.495 36.01 9.495 36.01 10 35 C13 35 13 35 14.54296875 36.46875 C15.08566406 37.1390625 15.62835938 37.809375 16.1875 38.5 C18.60117442 41.39842912 21.05871513 44.04959796 23.8125 46.625 C38.84936266 61.5158737 48.57466129 81.88717032 50 103 C50 123.49812479 44.97662393 141.86155908 32 158 C32.75023437 158.15855469 33.50046875 158.31710938 34.2734375 158.48046875 C43.8141711 160.6553715 53.15829096 163.01278418 58.71533203 171.68066406 C62.91542201 179.26349469 63.43247198 187.06044637 63.25 195.5625 C63.24484375 196.55830078 63.2396875 197.55410156 63.234375 198.58007812 C63.15503149 205.84496851 63.15503149 205.84496851 62 207 C60.06602511 207.09881747 58.12839223 207.12632227 56.19189453 207.12698364 C54.92984192 207.12980347 53.66778931 207.13262329 52.36749268 207.13552856 C50.95593248 207.13358397 49.54437242 207.13153578 48.1328125 207.12939453 C46.65647336 207.13074852 45.18013455 207.13252844 43.70379639 207.13470459 C39.68324716 207.13927919 35.66272347 207.13748926 31.64217377 207.1343255 C27.44390288 207.13180204 23.24563425 207.1341394 19.04736328 207.13571167 C11.99576421 207.13753341 4.94417561 207.13512695 -2.10742188 207.13037109 C-10.2718305 207.12492847 -18.43621416 207.12669112 -26.60062218 207.1321975 C-33.59762982 207.13672852 -40.59462993 207.13737923 -47.59163857 207.13475883 C-51.77624547 207.13319599 -55.96084062 207.13300247 -60.14544678 207.13629532 C-64.07863286 207.13917387 -68.01178661 207.13719864 -71.94496918 207.13140106 C-73.3926259 207.13007338 -74.84028532 207.13046772 -76.28794098 207.13266373 C-78.25592454 207.13537487 -80.22391402 207.13138073 -82.19189453 207.12698364 C-83.2958255 207.12660662 -84.39975647 207.12622959 -85.53713989 207.12584114 C-88 207 -88 207 -89 206 C-89.67937855 194.32416868 -90.41862499 179.62416214 -83 170 C-75.85743846 162.3552271 -67.10306956 159.60299225 -57 158 C-57.825 157.175 -58.65 156.35 -59.5 155.5 C-73.31710187 139.22725207 -76.31067886 118.30966041 -75.23193359 97.70800781 C-74.7266311 91.80820226 -73.16854964 86.51083572 -71 81 C-70.49146484 79.54207031 -70.49146484 79.54207031 -69.97265625 78.0546875 C-64.41092905 63.21021988 -55.08134522 51.11269273 -44 40 C-43.11828125 39.1028125 -42.2365625 38.205625 -41.328125 37.28125 C-39 35 -39 35 -36.0625 32.6875 C-35.381875 31.800625 -34.70125 30.91375 -34 30 C-34.55568554 26.49549979 -34.55568554 26.49549979 -35.3671875 24.171875 C-37.01480794 18.51707892 -36.53043508 12.39268682 -34.234375 6.98828125 C-30.9750425 1.73828049 -25.92577275 -2.79915486 -19.9375 -4.5625 C-12.43112383 -5.3965418 -6.32031715 -4.32236565 0 0 Z " fill="#262626" transform="translate(139,26)"/>
<path d="M0 0 C1.98157634 3.00432542 3.11929857 4.80509011 2.7578125 8.42578125 C1.91232454 11.29782541 0.78706075 12.90750392 -1.0625 15.25 C-19.02996029 40.15356406 -22.25641071 72.25642827 -23 102 C-14.75 102 -6.5 102 2 102 C1.938125 99.855 1.87625 97.71 1.8125 95.5 C1.7096749 79.34103522 2.02744286 51.87378306 13.60742188 39.24731445 C14.29674805 38.6298938 14.29674805 38.6298938 15 38 C30.52594246 52.6824808 43.99821992 72.67898356 45.203125 94.71484375 C45.57335894 114.72171639 40.6769536 133.43627613 27.296875 148.72265625 C24.34389416 151.63116449 21.34466812 151.16994759 17.36645508 151.24047852 C16.68490356 151.25347488 16.00335205 151.26647125 15.30114746 151.27986145 C8.16784003 151.40667402 1.03335119 151.46334072 -6.10083008 151.51489258 C-9.48365729 151.54162177 -12.86507233 151.59032483 -16.24731445 151.65844727 C-20.33466859 151.74055789 -24.42067976 151.78310032 -28.50881386 151.79795647 C-30.06341767 151.81017902 -31.6179789 151.83615476 -33.1721096 151.87640572 C-45.30689578 152.1748933 -45.30689578 152.1748933 -49.4744873 149.28288269 C-51.27224453 147.2683451 -52.65356441 145.33411086 -54 143 C-54.58247246 142.13686188 -54.58247246 142.13686188 -55.17671204 141.25628662 C-66.016693 124.70386167 -69.89114993 104.08148197 -65.91503906 84.76367188 C-61.35507528 65.53535836 -49.49563096 49.92283078 -36 36 C-35.15566406 35.12730469 -34.31132813 34.25460938 -33.44140625 33.35546875 C-30.1063678 29.96566776 -26.8695204 26.7787831 -23 24 C-23.268125 23.46375 -23.53625 22.9275 -23.8125 22.375 C-24.204375 21.59125 -24.59625 20.8075 -25 20 C-25.53625 19.071875 -26.0725 18.14375 -26.625 17.1875 C-28.26284544 13.39067647 -28.50384797 11.10276207 -28 7 C-25.32068758 1.0230723 -21.88191135 -3.50695717 -15.5625 -5.9375 C-9.51723959 -6.08494538 -4.60757112 -3.76983092 0 0 Z " fill="#555251" transform="translate(137,33)"/>
<path d="M0 0 C1.71193291 -0.0049926 1.71193291 -0.0049926 3.45845032 -0.01008606 C5.85763145 -0.01511433 8.25681947 -0.01749567 10.65600586 -0.01733398 C14.27404647 -0.01951513 17.89177895 -0.03770086 21.50976562 -0.05664062 C68.21493421 -0.17081555 68.21493421 -0.17081555 78.265625 9.80859375 C86.23385273 18.7330088 83.61328125 22.2753325 83.61328125 37.16796875 C38.07328125 37.16796875 -7.46671875 37.16796875 -54.38671875 37.16796875 C-54.38671875 15.61241319 -54.38671875 15.61241319 -49.91015625 10.47265625 C-37.505752 -1.25205461 -15.89444105 0.01659386 0 0 Z " fill="#555251" transform="translate(111.38671875,188.83203125)"/>
<path d="M0 0 C11.16796208 13.14161055 15.27653748 31.0481158 14.18896484 47.95849609 C12.69865609 64.05922194 6.68214564 80.49379029 -5 92 C-12.70120022 95.85060011 -26.4295834 92.60906514 -35 92 C-32.37009599 89.09709558 -29.31939869 87.09132052 -26.0625 84.9375 C-24.50208984 83.89916016 -24.50208984 83.89916016 -22.91015625 82.83984375 C-20.63841884 81.40361782 -18.43183431 80.13094945 -16 79 C-16 78.34 -16 77.68 -16 77 C-15.34 77 -14.68 77 -14 77 C-14 76.34 -14 75.68 -14 75 C-13.34 75 -12.68 75 -12 75 C-11.73832031 74.4328125 -11.47664063 73.865625 -11.20703125 73.28125 C-9.9021879 70.8151383 -8.36336506 68.72953223 -6.6875 66.5 C4.15877536 51.00854226 6.41529794 33.55671646 3.48339844 15.234375 C2.79824249 12.06743194 1.74686941 9.07283492 0.60791016 6.04296875 C0 4 0 4 0 0 Z " fill="#444241" transform="translate(168,91)"/>
<path d="M0 0 C1.71193291 -0.0049926 1.71193291 -0.0049926 3.45845032 -0.01008606 C5.85763145 -0.01511433 8.25681947 -0.01749567 10.65600586 -0.01733398 C14.27404647 -0.01951513 17.89177895 -0.03770086 21.50976562 -0.05664062 C67.0144242 -0.16788079 67.0144242 -0.16788079 78.98828125 10.23046875 C80.61328125 12.16796875 80.61328125 12.16796875 80.61328125 14.16796875 C79.95956543 14.08232666 79.30584961 13.99668457 78.63232422 13.90844727 C75.58483459 13.51163593 72.53657629 13.12104291 69.48828125 12.73046875 C68.46089844 12.59576172 67.43351562 12.46105469 66.375 12.32226562 C54.11444598 10.76113918 41.90009068 10.01221614 29.54296875 9.96484375 C28.34181427 9.95914368 27.14065979 9.9534436 25.90310669 9.9475708 C23.373727 9.93819401 20.8443355 9.93161629 18.31494141 9.92773438 C14.54566636 9.9181152 10.77695824 9.88705515 7.0078125 9.85546875 C-12.35577747 9.77129986 -32.60907261 9.90737191 -51.38671875 15.16796875 C-50.68547861 11.37159972 -49.26146188 9.7131313 -46.171875 7.33203125 C-33.51395273 -0.9219312 -14.50651384 0.01514486 0 0 Z " fill="#747171" transform="translate(111.38671875,188.83203125)"/>
<path d="M0 0 C0.99 0.33 1.98 0.66 3 1 C1.6068597 4.25301796 0.05039845 6.03386216 -2.6875 8.25 C-27.39170957 29.35521501 -39.0576161 65.59325007 -42 97 C-48.06744606 87.89883091 -47.17138206 74.15474222 -45.34765625 63.765625 C-41.12691884 43.69233001 -28.98176226 27.44580343 -15 13 C-14.17886719 12.13890625 -13.35773438 11.2778125 -12.51171875 10.390625 C-4.91037736 2.57210243 -4.91037736 2.57210243 0 0 Z " fill="#747171" transform="translate(116,56)"/>
<path d="M0 0 C3 1 3 1 4.75 3.75 C6.1327174 7.34506524 6.07898945 8.40701991 5 12 C3.65234375 14.078125 3.65234375 14.078125 1.9375 16.25 C-15.93826177 41.02646652 -19.51472459 73.34799879 -20 103 C-26.26965973 97.36376981 -27.4521318 89.13975607 -28 81 C-28.07605469 80.2884375 -28.15210937 79.576875 -28.23046875 78.84375 C-29.3718616 60.33467672 -16.8959823 41.69595445 -8.0625 26.3125 C-3.01192523 17.48803554 -0.61417754 10.14451872 0 0 Z " fill="#444241" transform="translate(134,32)"/>
<path d="M0 0 C-0.45890625 0.40089844 -0.9178125 0.80179688 -1.390625 1.21484375 C-6.17522093 5.64763115 -8.76966147 9.89081185 -11 16 C-11.33 16 -11.66 16 -12 16 C-12.49303103 11.97357995 -12.86992855 8.4579358 -10.734375 4.87890625 C-5.21522494 -1.56456748 -5.21522494 -1.56456748 0 0 Z " fill="#726F6F" transform="translate(122,30)"/>
</svg>
