<?xml version="1.0" encoding="UTF-8"?>
<svg version="1.1" xmlns="http://www.w3.org/2000/svg" width="256" height="256">
<path d="M0 0 C2.07958984 1.60473633 2.07958984 1.60473633 3.9609375 3.83203125 C4.67137207 4.62963867 5.38180664 5.42724609 6.11376953 6.24902344 C6.85997559 7.0949707 7.60618164 7.94091797 8.375 8.8125 C15.40920309 16.32235605 19.67309281 19.68505688 30.05078125 20.59375 C41.2806391 21.74894804 52.0318585 27.39260982 61 34 C61.92425781 34.67933594 62.84851563 35.35867187 63.80078125 36.05859375 C82.96001153 50.92488447 94.17314365 73.21543615 97.25 97.0625 C99.13561154 113.69359377 96.43768176 128.4328919 92.5 144.5 C92.29866455 145.32443604 92.0973291 146.14887207 91.88989258 146.99829102 C90.5858268 152.15753721 88.95307011 157.04919437 87 162 C87.845625 162.20625 88.69125 162.4125 89.5625 162.625 C96.25701164 165.30280466 100.22947118 169.50091915 103.2734375 175.97265625 C104.75985181 180.12023165 105.12750095 184.10006839 105.1328125 188.484375 C105.13474609 190.00998047 105.13474609 190.00998047 105.13671875 191.56640625 C105.13285156 192.61699219 105.12898437 193.66757813 105.125 194.75 C105.12886719 195.81605469 105.13273438 196.88210937 105.13671875 197.98046875 C105.13478516 199.49833984 105.13478516 199.49833984 105.1328125 201.046875 C105.13168457 201.97338867 105.13055664 202.89990234 105.12939453 203.85449219 C105 206 105 206 104 207 C102.07869223 207.09879672 100.15370452 207.12632217 98.2298584 207.12698364 C96.34940071 207.13121338 96.34940071 207.13121338 94.43095398 207.13552856 C93.02883897 207.13358397 91.6267241 207.13153578 90.22460938 207.12939453 C88.75812232 207.13074852 87.2916356 207.13252845 85.82514954 207.13470459 C81.8314589 207.13927916 77.83779397 207.13748927 73.84410286 207.1343255 C69.67385918 207.13180202 65.50361778 207.13413941 61.33337402 207.13571167 C54.32885338 207.1375334 47.32434327 207.13512697 40.31982422 207.13037109 C32.20994711 207.12492847 24.10009514 207.12669112 15.99021864 207.1321975 C9.03991972 207.13672853 2.08962839 207.13737923 -4.86067152 207.13475883 C-9.01733277 207.133196 -13.1739822 207.13300245 -17.3306427 207.13629532 C-21.23756404 207.13917389 -25.14445282 207.1371986 -29.05137062 207.13140106 C-30.48935199 207.13007339 -31.92733608 207.13046771 -33.36531639 207.13266373 C-35.32016276 207.13537491 -37.27501509 207.1313807 -39.2298584 207.12698364 C-40.32641502 207.12660662 -41.42297165 207.12622959 -42.55275726 207.12584114 C-45 207 -45 207 -46 206 C-46.31200319 202.19614319 -46.27869861 198.3775506 -46.3125 194.5625 C-46.34150391 193.50611328 -46.37050781 192.44972656 -46.40039062 191.36132812 C-46.4684534 182.86395241 -44.89604469 175.51031185 -39.6875 168.625 C-36.01215632 165.03512943 -32.34432122 162 -27 162 C-26.85304687 161.32195312 -26.70609375 160.64390625 -26.5546875 159.9453125 C-22.98719937 145.14228702 -13.64570266 133.51065717 -2 124 C-0.34569956 122.63436239 1.30456125 121.26420834 2.95043945 119.88842773 C4.07707546 118.94737393 5.20818409 118.01163918 6.34448242 117.08227539 C12.57250109 111.89652366 18.11006962 106.36534559 19 98 C18.67 97.34 18.34 96.68 18 96 C17.59910156 96.43570313 17.19820313 96.87140625 16.78515625 97.3203125 C8.93103737 105.54843704 0.3016816 111.34028086 -11.125 112.875 C-16.38655065 113.69201097 -18.72520234 114.60241457 -22 119 C-23.22630394 120.58555157 -24.45567259 122.16873583 -25.6875 123.75 C-26.55955078 124.91789062 -26.55955078 124.91789062 -27.44921875 126.109375 C-29.79059038 128.96384318 -30.85763896 128.985273 -34.625 129.375 C-44.79790314 129.2430985 -56.78885445 125.34398245 -64 118 C-67.51825945 114.30582758 -68.34761574 111.28250562 -68.6875 106.3125 C-68.39156787 98.99490549 -65.28546801 94.72831402 -61 89 C-59.49370311 86.89337116 -58.0003539 84.77797096 -56.50878906 82.66088867 C-55.49311805 81.22370471 -54.47076451 79.79120988 -53.44042969 78.36450195 C-46.50388304 68.69993224 -41.77639405 59.45759004 -38.16601562 48.12304688 C-35.25471453 39.53380451 -30.88874535 33.13363986 -23.75 27.5 C-19.43421247 23.89103702 -18.28907368 20.35323652 -17 15 C-15.27345717 8.37439188 -13.75214309 4.91635274 -8 1 C-5.16511002 -0.41744499 -3.13869549 -0.30356265 0 0 Z " fill="#555251" transform="translate(106,26)"/>
<path d="M0 0 C2.07958984 1.60473633 2.07958984 1.60473633 3.9609375 3.83203125 C4.67137207 4.62963867 5.38180664 5.42724609 6.11376953 6.24902344 C6.85997559 7.0949707 7.60618164 7.94091797 8.375 8.8125 C15.40920309 16.32235605 19.67309281 19.68505688 30.05078125 20.59375 C41.2806391 21.74894804 52.0318585 27.39260982 61 34 C61.92425781 34.67933594 62.84851563 35.35867187 63.80078125 36.05859375 C82.96001153 50.92488447 94.17314365 73.21543615 97.25 97.0625 C99.13561154 113.69359377 96.43768176 128.4328919 92.5 144.5 C92.29866455 145.32443604 92.0973291 146.14887207 91.88989258 146.99829102 C90.5858268 152.15753721 88.95307011 157.04919437 87 162 C87.845625 162.20625 88.69125 162.4125 89.5625 162.625 C96.25701164 165.30280466 100.22947118 169.50091915 103.2734375 175.97265625 C104.75985181 180.12023165 105.12750095 184.10006839 105.1328125 188.484375 C105.13474609 190.00998047 105.13474609 190.00998047 105.13671875 191.56640625 C105.13285156 192.61699219 105.12898437 193.66757813 105.125 194.75 C105.12886719 195.81605469 105.13273438 196.88210937 105.13671875 197.98046875 C105.13478516 199.49833984 105.13478516 199.49833984 105.1328125 201.046875 C105.13168457 201.97338867 105.13055664 202.89990234 105.12939453 203.85449219 C105 206 105 206 104 207 C102.07869223 207.09879672 100.15370452 207.12632217 98.2298584 207.12698364 C96.34940071 207.13121338 96.34940071 207.13121338 94.43095398 207.13552856 C93.02883897 207.13358397 91.6267241 207.13153578 90.22460938 207.12939453 C88.75812232 207.13074852 87.2916356 207.13252845 85.82514954 207.13470459 C81.8314589 207.13927916 77.83779397 207.13748927 73.84410286 207.1343255 C69.67385918 207.13180202 65.50361778 207.13413941 61.33337402 207.13571167 C54.32885338 207.1375334 47.32434327 207.13512697 40.31982422 207.13037109 C32.20994711 207.12492847 24.10009514 207.12669112 15.99021864 207.1321975 C9.03991972 207.13672853 2.08962839 207.13737923 -4.86067152 207.13475883 C-9.01733277 207.133196 -13.1739822 207.13300245 -17.3306427 207.13629532 C-21.23756404 207.13917389 -25.14445282 207.1371986 -29.05137062 207.13140106 C-30.48935199 207.13007339 -31.92733608 207.13046771 -33.36531639 207.13266373 C-35.32016276 207.13537491 -37.27501509 207.1313807 -39.2298584 207.12698364 C-40.32641502 207.12660662 -41.42297165 207.12622959 -42.55275726 207.12584114 C-45 207 -45 207 -46 206 C-46.31200319 202.19614319 -46.27869861 198.3775506 -46.3125 194.5625 C-46.34150391 193.50611328 -46.37050781 192.44972656 -46.40039062 191.36132812 C-46.4684534 182.86395241 -44.89604469 175.51031185 -39.6875 168.625 C-36.01215632 165.03512943 -32.34432122 162 -27 162 C-26.85304687 161.32195312 -26.70609375 160.64390625 -26.5546875 159.9453125 C-22.98719937 145.14228702 -13.64570266 133.51065717 -2 124 C-0.34569956 122.63436239 1.30456125 121.26420834 2.95043945 119.88842773 C4.07707546 118.94737393 5.20818409 118.01163918 6.34448242 117.08227539 C12.57250109 111.89652366 18.11006962 106.36534559 19 98 C18.67 97.34 18.34 96.68 18 96 C17.59910156 96.43570313 17.19820313 96.87140625 16.78515625 97.3203125 C8.93103737 105.54843704 0.3016816 111.34028086 -11.125 112.875 C-16.38655065 113.69201097 -18.72520234 114.60241457 -22 119 C-23.22630394 120.58555157 -24.45567259 122.16873583 -25.6875 123.75 C-26.55955078 124.91789062 -26.55955078 124.91789062 -27.44921875 126.109375 C-29.79059038 128.96384318 -30.85763896 128.985273 -34.625 129.375 C-44.79790314 129.2430985 -56.78885445 125.34398245 -64 118 C-67.51825945 114.30582758 -68.34761574 111.28250562 -68.6875 106.3125 C-68.39156787 98.99490549 -65.28546801 94.72831402 -61 89 C-59.49370311 86.89337116 -58.0003539 84.77797096 -56.50878906 82.66088867 C-55.49311805 81.22370471 -54.47076451 79.79120988 -53.44042969 78.36450195 C-46.50388304 68.69993224 -41.77639405 59.45759004 -38.16601562 48.12304688 C-35.25471453 39.53380451 -30.88874535 33.13363986 -23.75 27.5 C-19.43421247 23.89103702 -18.28907368 20.35323652 -17 15 C-15.27345717 8.37439188 -13.75214309 4.91635274 -8 1 C-5.16511002 -0.41744499 -3.13869549 -0.30356265 0 0 Z M-8.125 8.8125 C-9.99563428 11.99257828 -10.37873652 13.73940295 -10.875 17.3125 C-12.09794015 25.1667277 -16.07668777 29.49269859 -22.0625 34.4375 C-29.03470106 40.36254539 -31.28965516 47.65548908 -33.99169922 56.20019531 C-37.89429502 68.18011776 -44.94961076 77.92591696 -52.42773438 87.90527344 C-53.97149256 89.9856902 -55.48700701 92.08463434 -57 94.1875 C-57.49338867 94.84081299 -57.98677734 95.49412598 -58.49511719 96.16723633 C-61.92906916 100.99068726 -62.67868981 104.08481361 -62 110 C-57.95990625 117.10499246 -50.76644657 119.51680587 -43.23828125 121.859375 C-39.57662504 122.75700074 -36.9538147 123.28836259 -33.3125 122.1875 C-30.39311216 119.42591691 -28.02936851 116.38828304 -25.6484375 113.15625 C-22.75417711 109.37039281 -21.17100592 107.7216089 -16.375 106.9375 C-15.48554687 106.77507812 -14.59609375 106.61265625 -13.6796875 106.4453125 C-12.02148339 106.16975088 -10.36025387 105.91108613 -8.6953125 105.6796875 C2.78011719 103.76030958 11.61508121 94.46598105 19 86 C19 85.34 19 84.68 19 84 C22.8358027 87.10517362 24.54474216 91.36146265 25.36328125 96.10546875 C25.82076044 103.49048993 22.91466792 109.46547057 18.2734375 115.09375 C14.67284712 118.82769558 10.72471258 122.06430043 6.6875 125.3125 C-5.40125807 135.05066622 -15.29471206 144.94307859 -20 160 C-19.02804688 159.93941406 -18.05609375 159.87882813 -17.0546875 159.81640625 C-13.22118902 159.58098691 -9.38690618 159.36111119 -5.55224609 159.14550781 C-3.90655381 159.05168415 -2.26102624 158.95490187 -0.61572266 158.85449219 C26.58599143 157.21199805 53.87803281 157.25716523 81 160 C90.35131615 129.09755444 95.70182159 101.75598311 83 71 C82.69320312 70.25492188 82.38640625 69.50984375 82.0703125 68.7421875 C75.00810215 53.30532062 62.57064785 42.10527629 48 34 C47.30261719 33.59007813 46.60523438 33.18015625 45.88671875 32.7578125 C39.18785322 29.05694033 31.00819522 26.50029936 23.41430664 25.74169922 C15.15892865 24.80040362 11.45409165 21.48580121 6.0625 15.375 C4.62504105 13.7911214 3.17879892 12.21515642 1.72265625 10.6484375 C1.10140869 9.94895996 0.48016113 9.24948242 -0.15991211 8.52880859 C-3.14339298 6.0500296 -5.26295942 6.37134774 -8.125 8.8125 Z " fill="#262626" transform="translate(106,26)"/>
<path d="M0 0 C1.18946732 -0.0033284 2.37893463 -0.0066568 3.60444641 -0.01008606 C6.10795712 -0.0151205 8.61147447 -0.01749547 11.11499023 -0.01733398 C14.89773912 -0.01951508 18.68019336 -0.03769392 22.46289062 -0.05664062 C67.71390455 -0.16231591 67.71390455 -0.16231591 79.23828125 10.16796875 C85.64658309 18.31379849 84.23828125 26.92784406 84.23828125 37.16796875 C38.36828125 37.16796875 -7.50171875 37.16796875 -54.76171875 37.16796875 C-54.76171875 16.31990841 -54.76171875 16.31990841 -50.69921875 10.73046875 C-37.7687774 -0.54927796 -16.23883259 0.01616416 0 0 Z " fill="#555251" transform="translate(120.76171875,188.83203125)"/>
<path d="M0 0 C14.63098086 2.053471 25.98145496 10.70904739 36 21 C36.68835938 21.6909375 37.37671875 22.381875 38.0859375 23.09375 C50.80749215 36.64859426 57.00222454 56.74657835 58 75 C58.06445312 76.04929687 58.12890625 77.09859375 58.1953125 78.1796875 C58.78112229 96.33979093 53.20903472 113.78617583 48 131 C43.52062064 130.6905025 39.04154069 130.37685776 34.5625 130.0625 C33.30244141 129.97548828 32.04238281 129.88847656 30.74414062 129.79882812 C27.16155777 129.54627006 23.58060617 129.27910952 20 129 C19.04851074 128.92765137 18.09702148 128.85530273 17.11669922 128.78076172 C15.06955884 128.59620676 13.03181683 128.31074846 11 128 C10.67 127.34 10.34 126.68 10 126 C13.06720554 118.78044039 17.38668442 112.2460225 22 105.9375 C32.80575228 91.14208848 39.1553083 77.33988094 39.25 58.875 C39.270625 57.89273438 39.29125 56.91046875 39.3125 55.8984375 C39.39244842 40.70823681 33.86996596 27.21090204 23.34375 16.24609375 C16.29017871 9.48642126 8.86023994 5.09280119 0 1 C0 0.67 0 0.34 0 0 Z " fill="#454242" transform="translate(139,55)"/>
<path d="M0 0 C3.72070532 0.0107436 7.44093012 0.00003504 11.16162109 -0.01269531 C56.96784922 -0.03962757 56.96784922 -0.03962757 67.59521484 10.26074219 C68.80615234 12.92480469 68.80615234 12.92480469 69.59521484 15.26074219 C68.86302734 15.06738281 68.13083984 14.87402344 67.37646484 14.67480469 C47.42182226 9.87618826 26.67905549 9.93041473 6.26782227 10 C2.53238748 10.01074313 -1.20256768 10.00001768 -4.93798828 9.98730469 C-24.56500413 9.97550956 -44.30556291 10.29560642 -63.40478516 15.26074219 C-62.04720111 10.81773986 -60.2732274 8.81052165 -56.40478516 6.26074219 C-38.82150632 -0.94204673 -18.61102455 -0.06389629 0 0 Z " fill="#747171" transform="translate(132.40478515625,188.7392578125)"/>
<path d="M0 0 C3.50708526 5.58588176 2.7579922 12.69242208 2 19 C-0.41239584 24.28598501 -5.48353316 27.11126407 -10.05078125 30.42578125 C-17.67303248 36.58162743 -20.97658907 45.84684053 -23.953125 54.8984375 C-26.24080943 61.81965226 -29.29683549 66.48031387 -34 72 C-35.58329868 73.93678917 -37.156336 75.88167265 -38.72924805 77.8269043 C-40.42469374 79.92167749 -42.12779361 82.01003308 -43.83203125 84.09765625 C-45.74435702 86.44519706 -47.6422971 88.80174959 -49.51171875 91.18359375 C-50.20910156 92.07175781 -50.90648437 92.95992188 -51.625 93.875 C-52.51058594 95.01582031 -52.51058594 95.01582031 -53.4140625 96.1796875 C-55 98 -55 98 -58 100 C-58.52311737 94.08877377 -57.19624153 90.96247387 -53.625 86.4375 C-52.95150513 85.53632446 -52.95150513 85.53632446 -52.2644043 84.61694336 C-50.85688214 82.73362525 -49.43022836 80.86611215 -48 79 C-39.56336144 67.90868979 -33.10637976 57.03347858 -28.9375 43.625 C-26.18007733 34.95715235 -21.71184693 29.37545142 -14.82421875 23.58984375 C-9.1599099 18.65328336 -8.12913934 13.03704226 -6.80859375 5.92578125 C-5.61788586 1.61737443 -4.56435846 0 0 0 Z " fill="#757272" transform="translate(103,33)"/>
<path d="M0 0 C4.8208004 1.45533597 4.8208004 1.45533597 6.3125 4 C6.8125 6.9375 6.8125 6.9375 6.3125 10 C4.02703355 13.02008066 2.12625159 13.86949267 -1.5859375 14.46484375 C-5.62771862 14.82204717 -9.63059419 15 -13.6875 15 C-8.73604369 0 -8.73604369 0 0 0 Z " fill="#272727" transform="translate(104.6875,71)"/>
<path d="M0 0 C0.66 0 1.32 0 2 0 C4.6138274 10.8743201 1.33234064 21.6619944 -2 32 C-2.33 32 -2.66 32 -3 32 C-3.14695313 31.03900391 -3.14695313 31.03900391 -3.296875 30.05859375 C-3.44640625 29.19363281 -3.5959375 28.32867187 -3.75 27.4375 C-3.88921875 26.59058594 -4.0284375 25.74367188 -4.171875 24.87109375 C-5.2450203 21.15051924 -6.98913672 18.30648047 -9 15 C-7.55041382 12.4945424 -6.09101202 9.99581801 -4.625 7.5 C-4.2125 6.78457031 -3.8 6.06914063 -3.375 5.33203125 C-2.30548562 3.52075689 -1.1580962 1.75595814 0 0 Z " fill="#454242" transform="translate(135,94)"/>
<path d="M0 0 C4.32785243 -0.24801447 6.79476758 0.03087419 10.375 2.5 C11.06335938 2.9640625 11.75171875 3.428125 12.4609375 3.90625 C12.96882813 4.2671875 13.47671875 4.628125 14 5 C13.67 5.66 13.34 6.32 13 7 C11.48640343 7.23898893 9.96280873 7.41579092 8.4375 7.5625 C1.76179817 8.74674467 -1.09399653 12.77999536 -5 18 C-5.825 19.010625 -6.65 20.02125 -7.5 21.0625 C-7.995 21.701875 -8.49 22.34125 -9 23 C-9.66 22.67 -10.32 22.34 -11 22 C-10.43732422 21.12601563 -10.43732422 21.12601563 -9.86328125 20.234375 C-5.81305293 13.74584803 -2.76628312 7.12379105 0 0 Z " fill="#454242" transform="translate(82,125)"/>
</svg>
