<?xml version="1.0" encoding="UTF-8"?>
<svg version="1.1" xmlns="http://www.w3.org/2000/svg" width="256" height="256">
<path d="M0 0 C8.00711166 5.99274394 13.18266735 14.04103866 14.8125 23.9375 C15.96440963 36.17045579 13.10035808 45.17318529 5.8125 54.9375 C6.56015625 55.48019531 7.3078125 56.02289063 8.078125 56.58203125 C9.06296875 57.29746094 10.0478125 58.01289062 11.0625 58.75 C12.03703125 59.45769531 13.0115625 60.16539063 14.015625 60.89453125 C14.93859375 61.56871094 15.8615625 62.24289063 16.8125 62.9375 C17.58078125 63.45570312 18.3490625 63.97390625 19.140625 64.5078125 C20.8125 65.9375 20.8125 65.9375 21.3125 69 C20.58192474 74.75328015 18.39415738 79.77418523 15.8125 84.9375 C12.65234375 85.3515625 12.65234375 85.3515625 8.75 85.5625 C6.81447266 85.67464844 6.81447266 85.67464844 4.83984375 85.7890625 C3.84082031 85.83804688 2.84179688 85.88703125 1.8125 85.9375 C4.44341714 101.98609457 14.10953823 112.7059437 26.9375 121.9375 C37.71013262 129.7327345 43.12475677 138.34566975 46.40625 151.27734375 C46.93686351 154.75184186 46.95775988 158.18254092 46.9375 161.6875 C46.94136719 162.37199219 46.94523438 163.05648437 46.94921875 163.76171875 C46.93922061 168.81077939 46.93922061 168.81077939 45.8125 169.9375 C44.08353403 170.03812696 42.3504348 170.06826512 40.61854553 170.07121277 C39.49256454 170.07547775 38.36658356 170.07974274 37.20648193 170.08413696 C35.96022034 170.08368378 34.71395874 170.08323059 33.42993164 170.08276367 C32.12601974 170.08612228 30.82210785 170.0894809 29.47868347 170.09294128 C25.89194127 170.10180188 22.3052229 170.10412026 18.71847081 170.10475707 C15.72875668 170.10570449 12.73904816 170.10938085 9.74933618 170.11292917 C2.69820368 170.12108157 -4.35291606 170.12351269 -11.40405273 170.12280273 C-18.68800614 170.12220174 -25.97188554 170.13275603 -33.25582021 170.1485464 C-39.50040949 170.16160337 -45.74497452 170.16698741 -51.98957735 170.16634732 C-55.72319515 170.16609179 -59.45674723 170.1689733 -63.19035149 170.17952538 C-67.35213185 170.19096571 -71.51374545 170.18647088 -75.67553711 170.18041992 C-76.91977448 170.18603943 -78.16401184 170.19165894 -79.44595337 170.19744873 C-80.57475418 170.19325424 -81.70355499 170.18905975 -82.86656189 170.18473816 C-84.3440914 170.18555531 -84.3440914 170.18555531 -85.85146999 170.18638897 C-88.1875 169.9375 -88.1875 169.9375 -90.1875 167.9375 C-90.71054932 154.46026256 -87.45970586 140.76238191 -79.1875 129.9375 C-75.18756281 125.68262175 -70.51657783 122.46027304 -65.75 119.125 C-53.85128998 110.54340609 -47.15859226 100.25276269 -44.1875 85.9375 C-45.15171875 85.94652344 -46.1159375 85.95554687 -47.109375 85.96484375 C-57.23786075 85.72713439 -57.23786075 85.72713439 -59.97265625 83.453125 C-61.64671006 80.47420034 -62.40089919 77.23614857 -63.1875 73.9375 C-63.38214844 73.26332031 -63.57679687 72.58914062 -63.77734375 71.89453125 C-64.23368557 69.07956878 -64.24441385 67.62471416 -63.1875 64.9375 C-59.94216864 61.97152235 -56.06756213 59.9182282 -52.25 57.78515625 C-51.239375 57.17542969 -50.22875 56.56570312 -49.1875 55.9375 C-49.1875 53.08905982 -50.53464206 51.63682114 -52.0625 49.25 C-57.56814245 40.12154093 -58.52876257 30.91191566 -56.7578125 20.3828125 C-54.04997893 10.98897013 -47.93574199 3.55619095 -39.78515625 -1.65625 C-26.95138385 -8.60385611 -12.21923315 -7.81441154 0 0 Z " fill="#555251" transform="translate(149.1875,63.0625)"/>
<path d="M0 0 C4.05065687 1.60428596 6.69520837 4.49088745 9.65625 7.56640625 C10.77329774 8.70391331 11.8904902 9.84127826 13.0078125 10.97851562 C14.74339567 12.75712375 16.47639098 14.53814433 18.20605469 16.32250977 C32.17461852 30.78373285 32.17461852 30.78373285 49.625 40.375 C50.56629761 40.7306604 50.56629761 40.7306604 51.52661133 41.09350586 C55.19862399 42.45540839 58.90597017 43.55446333 62.6875 44.5625 C68.29909591 46.16050413 69.96965185 49.16009258 72.75 54.125 C74 57 74 57 74 60 C74.66 60 75.32 60 76 60 C77.02419329 65.88911141 77 70.81915924 77 77 C36.41 77 -4.18 77 -46 77 C-45.06130071 63.85820988 -42.98672969 52.93901475 -33 44 C-30.59043168 42.22210671 -28.12781156 40.54225678 -25.6484375 38.86328125 C-11.99442895 29.25714249 -3.04173409 16.50805201 0 0 Z " fill="#555251" transform="translate(112,149)"/>
<path d="M0 0 C8.00711166 5.99274394 13.18266735 14.04103866 14.8125 23.9375 C15.96440963 36.17045579 13.10035808 45.17318529 5.8125 54.9375 C6.56015625 55.48019531 7.3078125 56.02289063 8.078125 56.58203125 C9.06296875 57.29746094 10.0478125 58.01289062 11.0625 58.75 C12.03703125 59.45769531 13.0115625 60.16539063 14.015625 60.89453125 C14.93859375 61.56871094 15.8615625 62.24289063 16.8125 62.9375 C17.58078125 63.45570312 18.3490625 63.97390625 19.140625 64.5078125 C20.8125 65.9375 20.8125 65.9375 21.3125 69 C20.58192474 74.75328015 18.39415738 79.77418523 15.8125 84.9375 C12.65234375 85.3515625 12.65234375 85.3515625 8.75 85.5625 C6.81447266 85.67464844 6.81447266 85.67464844 4.83984375 85.7890625 C3.84082031 85.83804688 2.84179688 85.88703125 1.8125 85.9375 C4.44341714 101.98609457 14.10953823 112.7059437 26.9375 121.9375 C37.71013262 129.7327345 43.12475677 138.34566975 46.40625 151.27734375 C46.93686351 154.75184186 46.95775988 158.18254092 46.9375 161.6875 C46.94136719 162.37199219 46.94523438 163.05648437 46.94921875 163.76171875 C46.93922061 168.81077939 46.93922061 168.81077939 45.8125 169.9375 C44.08353403 170.03812696 42.3504348 170.06826512 40.61854553 170.07121277 C39.49256454 170.07547775 38.36658356 170.07974274 37.20648193 170.08413696 C35.96022034 170.08368378 34.71395874 170.08323059 33.42993164 170.08276367 C32.12601974 170.08612228 30.82210785 170.0894809 29.47868347 170.09294128 C25.89194127 170.10180188 22.3052229 170.10412026 18.71847081 170.10475707 C15.72875668 170.10570449 12.73904816 170.10938085 9.74933618 170.11292917 C2.69820368 170.12108157 -4.35291606 170.12351269 -11.40405273 170.12280273 C-18.68800614 170.12220174 -25.97188554 170.13275603 -33.25582021 170.1485464 C-39.50040949 170.16160337 -45.74497452 170.16698741 -51.98957735 170.16634732 C-55.72319515 170.16609179 -59.45674723 170.1689733 -63.19035149 170.17952538 C-67.35213185 170.19096571 -71.51374545 170.18647088 -75.67553711 170.18041992 C-76.91977448 170.18603943 -78.16401184 170.19165894 -79.44595337 170.19744873 C-80.57475418 170.19325424 -81.70355499 170.18905975 -82.86656189 170.18473816 C-84.3440914 170.18555531 -84.3440914 170.18555531 -85.85146999 170.18638897 C-88.1875 169.9375 -88.1875 169.9375 -90.1875 167.9375 C-90.71054932 154.46026256 -87.45970586 140.76238191 -79.1875 129.9375 C-75.18756281 125.68262175 -70.51657783 122.46027304 -65.75 119.125 C-53.85128998 110.54340609 -47.15859226 100.25276269 -44.1875 85.9375 C-45.15171875 85.94652344 -46.1159375 85.95554687 -47.109375 85.96484375 C-57.23786075 85.72713439 -57.23786075 85.72713439 -59.97265625 83.453125 C-61.64671006 80.47420034 -62.40089919 77.23614857 -63.1875 73.9375 C-63.38214844 73.26332031 -63.57679687 72.58914062 -63.77734375 71.89453125 C-64.23368557 69.07956878 -64.24441385 67.62471416 -63.1875 64.9375 C-59.94216864 61.97152235 -56.06756213 59.9182282 -52.25 57.78515625 C-51.239375 57.17542969 -50.22875 56.56570312 -49.1875 55.9375 C-49.1875 53.08905982 -50.53464206 51.63682114 -52.0625 49.25 C-57.56814245 40.12154093 -58.52876257 30.91191566 -56.7578125 20.3828125 C-54.04997893 10.98897013 -47.93574199 3.55619095 -39.78515625 -1.65625 C-26.95138385 -8.60385611 -12.21923315 -7.81441154 0 0 Z M-46.375 12.8125 C-51.33212848 21.35927324 -52.92220634 28.87126683 -50.49609375 38.75390625 C-47.89252115 45.88922028 -43.48015798 50.67625245 -38.1875 55.9375 C-39.68556692 57.00272381 -41.18607929 58.06450856 -42.6875 59.125 C-43.59242187 59.76695313 -44.49734375 60.40890625 -45.4296875 61.0703125 C-47.83887102 62.70145942 -50.26515499 64.10306887 -52.8125 65.5 C-54.73364607 66.60918661 -54.73364607 66.60918661 -56.1875 67.9375 C-57.13513085 72.48612807 -55.96224274 74.50064316 -54.1875 78.9375 C-48.5775 79.2675 -42.9675 79.5975 -37.1875 79.9375 C-37.85016828 96.504207 -44.62148781 109.00195361 -56.625 120.25 C-59.92262306 123.15081365 -63.20807813 125.68737724 -66.9375 128 C-74.61276848 132.8880064 -79.32146418 140.44962467 -82.1875 148.9375 C-82.5175 153.5575 -82.8475 158.1775 -83.1875 162.9375 C-42.5975 162.9375 -2.0075 162.9375 39.8125 162.9375 C39.82459664 154.29163532 39.82459664 154.29163532 38.8125 145.9375 C38.1525 145.9375 37.4925 145.9375 36.8125 145.9375 C36.65587891 144.84888672 36.65587891 144.84888672 36.49609375 143.73828125 C35.74907973 140.67765809 34.63701352 138.72278522 32.875 136.125 C32.35035156 135.33480469 31.82570313 134.54460937 31.28515625 133.73046875 C30.55619141 132.84294922 30.55619141 132.84294922 29.8125 131.9375 C29.1525 131.9375 28.4925 131.9375 27.8125 131.9375 C27.8125 131.2775 27.8125 130.6175 27.8125 129.9375 C25.69444375 128.37080121 23.56433921 126.89798925 21.375 125.4375 C7.95796319 116.09949933 -0.5897233 104.42846452 -4.0625 88.25 C-4.43896325 86.14609464 -4.81426341 84.04198017 -5.1875 81.9375 C-5.5175 80.9475 -5.8475 79.9575 -6.1875 78.9375 C-0.2475 78.9375 5.6925 78.9375 11.8125 78.9375 C14.9942299 72.86168589 14.9942299 72.86168589 14.75219727 69.68847656 C13.48323032 67.32395826 12.02988517 66.37106249 9.77734375 64.921875 C8.96845703 64.39335938 8.15957031 63.86484375 7.32617188 63.3203125 C6.47603516 62.78148437 5.62589844 62.24265625 4.75 61.6875 C3.89599609 61.13320312 3.04199219 60.57890625 2.16210938 60.0078125 C0.05209947 58.64043178 -2.0643289 57.28431837 -4.1875 55.9375 C-3.42824219 55.20273438 -2.66898437 54.46796875 -1.88671875 53.7109375 C4.74989875 46.89183703 8.70269313 39.80788633 9.1875 30.1875 C8.96729367 21.66421979 5.88886376 13.85944621 0.0078125 7.66015625 C-6.80055288 2.3176489 -16.24382027 -0.52458477 -24.875 -0.41015625 C-33.49174706 0.88526687 -41.18463297 5.99087477 -46.375 12.8125 Z " fill="#262525" transform="translate(149.1875,63.0625)"/>
<path d="M0 0 C1.25159912 0.00523682 2.50319824 0.01047363 3.79272461 0.01586914 C4.78942421 0.01799156 4.78942421 0.01799156 5.80625916 0.02015686 C7.93590735 0.02577021 10.06545175 0.03832485 12.19506836 0.05102539 C13.63582205 0.05603868 15.07657739 0.06060188 16.51733398 0.06469727 C20.05577938 0.07574394 23.59416375 0.09301747 27.13256836 0.11352539 C27.31867676 1.09192383 27.31867676 1.09192383 27.50854492 2.09008789 C31.19431805 21.05748206 38.87016567 36.14977049 55.19506836 47.17602539 C56.33070745 47.91856466 57.46733877 48.65958994 58.60522461 49.39868164 C59.43924805 49.96458008 60.27327148 50.53047852 61.13256836 51.11352539 C61.13256836 51.44352539 61.13256836 51.77352539 61.13256836 52.11352539 C48.80536349 50.9421004 38.34163429 46.29290044 29.13256836 38.11352539 C28.40336182 37.47261963 27.67415527 36.83171387 26.92285156 36.17138672 C19.90504747 29.93615655 13.29480239 23.34998531 6.70629883 16.66674805 C5.32955407 15.27203135 3.94985949 13.88022839 2.57006836 12.48852539 C1.7644043 11.67125977 0.95874023 10.85399414 0.12866211 10.01196289 C-1.72682912 8.06201523 -1.72682912 8.06201523 -3.86743164 7.11352539 C-3.9099752 5.11397793 -3.90823947 3.11310903 -3.86743164 1.11352539 C-2.86743164 0.11352539 -2.86743164 0.11352539 0 0 Z " fill="#444141" transform="translate(115.867431640625,141.886474609375)"/>
<path d="M0 0 C0.33 0 0.66 0 1 0 C0.01703142 10.81265443 -3.43187194 21.49490272 -11.96704102 28.64868164 C-14.08866797 30.18188958 -16.24269894 31.6361704 -18.4375 33.0625 C-26.30337272 38.24348817 -33.09570087 43.35979928 -37.4375 51.9375 C-37.93121094 52.89527344 -38.42492187 53.85304687 -38.93359375 54.83984375 C-39.28550781 55.55269531 -39.63742188 56.26554687 -40 57 C-40.33 57 -40.66 57 -41 57 C-41.96361646 47.36383542 -38.16843103 39.71236231 -32.25 32.1875 C-29.13371669 28.81964174 -25.42599541 26.42192642 -21.64453125 23.859375 C-13.19306076 17.91712987 -7.28132068 11.09606598 -1.71484375 2.52734375 C-1.14894531 1.69332031 -0.58304688 0.85929688 0 0 Z " fill="#757272" transform="translate(108,164)"/>
<path d="M0 0 C5.50368625 2.36551526 8.49339176 6.8803688 11.05078125 12.17578125 C14.31410417 20.88313102 13.74351704 28.79796769 10.34765625 37.37890625 C8.21143323 41.53370523 5.31294356 44.74417616 2 48 C1.34 48.66 0.68 49.32 0 50 C-3.21341369 51.60670684 -6.62958968 50.82510855 -10.125 50.5625 C-10.87910156 50.51029297 -11.63320312 50.45808594 -12.41015625 50.40429688 C-14.2737937 50.27454996 -16.13694996 50.13792512 -18 50 C-15.31795453 47.90048024 -12.64083977 46.2017022 -9.625 44.625 C-0.94406721 39.80067833 3.62315478 34.48050059 6.63671875 24.99609375 C8.3191436 16.33070126 4.70459991 7.13801366 0 0 Z " fill="#434040" transform="translate(145,69)"/>
<path d="M0 0 C6.70629026 3.51513281 12.87088942 7.55991363 19 12 C18.46599103 15.91606575 17.80330533 18.39338934 16 22 C10.06 22 4.12 22 -2 22 C-0.68 20.35 0.64 18.7 2 17 C3.53597454 13.92805092 3.2265038 11.39755707 3 8 C1.58376759 4.74941676 1.58376759 4.74941676 0 2 C0 1.34 0 0.68 0 0 Z " fill="#434040" transform="translate(145,120)"/>
<path d="M0 0 C-2.01091511 1.52520875 -4.02608758 3.01774534 -6.11328125 4.4375 C-17.05370274 12.21044599 -21.03958495 22.40444529 -24 35 C-24.99 35 -25.98 35 -27 35 C-27.75646452 24.27501419 -26.07325505 17.21553248 -19.625 8.625 C-16.55724866 5.55724866 -13.86036271 3.96527556 -10 2 C-9.319375 1.5875 -8.63875 1.175 -7.9375 0.75 C-5.25602551 -0.28799012 -2.84423938 -0.12928361 0 0 Z " fill="#726F6F" transform="translate(125,64)"/>
<path d="M0 0 C0.66 0.33 1.32 0.66 2 1 C1.40477663 2.44122613 0.79842381 3.87785868 0.1875 5.3125 C-0.31716797 6.51326172 -0.31716797 6.51326172 -0.83203125 7.73828125 C-2.05152451 10.09977489 -2.81763001 11.48013519 -5 13 C-7.91796875 13.29296875 -7.91796875 13.29296875 -11.1875 13.1875 C-12.27417969 13.16042969 -13.36085938 13.13335937 -14.48046875 13.10546875 C-15.72763672 13.05326172 -15.72763672 13.05326172 -17 13 C-17 12.34 -17 11.68 -17 11 C-14.75670604 9.41161749 -12.52297625 7.9404021 -10.1875 6.5 C-8.91012919 5.69795976 -7.63278455 4.89587785 -6.35546875 4.09375 C-5.24816406 3.4028125 -4.14085938 2.711875 -3 2 C-2.01 1.34 -1.02 0.68 0 0 Z " fill="#716E6E" transform="translate(110,120)"/>
</svg>
