<?xml version="1.0" encoding="UTF-8"?>
<svg version="1.1" xmlns="http://www.w3.org/2000/svg" width="256" height="256">
<path d="M0 0 C5.83735326 3.54190356 10.32909404 7.64260971 12.625 14.1875 C14.09933653 20.25070897 14.61350487 27.03918827 11.36328125 32.59375 C10.65751953 33.56828125 10.65751953 33.56828125 9.9375 34.5625 C8.03584933 37.22166909 8.03584933 37.22166909 7.69384766 40.38256836 C9.30882086 46.69517444 11.40879291 52.77263056 13.6875 58.875 C14.05166016 59.86693359 14.41582031 60.85886719 14.79101562 61.88085938 C16.53318253 66.73358843 16.53318253 66.73358843 18.625 71.4375 C20.29751665 66.84036199 21.93609819 62.23302157 23.54443359 57.61303711 C24.09614096 56.04337939 24.65696623 54.47689545 25.22705078 52.91381836 C26.04540347 50.6651337 26.83019664 48.40704144 27.609375 46.14453125 C27.87063171 45.44850296 28.13188843 44.75247467 28.40106201 44.03535461 C29.20781593 41.80654025 29.20781593 41.80654025 29.625 38.4375 C27.94889303 35.56470855 27.94889303 35.56470855 25.625 33.4375 C22.73520622 27.68569892 22.79254008 21.7247631 23.625 15.4375 C26.50725378 8.07284466 31.17900385 2.66049808 38.25 -0.875 C45.91948121 -2.43730173 53.50192915 -2.59310178 60.5859375 1.0390625 C65.20258466 4.20526879 68.48310443 8.25300413 71.0625 13.1875 C72.3201549 20.45395054 72.9445623 27.9681292 69.07824707 34.5252533 C67.43813716 36.68338239 65.67838351 37.94840175 63.49023438 39.53735352 C61.15486049 41.54805623 59.8209004 42.72576092 58.99731445 45.71798706 C58.89299325 48.36730559 59.03306092 50.88766005 59.28125 53.52734375 C59.33696167 54.47186905 59.39267334 55.41639435 59.45007324 56.38954163 C59.63596766 59.38879655 59.87949623 62.3800947 60.125 65.375 C60.26164401 67.41446044 60.39449789 69.4541786 60.5234375 71.49414062 C60.84681513 76.47931293 61.22191248 81.4581649 61.625 86.4375 C62.10674683 85.95543594 62.58849365 85.47337189 63.08483887 84.97669983 C63.71619751 84.34509445 64.34755615 83.71348907 64.99804688 83.06274414 C65.93722961 82.12308556 65.93722961 82.12308556 66.89538574 81.16444397 C68.14497907 79.91677984 69.39918858 78.67373319 70.65625 77.43359375 C72.16436143 75.83323082 73.47762311 74.31622017 74.625 72.4375 C74.60582606 69.48400188 74.60582606 69.48400188 73.625 66.4375 C72.87042681 59.69749877 73.88418772 54.15812937 77.625 48.4375 C82.12859549 43.50140891 86.68077443 39.85126753 93.4921875 39.13671875 C101.19884976 39.10669279 105.68516929 39.99855718 112.25 44.0625 C116.9071931 48.7196931 120.32548799 54.66704557 120.75 61.33984375 C120.2466075 69.78739907 116.78050287 75.78365705 110.625 81.4375 C107.53620329 83.68389761 106.43172941 84.4375 102.625 84.4375 C102.24085938 85.65179688 101.85671875 86.86609375 101.4609375 88.1171875 C99.36590619 94.39250299 96.80208525 100.46202989 94.25 106.5625 C93.72648744 107.82021353 93.20321776 109.07802819 92.68017578 110.3359375 C91.00035646 114.37198794 89.31351512 118.40508098 87.625 122.4375 C87.32972412 123.14273804 87.03444824 123.84797607 86.73022461 124.57458496 C84.0953486 130.86648102 81.45901534 137.15776369 78.81494141 143.44580078 C78.41647003 144.39388107 78.41647003 144.39388107 78.00994873 145.3611145 C77.29199231 147.06902204 76.57350612 148.77670686 75.85498047 150.484375 C74.75451457 153.12654164 73.67999947 155.77690589 72.625 158.4375 C73.285 158.499375 73.945 158.56125 74.625 158.625 C81.62322912 160.52035372 87.87356738 165.20104196 91.625 171.4375 C94.19822915 178.14858507 93.85084166 184.76566326 93.75 191.875 C93.74097656 193.08349609 93.73195312 194.29199219 93.72265625 195.53710938 C93.69920168 198.50411278 93.66637794 201.47070143 93.625 204.4375 C74.08470205 204.46082758 54.54440691 204.47847848 35.00409794 204.48931217 C25.93184507 204.49447543 16.85960084 204.50151869 7.78735352 204.51293945 C-0.11708712 204.52288538 -8.02152151 204.52935321 -15.92596823 204.53158849 C-20.11394719 204.53289576 -24.30190827 204.53598259 -28.48988152 204.54323006 C-32.42715298 204.54998884 -36.36439908 204.55211725 -40.3016758 204.55060768 C-41.75094617 204.55088407 -43.20021735 204.55289004 -44.64948273 204.55670547 C-46.61970414 204.56164043 -48.58993898 204.55989809 -50.56016541 204.55775452 C-52.21801009 204.55913721 -52.21801009 204.55913721 -53.90934658 204.56054783 C-56.375 204.4375 -56.375 204.4375 -57.375 203.4375 C-58.52459946 190.12117411 -58.50122935 177.57915838 -51.25 166.0625 C-46.89664181 162.0876947 -41.4178977 158.4375 -35.375 158.4375 C-35.68010498 157.77685547 -35.98520996 157.11621094 -36.29956055 156.43554688 C-39.40736041 149.65922173 -42.34324016 142.82805132 -45.1875 135.9375 C-46.06611921 133.81889136 -46.94502889 131.70040315 -47.82421875 129.58203125 C-48.25524902 128.54256348 -48.6862793 127.5030957 -49.13037109 126.43212891 C-51.22477749 121.39290001 -53.32963782 116.35779276 -55.47802734 111.34130859 C-57.19077027 107.32940849 -58.81322563 103.30451677 -60.33203125 99.21484375 C-60.66380371 98.35286377 -60.99557617 97.49088379 -61.33740234 96.6027832 C-61.96562046 94.96617591 -62.57076283 93.32042884 -63.14697266 91.66479492 C-65.3373665 86.06489452 -67.92696658 84.08862601 -73.2956543 81.49316406 C-78.11350796 79.04718552 -80.57173127 74.19008631 -82.75 69.4375 C-84.19291298 62.51151768 -83.77783237 56.65398175 -80.375 50.4375 C-76.61028419 45.01903306 -72.91349957 41.15251628 -66.375 39.4375 C-58.84829586 38.61621598 -52.64462603 38.96545905 -46.375 43.4375 C-40.23856316 48.59768553 -37.17882612 54.10497794 -36.2578125 61.93359375 C-36.375 64.4375 -36.375 64.4375 -37.03955078 66.25830078 C-37.8126216 68.41634851 -38.31679772 70.14014195 -38.375 72.4375 C-36.74728303 75.31373701 -34.47795407 77.28559252 -32 79.4375 C-31.3709375 80.02144531 -30.741875 80.60539062 -30.09375 81.20703125 C-28.54238768 82.64086612 -26.96137976 84.04250654 -25.375 85.4375 C-23.59975158 78.91582051 -23.70883504 72.00857872 -23.43286133 65.28491211 C-23.35282665 63.51619453 -23.25654712 61.74813503 -23.14379883 59.98120117 C-22.09257166 50.00066055 -22.09257166 50.00066055 -25.07666016 40.85180664 C-27.09270333 39.15617443 -29.13574072 37.81409613 -31.375 36.4375 C-34.95848013 30.83408649 -36.1014246 24.97532141 -35.375 18.4375 C-33.82508475 11.46288139 -31.19719709 6.13804299 -25.28515625 1.9609375 C-17.57435295 -2.51307803 -8.32016828 -3.70860214 0 0 Z " fill="#555251" transform="translate(110.375,28.5625)"/>
<path d="M0 0 C5.83735326 3.54190356 10.32909404 7.64260971 12.625 14.1875 C14.09933653 20.25070897 14.61350487 27.03918827 11.36328125 32.59375 C10.65751953 33.56828125 10.65751953 33.56828125 9.9375 34.5625 C8.03584933 37.22166909 8.03584933 37.22166909 7.69384766 40.38256836 C9.30882086 46.69517444 11.40879291 52.77263056 13.6875 58.875 C14.05166016 59.86693359 14.41582031 60.85886719 14.79101562 61.88085938 C16.53318253 66.73358843 16.53318253 66.73358843 18.625 71.4375 C20.29751665 66.84036199 21.93609819 62.23302157 23.54443359 57.61303711 C24.09614096 56.04337939 24.65696623 54.47689545 25.22705078 52.91381836 C26.04540347 50.6651337 26.83019664 48.40704144 27.609375 46.14453125 C27.87063171 45.44850296 28.13188843 44.75247467 28.40106201 44.03535461 C29.20781593 41.80654025 29.20781593 41.80654025 29.625 38.4375 C27.94889303 35.56470855 27.94889303 35.56470855 25.625 33.4375 C22.73520622 27.68569892 22.79254008 21.7247631 23.625 15.4375 C26.50725378 8.07284466 31.17900385 2.66049808 38.25 -0.875 C45.91948121 -2.43730173 53.50192915 -2.59310178 60.5859375 1.0390625 C65.20258466 4.20526879 68.48310443 8.25300413 71.0625 13.1875 C72.3201549 20.45395054 72.9445623 27.9681292 69.07824707 34.5252533 C67.43813716 36.68338239 65.67838351 37.94840175 63.49023438 39.53735352 C61.15486049 41.54805623 59.8209004 42.72576092 58.99731445 45.71798706 C58.89299325 48.36730559 59.03306092 50.88766005 59.28125 53.52734375 C59.33696167 54.47186905 59.39267334 55.41639435 59.45007324 56.38954163 C59.63596766 59.38879655 59.87949623 62.3800947 60.125 65.375 C60.26164401 67.41446044 60.39449789 69.4541786 60.5234375 71.49414062 C60.84681513 76.47931293 61.22191248 81.4581649 61.625 86.4375 C62.10674683 85.95543594 62.58849365 85.47337189 63.08483887 84.97669983 C63.71619751 84.34509445 64.34755615 83.71348907 64.99804688 83.06274414 C65.93722961 82.12308556 65.93722961 82.12308556 66.89538574 81.16444397 C68.14497907 79.91677984 69.39918858 78.67373319 70.65625 77.43359375 C72.16436143 75.83323082 73.47762311 74.31622017 74.625 72.4375 C74.60582606 69.48400188 74.60582606 69.48400188 73.625 66.4375 C72.87042681 59.69749877 73.88418772 54.15812937 77.625 48.4375 C82.12859549 43.50140891 86.68077443 39.85126753 93.4921875 39.13671875 C101.19884976 39.10669279 105.68516929 39.99855718 112.25 44.0625 C116.9071931 48.7196931 120.32548799 54.66704557 120.75 61.33984375 C120.2466075 69.78739907 116.78050287 75.78365705 110.625 81.4375 C107.53620329 83.68389761 106.43172941 84.4375 102.625 84.4375 C102.24085938 85.65179688 101.85671875 86.86609375 101.4609375 88.1171875 C99.36590619 94.39250299 96.80208525 100.46202989 94.25 106.5625 C93.72648744 107.82021353 93.20321776 109.07802819 92.68017578 110.3359375 C91.00035646 114.37198794 89.31351512 118.40508098 87.625 122.4375 C87.32972412 123.14273804 87.03444824 123.84797607 86.73022461 124.57458496 C84.0953486 130.86648102 81.45901534 137.15776369 78.81494141 143.44580078 C78.41647003 144.39388107 78.41647003 144.39388107 78.00994873 145.3611145 C77.29199231 147.06902204 76.57350612 148.77670686 75.85498047 150.484375 C74.75451457 153.12654164 73.67999947 155.77690589 72.625 158.4375 C73.285 158.499375 73.945 158.56125 74.625 158.625 C81.62322912 160.52035372 87.87356738 165.20104196 91.625 171.4375 C94.19822915 178.14858507 93.85084166 184.76566326 93.75 191.875 C93.74097656 193.08349609 93.73195312 194.29199219 93.72265625 195.53710938 C93.69920168 198.50411278 93.66637794 201.47070143 93.625 204.4375 C74.08470205 204.46082758 54.54440691 204.47847848 35.00409794 204.48931217 C25.93184507 204.49447543 16.85960084 204.50151869 7.78735352 204.51293945 C-0.11708712 204.52288538 -8.02152151 204.52935321 -15.92596823 204.53158849 C-20.11394719 204.53289576 -24.30190827 204.53598259 -28.48988152 204.54323006 C-32.42715298 204.54998884 -36.36439908 204.55211725 -40.3016758 204.55060768 C-41.75094617 204.55088407 -43.20021735 204.55289004 -44.64948273 204.55670547 C-46.61970414 204.56164043 -48.58993898 204.55989809 -50.56016541 204.55775452 C-52.21801009 204.55913721 -52.21801009 204.55913721 -53.90934658 204.56054783 C-56.375 204.4375 -56.375 204.4375 -57.375 203.4375 C-58.52459946 190.12117411 -58.50122935 177.57915838 -51.25 166.0625 C-46.89664181 162.0876947 -41.4178977 158.4375 -35.375 158.4375 C-35.68010498 157.77685547 -35.98520996 157.11621094 -36.29956055 156.43554688 C-39.40736041 149.65922173 -42.34324016 142.82805132 -45.1875 135.9375 C-46.06611921 133.81889136 -46.94502889 131.70040315 -47.82421875 129.58203125 C-48.25524902 128.54256348 -48.6862793 127.5030957 -49.13037109 126.43212891 C-51.22477749 121.39290001 -53.32963782 116.35779276 -55.47802734 111.34130859 C-57.19077027 107.32940849 -58.81322563 103.30451677 -60.33203125 99.21484375 C-60.66380371 98.35286377 -60.99557617 97.49088379 -61.33740234 96.6027832 C-61.96562046 94.96617591 -62.57076283 93.32042884 -63.14697266 91.66479492 C-65.3373665 86.06489452 -67.92696658 84.08862601 -73.2956543 81.49316406 C-78.11350796 79.04718552 -80.57173127 74.19008631 -82.75 69.4375 C-84.19291298 62.51151768 -83.77783237 56.65398175 -80.375 50.4375 C-76.61028419 45.01903306 -72.91349957 41.15251628 -66.375 39.4375 C-58.84829586 38.61621598 -52.64462603 38.96545905 -46.375 43.4375 C-40.23856316 48.59768553 -37.17882612 54.10497794 -36.2578125 61.93359375 C-36.375 64.4375 -36.375 64.4375 -37.03955078 66.25830078 C-37.8126216 68.41634851 -38.31679772 70.14014195 -38.375 72.4375 C-36.74728303 75.31373701 -34.47795407 77.28559252 -32 79.4375 C-31.3709375 80.02144531 -30.741875 80.60539062 -30.09375 81.20703125 C-28.54238768 82.64086612 -26.96137976 84.04250654 -25.375 85.4375 C-23.59975158 78.91582051 -23.70883504 72.00857872 -23.43286133 65.28491211 C-23.35282665 63.51619453 -23.25654712 61.74813503 -23.14379883 59.98120117 C-22.09257166 50.00066055 -22.09257166 50.00066055 -25.07666016 40.85180664 C-27.09270333 39.15617443 -29.13574072 37.81409613 -31.375 36.4375 C-34.95848013 30.83408649 -36.1014246 24.97532141 -35.375 18.4375 C-33.82508475 11.46288139 -31.19719709 6.13804299 -25.28515625 1.9609375 C-17.57435295 -2.51307803 -8.32016828 -3.70860214 0 0 Z M-27.4375 13.0625 C-29.07964068 18.97420645 -29.95955983 25.26838033 -27.1328125 30.921875 C-24.789183 34.11667342 -22.68898696 36.22817536 -19.375 38.4375 C-18.055 38.4375 -16.735 38.4375 -15.375 38.4375 C-15.43137634 39.33047287 -15.43137634 39.33047287 -15.4888916 40.2414856 C-15.88341344 46.50425892 -16.27177032 52.76739404 -16.65673828 59.03076172 C-16.80070299 61.36028468 -16.94617743 63.6897149 -17.09326172 66.01904297 C-18.2662076 84.21305341 -18.2662076 84.21305341 -18.375 102.4375 C-19.035 102.4375 -19.695 102.4375 -20.375 102.4375 C-20.59800781 101.89738281 -20.82101563 101.35726562 -21.05078125 100.80078125 C-22.80043216 97.67824791 -25.12755753 95.21636363 -27.5625 92.625 C-28.05572754 92.09382568 -28.54895508 91.56265137 -29.05712891 91.01538086 C-33.64994028 86.09150871 -38.34365469 81.29596486 -43.3125 76.75 C-45.375 74.4375 -45.375 74.4375 -45.375 70.4375 C-44.715 69.4475 -44.055 68.4575 -43.375 67.4375 C-42.51726949 62.73895856 -42.34896577 58.2983254 -44.6953125 54.04296875 C-48.73154269 49.16510312 -52.98516637 46.11220206 -59.3828125 45.12890625 C-64.57435772 44.80320094 -67.46657129 46.15086677 -71.375 49.4375 C-76.16374286 54.87337027 -76.78735494 58.22607784 -76.71875 65.38671875 C-76.04245728 71.38881668 -72.89440052 74.20298708 -68.375 77.875 C-65.33391385 79.45889904 -63.73591249 79.83290147 -60.375 79.4375 C-60.29636719 80.22125 -60.21773437 81.005 -60.13671875 81.8125 C-59.11727896 86.66398784 -57.1906062 90.91822269 -55.1875 95.4375 C-54.78184814 96.36796143 -54.37619629 97.29842285 -53.95825195 98.25708008 C-53.14433555 100.12384453 -52.32789229 101.98950952 -51.50878906 103.85400391 C-50.00946144 107.27043045 -48.53355787 110.69630358 -47.0625 114.125 C-46.63324219 115.11886719 -46.20398438 116.11273438 -45.76171875 117.13671875 C-44.31062628 120.59072759 -42.91868303 124.06474202 -41.5324707 127.54516602 C-39.25791689 133.22891185 -36.93729843 138.89403088 -34.625 144.5625 C-34.11325123 145.81769609 -33.60153229 147.07290435 -33.08984375 148.328125 C-31.85185445 151.36470253 -30.61350978 154.40113473 -29.375 157.4375 C-28.70058365 157.36685333 -28.0261673 157.29620667 -27.33131409 157.22341919 C-18.49093592 156.38374641 -9.70844762 156.29107161 -0.83984375 156.3046875 C0.73091141 156.30401178 2.30166646 156.30303953 3.87242126 156.30178833 C7.14420581 156.3003244 10.41596283 156.30242384 13.68774414 156.30712891 C17.85198435 156.31283014 22.01616013 156.30953633 26.18039799 156.30355644 C29.41743951 156.29991942 32.6544661 156.30110368 35.8915081 156.30368423 C37.42588751 156.30434459 38.96026833 156.30355679 40.49464607 156.30120468 C48.91916677 156.29111812 57.24799711 156.45731276 65.625 157.4375 C66.52166542 155.35452466 67.41727569 153.27109511 68.3125 151.1875 C68.81136719 150.02734375 69.31023437 148.8671875 69.82421875 147.671875 C71.63085738 143.44193587 73.39753829 139.1956513 75.16381836 134.94873047 C76.52175491 131.68559873 77.88309527 128.42391612 79.2457428 125.16275024 C80.52507512 122.10062025 81.80320188 119.03798759 83.08129883 115.9753418 C83.73325775 114.41365765 84.38559897 112.85213304 85.03833008 111.29077148 C85.68459988 109.74469402 86.33027813 108.19836915 86.97535706 106.65179443 C87.61039131 105.12999354 88.24704033 103.60886539 88.88536072 102.08843994 C90.41337433 98.43136334 91.89235272 94.76695913 93.27368164 91.05175781 C93.6646981 90.01683952 93.6646981 90.01683952 94.06361389 88.96101379 C94.76540164 87.09038531 95.44974703 85.21323925 96.1328125 83.33569336 C97.79228638 80.1125889 98.89541641 79.19926075 102.1875 77.8125 C102.95320312 77.58304687 103.71890625 77.35359375 104.5078125 77.1171875 C108.37957512 75.87422312 110.7216001 72.97073503 112.734375 69.5546875 C114.69749208 64.88797935 114.13061968 59.95435903 112.5625 55.25 C109.73469048 51.14511521 106.11484989 47.68242495 101.625 45.4375 C96.18000875 44.63795667 91.83225863 44.7614112 87.25 48 C83.58243032 51.18401587 81.39770052 53.8901378 79.625 58.4375 C79.431811 63.69960043 80.74364364 68.54597346 82.625 73.4375 C81.965 74.05625 81.305 74.675 80.625 75.3125 C78.3965451 77.19387427 78.3965451 77.19387427 78.625 79.4375 C77.965 79.4375 77.305 79.4375 76.625 79.4375 C75.12450064 80.92111694 75.12450064 80.92111694 73.5625 82.875 C70.15449888 86.89615613 66.51736395 90.5900345 62.73828125 94.26171875 C60.52713752 96.53825675 58.56935688 98.93134248 56.625 101.4375 C55.04321508 80.44960453 53.77768151 59.45262597 52.625 38.4375 C54.04232422 37.99664062 54.04232422 37.99664062 55.48828125 37.546875 C60.03043701 35.94043386 61.82774165 33.69033456 64.375 29.6875 C66.49072793 24.18660738 66.41965128 19.65648787 64.125 14.3125 C61.56471884 9.79855483 58.36931933 6.6040725 53.625 4.4375 C48.34704914 3.45167585 43.47400875 3.6196305 38.6875 6.1875 C33.70362777 9.84912041 31.0731185 12.28299637 29.625 18.4375 C28.96369461 24.3892485 30.42638981 28.51656125 33.625 33.4375 C34.46611328 34.14132813 34.46611328 34.14132813 35.32421875 34.859375 C36.625 36.4375 36.625 36.4375 36.4296875 38.796875 C35.61616009 41.46650864 34.73500721 44.07608555 33.75 46.6875 C31.22419793 53.51719586 28.88632785 60.20955732 27.25 67.3125 C25.9986393 72.54425273 24.03241339 77.05136539 21.69921875 81.87890625 C20.20176807 85.4455615 19.84262038 88.59287324 19.625 92.4375 C18.965 92.4375 18.305 92.4375 17.625 92.4375 C17.49351563 91.71691406 17.36203125 90.99632813 17.2265625 90.25390625 C16.64602194 87.53592089 15.8912658 85.00617163 15 82.375 C14.64421875 81.32441406 14.2884375 80.27382812 13.921875 79.19140625 C12.67345665 75.57776156 11.41287288 71.96873523 10.14379883 68.36230469 C9.54529915 66.65492128 8.95142239 64.94591071 8.36206055 63.23535156 C6.87059917 58.9155924 5.32442941 54.63873891 3.62890625 50.39453125 C3.3232373 49.59160645 3.01756836 48.78868164 2.70263672 47.96142578 C2.12357952 46.44151976 1.51578553 44.93215084 0.87548828 43.43701172 C0.10546875 41.35546875 0.10546875 41.35546875 -0.375 37.4375 C0.91181749 35.28421466 2.32856 33.70637133 4.13793945 31.97387695 C7.49462391 28.50587247 6.96227193 23.75226013 6.890625 19.2265625 C6.49879414 15.1123385 5.50261944 12.42370886 2.625 9.4375 C-2.38667431 5.42611914 -7.44228187 3.535265 -13.87890625 3.88671875 C-19.62740652 5.15516717 -23.85585359 8.50404093 -27.4375 13.0625 Z " fill="#262626" transform="translate(110.375,28.5625)"/>
<path d="M0 0 C3.26156317 0.00318656 6.52223732 -0.02053617 9.78369141 -0.0456543 C51.63556224 -0.16912857 51.63556224 -0.16912857 64.02587891 10.42504883 C70.76370025 19.07519613 68.49853516 25.89185983 68.49853516 37.31567383 C22.95853516 37.31567383 -22.58146484 37.31567383 -69.50146484 37.31567383 C-69.50146484 15.47356856 -69.50146484 15.47356856 -66.12646484 11.56567383 C-65.26021484 10.82317383 -64.39396484 10.08067383 -63.50146484 9.31567383 C-63.06962891 8.81680664 -62.63779297 8.31793945 -62.19287109 7.80395508 C-55.6607496 2.05629159 -43.90116784 1.87648955 -35.59130859 1.21411133 C-34.02875336 1.08786125 -34.02875336 1.08786125 -32.43463135 0.95906067 C-21.62527864 0.15185434 -10.83592816 -0.02204748 0 0 Z " fill="#565352" transform="translate(129.50146484375,188.684326171875)"/>
<path d="M0 0 C4.22031761 4.00389106 6.12082394 6.47142425 6.3125 12.3125 C6.25995883 16.93612292 5.0055424 19.41004657 2 23 C1.4225 23.721875 0.845 24.44375 0.25 25.1875 C-2.01668855 27.01344356 -3.16619571 27.36739703 -5.890625 28.10351562 C-9.25117266 29.33576714 -10.65776163 30.40285092 -12.25 33.61914062 C-12.86315318 35.11966831 -13.44485497 36.6333074 -14 38.15625 C-14.32484375 38.97258911 -14.6496875 39.78892822 -14.984375 40.63000488 C-16.01746938 43.24341083 -17.00942041 45.870224 -18 48.5 C-18.66391646 50.20550024 -19.33056201 51.90994074 -20 53.61328125 C-21.00190024 56.16639565 -22.00064614 58.72042573 -22.98736572 61.27944946 C-25.93733507 68.92640355 -29.09957738 76.47518032 -32.31152344 84.01513672 C-33.66853307 87.20161093 -34.97983904 90.40269936 -36.25 93.625 C-38.03249841 98.14490667 -39.99821094 102.573714 -42 107 C-42.63186722 106.93148331 -43.26373444 106.86296661 -43.91474915 106.79237366 C-51.60781138 106.0189503 -59.25239133 105.78827657 -66.98046875 105.68359375 C-68.27447098 105.66281265 -69.56847321 105.64203156 -70.90168762 105.62062073 C-74.30290009 105.56604457 -77.70416612 105.51635774 -81.10546875 105.46777344 C-84.59184399 105.41708036 -88.07814373 105.36164671 -91.56445312 105.30664062 C-98.37623638 105.19985048 -105.18808817 105.09823788 -112 105 C-112 104.67 -112 104.34 -112 104 C-110.85337891 104.01740234 -110.85337891 104.01740234 -109.68359375 104.03515625 C-94.00818961 104.16719937 -81.13468584 104.08946464 -68 95 C-66.72769531 94.15888672 -66.72769531 94.15888672 -65.4296875 93.30078125 C-63.13964395 91.65306699 -61.08065033 89.90471298 -59 88 C-58.154375 87.23429687 -57.30875 86.46859375 -56.4375 85.6796875 C-42.08641288 72.02169265 -30.42013978 54.61563168 -21.41015625 37.0390625 C-16.67856324 27.83514185 -13.10089139 21.03334205 -3 17 C-2.34 17 -1.68 17 -1 17 C0.88341198 10.90660831 1.0748291 6.27467799 0 0 Z " fill="#444141" transform="translate(218,79)"/>
<path d="M0 0 C3.26156317 0.00318656 6.52223732 -0.02053617 9.78369141 -0.0456543 C52.69989974 -0.17247119 52.69989974 -0.17247119 64.49853516 11.31567383 C64.16853516 12.30567383 63.83853516 13.29567383 63.49853516 14.31567383 C62.95942505 14.18416931 62.42031494 14.05266479 61.86486816 13.91717529 C43.05385804 9.50845541 23.4857659 9.99301416 4.27636719 10.05493164 C0.7135054 10.06632531 -2.8490575 10.05954559 -6.4119091 10.04805183 C-37.26314038 9.84699316 -37.26314038 9.84699316 -67.50146484 15.31567383 C-66.79001342 11.70486661 -65.63758939 9.81841969 -62.63818359 7.54614258 C-54.41573984 2.81109727 -44.8728693 1.96957032 -35.60302734 1.22192383 C-34.56047791 1.13719315 -33.51792847 1.05246246 -32.44378662 0.96516418 C-21.63105659 0.15269207 -10.83965315 -0.02205506 0 0 Z " fill="#747271" transform="translate(129.50146484375,188.684326171875)"/>
<path d="M0 0 C4.53059042 3.06120975 6.35058689 5.79132701 8 11 C8.78625285 17.0934596 7.68083603 20.82849744 4.50390625 26.078125 C2.39358363 28.77495287 0.21792525 29.92735825 -3 31 C-3.66 31 -4.32 31 -5 31 C-4.96241577 31.63956131 -4.92483154 32.27912262 -4.8861084 32.93806458 C-4.49299006 39.63842201 -4.10436448 46.33902964 -3.71826172 53.03979492 C-3.57388945 55.53530358 -3.42839961 58.03074787 -3.28173828 60.52612305 C-3.07024836 64.12792581 -2.86287538 67.72994653 -2.65625 71.33203125 C-2.59062866 72.43456741 -2.52500732 73.53710358 -2.45739746 74.67304993 C-2.07308673 81.45722335 -1.92005529 88.20528091 -2 95 C-2.33 95 -2.66 95 -3 95 C-3.10546143 94.06542969 -3.21092285 93.13085938 -3.31958008 92.16796875 C-3.7246585 88.58203666 -4.13133142 84.99628704 -4.53869629 81.41061401 C-4.72097949 79.80576202 -4.90302767 78.20088332 -5.08483887 76.59597778 C-6.33228329 65.59650717 -7.62354159 54.60557036 -9.13598633 43.63867188 C-11.11761151 28.60776019 -11.11761151 28.60776019 -8.828125 23.265625 C-8.04695312 22.26789062 -8.04695312 22.26789062 -7.25 21.25 C-6.70472656 20.51652344 -6.15945312 19.78304687 -5.59765625 19.02734375 C-5.07042969 18.35832031 -4.54320312 17.68929687 -4 17 C-0.36687327 11.99217667 1.51642683 8.393662 0.5625 2.125 C0.376875 1.42375 0.19125 0.7225 0 0 Z " fill="#434040" transform="translate(168,36)"/>
<path d="M0 0 C3.68535543 1.18457853 5.45563718 3.4275802 7.234375 6.80859375 C8.95997587 11.74768604 9.02527774 17.23925214 7.19921875 22.15625 C5.53045303 25.19739834 3.47966513 27.61270062 1 30 C1.38091797 31.03447266 1.38091797 31.03447266 1.76953125 32.08984375 C2.11371094 33.02957031 2.45789063 33.96929687 2.8125 34.9375 C3.14894531 35.85402344 3.48539063 36.77054688 3.83203125 37.71484375 C5.00232864 41.0065498 6.11420662 44.31296773 7.21264648 47.62915039 C7.9898186 49.96934216 8.7784307 52.3053742 9.5703125 54.640625 C10.08854167 56.17708333 10.60677083 57.71354167 11.125 59.25 C11.38925781 60.02601562 11.65351562 60.80203125 11.92578125 61.6015625 C13.19610247 65.38028451 14.35276042 69.0534172 15 73 C11.96360435 69.38685881 10.19722949 65.39454993 8.27734375 61.12890625 C7.93119522 60.36956284 7.58504669 59.61021942 7.22840881 58.8278656 C6.12688499 56.40811735 5.03225739 53.98531583 3.9375 51.5625 C3.19768587 49.93665766 2.45745583 48.31100452 1.71679688 46.68554688 C1.00743972 45.12516941 0.29844328 43.56462791 -0.41015625 42.00390625 C-0.74040298 41.27667862 -1.07064972 40.54945099 -1.41090393 39.80018616 C-6.604922 28.30070444 -6.604922 28.30070444 -6 22 C-4.89250839 19.55026171 -3.78241176 17.36411482 -2.4375 15.0625 C0.66448877 9.4332927 0.66448877 9.4332927 0.9375 3.125 C0.628125 2.09375 0.31875 1.0625 0 0 Z " fill="#434040" transform="translate(109,36)"/>
<path d="M0 0 C1.12894876 0.93274109 2.25300876 1.87140122 3.375 2.8125 C4.00148438 3.33457031 4.62796875 3.85664062 5.2734375 4.39453125 C7.65684866 6.61078009 8.9169092 8.29318865 9.30078125 11.55859375 C9.30464844 12.50863281 9.30851562 13.45867187 9.3125 14.4375 C9.33763672 15.85869141 9.33763672 15.85869141 9.36328125 17.30859375 C8.94988891 20.37125309 8.03729471 21.72618559 6 24 C7.55057638 27.8059602 10.119494 30.18582902 13 33 C14.18493855 34.18224742 15.36844949 35.36592685 16.55078125 36.55078125 C17.16630859 37.16630859 17.78183594 37.78183594 18.41601562 38.41601562 C21.27734375 41.27734375 24.13867188 44.13867188 27 47 C26.67 47.66 26.34 48.32 26 49 C25.06027344 48.04287109 25.06027344 48.04287109 24.1015625 47.06640625 C23.28429687 46.24011719 22.46703125 45.41382813 21.625 44.5625 C20.81289062 43.73878906 20.00078125 42.91507813 19.1640625 42.06640625 C17.17651485 39.96565328 17.17651485 39.96565328 15 39 C15 38.34 15 37.68 15 37 C14.45730469 36.7834375 13.91460937 36.566875 13.35546875 36.34375 C10.19297694 34.53960874 7.83310456 32.084037 5.3125 29.5 C4.81427734 29.00113281 4.31605469 28.50226563 3.80273438 27.98828125 C0.1408289 24.2816578 0.1408289 24.2816578 -1 22 C-0.9140625 19.94140625 -0.9140625 19.94140625 -0.625 17.5625 C-0.53476562 16.78003906 -0.44453125 15.99757813 -0.3515625 15.19140625 C0 13 0 13 1 10 C1.13156527 6.31617231 1.16982138 3.50946415 0 0 Z " fill="#434040" transform="translate(58,76)"/>
<path d="M0 0 C4.44875085 1.35934054 6.51852814 3.06387221 9 7 C10.83913965 12.03945044 12.41343703 17.87024657 10.125 22.9375 C8.48590529 25.78434871 7.0610253 28.25394965 4.3269043 30.17642212 C1.51642639 32.18623108 -0.62677018 33.77493665 -1.65757751 37.15838623 C-1.90397051 39.71840306 -1.9436374 42.20191258 -1.90234375 44.7734375 C-1.91463516 45.6971817 -1.92692657 46.6209259 -1.93959045 47.57266235 C-1.97124848 50.50758974 -1.95506479 53.43999557 -1.9375 56.375 C-1.95061318 58.37111703 -1.96685512 60.36721613 -1.98632812 62.36328125 C-2.02712077 67.24272353 -2.02502811 72.12046934 -2 77 C-2.33 77 -2.66 77 -3 77 C-3.29170264 73.00266535 -3.57610365 69.00487621 -3.85449219 65.0065918 C-3.99572588 62.99827708 -4.14231089 60.99034093 -4.2890625 58.98242188 C-4.91283778 49.95995801 -5.11682368 41.04166578 -5 32 C0.75 29 0.75 29 3 29 C3.433125 27.88625 3.433125 27.88625 3.875 26.75 C5 24 5 24 6.125 22.1875 C7.78183462 18.04541346 7.72760099 13.97850122 6.20703125 9.84375 C4.48094503 6.29899055 2.53163088 3.03795706 0 0 Z " fill="#202020" transform="translate(168,35)"/>
<path d="M0 0 C-1.85879856 1.96206514 -3.685471 3.50665248 -5.875 5.125 C-11.99007358 10.1904714 -14.48742398 17.43711988 -16 25 C-16.66 24.67 -17.32 24.34 -18 24 C-18.77721635 10.85209003 -18.77721635 10.85209003 -14 5 C-9.58620056 1.31870345 -5.90406677 -0.73800835 0 0 Z " fill="#726F6F" transform="translate(100,33)"/>
<path d="M0 0 C-1.46730175 1.53379579 -2.88121863 2.91544377 -4.61328125 4.1484375 C-10.85838261 8.65639573 -13.17632847 15.0287377 -16 22 C-16.33 22 -16.66 22 -17 22 C-17.62329486 12.26967471 -17.62329486 12.26967471 -15.3125 7.5625 C-10.42631991 2.14808422 -7.27308284 -0.1581105 0 0 Z " fill="#726F6F" transform="translate(51,74)"/>
<path d="M0 0 C-0.70125 0.639375 -1.4025 1.27875 -2.125 1.9375 C-7.84637881 7.69138665 -11.49431359 14.34373598 -14 22 C-16 20 -16 20 -16.3125 16.8125 C-15.81999794 10.80397491 -14.06665797 6.6897595 -9.6875 2.5625 C-6.45039042 -0.03407513 -4.20061318 -0.61472388 0 0 Z " fill="#716E6E" transform="translate(156,34)"/>
<path d="M0 0 C-0.7425 0.721875 -1.485 1.44375 -2.25 2.1875 C-7.66700012 7.72761375 -10.36161187 12.77250061 -13 20 C-13.66 20 -14.32 20 -15 20 C-16.46650366 17.06699268 -16.36440295 15.27962656 -16 12 C-12.67228715 4.81987269 -8.49806624 -0.79051779 0 0 Z " fill="#716E6E" transform="translate(206,75)"/>
<path d="M0 0 C1 2 1 2 0.5 4.125 C-0.16969746 7.97576039 0.41129594 11.14071784 1 15 C0.34 15 -0.32 15 -1 15 C-1.5345256 13.75579353 -2.05208611 12.50429064 -2.5625 11.25 C-2.85253906 10.55390625 -3.14257812 9.8578125 -3.44140625 9.140625 C-4.08883439 6.6595717 -3.88859333 5.38304574 -3 3 C-1.4375 1.25 -1.4375 1.25 0 0 Z " fill="#202020" transform="translate(114,62)"/>
<path d="M0 0 C4.87626457 1.39321845 7.07577973 3.93858296 10 8 C11.60640626 11.70709138 11.06620535 16.02767905 11 20 C10.67 20 10.34 20 10 20 C9.89042969 19.40832031 9.78085938 18.81664063 9.66796875 18.20703125 C8.732075 13.54278029 7.67286745 10.00930117 5 6 C5 5.34 5 4.68 5 4 C2.525 3.01 2.525 3.01 0 2 C0 1.34 0 0.68 0 0 Z " fill="#202020" transform="translate(108,34)"/>
</svg>
