<?xml version="1.0" encoding="UTF-8"?>
<svg version="1.1" xmlns="http://www.w3.org/2000/svg" width="256" height="256">
<path d="M0 0 C4.53904366 -0.02291161 9.07788802 -0.04283781 13.61694336 -0.05493164 C15.16219766 -0.0599714 16.70744716 -0.0668032 18.25268555 -0.07543945 C20.46925029 -0.08752076 22.68575218 -0.09323173 24.90234375 -0.09765625 C25.5971434 -0.10281754 26.29194305 -0.10797882 27.00779724 -0.11329651 C28.6722933 -0.11349277 30.33665499 -0.06189129 32 0 C33 1 33 1 33.09765625 4.59765625 C33.0909822 6.08596867 33.07902183 7.57426432 33.0625 9.0625 C33.05798828 9.82111328 33.05347656 10.57972656 33.04882812 11.36132812 C33.0370068 13.24091871 33.01907078 15.12046899 33 17 C34.14339844 16.98839844 35.28679687 16.97679688 36.46484375 16.96484375 C37.95572754 16.95546712 39.44661309 16.94636679 40.9375 16.9375 C41.69224609 16.92912109 42.44699219 16.92074219 43.22460938 16.91210938 C45.14994313 16.90347559 47.07535581 16.94775667 49 17 C50 18 50 18 50.11352539 21.05102539 C50.11336634 22.39991271 50.10767612 23.74880614 50.09765625 25.09765625 C50.09553383 26.16094398 50.09553383 26.16094398 50.09336853 27.24571228 C50.08775443 29.51801712 50.07519963 31.79022475 50.0625 34.0625 C50.05748681 35.59960796 50.05292359 37.13671745 50.04882812 38.67382812 C50.0386297 42.44928667 50.01905732 46.22453404 50 50 C45.05 50.33 40.1 50.66 35 51 C35.495 54.465 35.495 54.465 36 58 C37.2375 57.60167969 37.2375 57.60167969 38.5 57.1953125 C56.24009269 51.7703288 74.68038504 49.2994085 92 58 C103.37467019 65.12540515 112.34862191 75.78993007 115.47753906 89.01904297 C118.29044958 103.60889814 117.07213299 117.22497214 109 130 C103.36422275 138.13512195 96.21658193 144.86331153 89.18847656 151.77392578 C84.01050023 156.8929827 79.2806558 162.09414607 75 168 C75.66386719 168.42410156 76.32773438 168.84820312 77.01171875 169.28515625 C84.19813157 174.05861294 89.30078303 178.24563741 91.61181641 186.78808594 C92.45680462 191.60292444 92.24266435 196.50311667 92.1875 201.375 C92.1865332 203.03208984 92.1865332 203.03208984 92.18554688 204.72265625 C92.14050904 212.85949096 92.14050904 212.85949096 91 214 C89.07869223 214.09879672 87.15370452 214.12632217 85.2298584 214.12698364 C83.34940071 214.13121338 83.34940071 214.13121338 81.43095398 214.13552856 C80.02883897 214.13358397 78.6267241 214.13153578 77.22460938 214.12939453 C75.75812232 214.13074852 74.2916356 214.13252845 72.82514954 214.13470459 C68.8314589 214.13927916 64.83779397 214.13748927 60.84410286 214.1343255 C56.67385918 214.13180202 52.50361778 214.13413941 48.33337402 214.13571167 C41.32885338 214.1375334 34.32434327 214.13512697 27.31982422 214.13037109 C19.20994711 214.12492847 11.10009514 214.12669112 2.99021864 214.1321975 C-3.96008028 214.13672853 -10.91037161 214.13737923 -17.86067152 214.13475883 C-22.01733277 214.133196 -26.1739822 214.13300245 -30.3306427 214.13629532 C-34.23756404 214.13917389 -38.14445282 214.1371986 -42.05137062 214.13140106 C-43.48935199 214.13007339 -44.92733608 214.13046771 -46.36531639 214.13266373 C-48.32016276 214.13537491 -50.27501509 214.1313807 -52.2298584 214.12698364 C-53.32641502 214.12660662 -54.42297165 214.12622959 -55.55275726 214.12584114 C-58 214 -58 214 -59 213 C-59.2835651 209.17444899 -59.23195395 205.33478608 -59.25 201.5 C-59.270625 200.43523437 -59.29125 199.37046875 -59.3125 198.2734375 C-59.3576387 189.08771183 -58.15697359 181.48496013 -51.76171875 174.57421875 C-48.79065524 171.91936599 -45.48051278 169.91693217 -42 168 C-48.0270903 160.54275268 -54.32430943 153.57582865 -61.1875 146.875 C-72.9482461 135.31591373 -82.97717305 123.11290933 -83.29248047 106.02807617 C-83.40945431 87.96988325 -83.40945431 87.96988325 -79 80 C-78.34644531 78.71996094 -78.34644531 78.71996094 -77.6796875 77.4140625 C-71.51611503 66.19838145 -62.78266377 58.75312749 -50.6875 54.75 C-34.92287934 50.30773576 -19.55302762 52.50490531 -4 57 C-3.34 54.69 -2.68 52.38 -2 50 C-6.95 50 -11.9 50 -17 50 C-17 39.11 -17 28.22 -17 17 C-11.39 17 -5.78 17 0 17 C0 11.39 0 5.78 0 0 Z M-33 99 C-35.10514318 101.56278301 -35.00474418 102.893833 -34.85546875 106.234375 C-33.84627021 110.67669187 -31.87062329 113.22818449 -28.875 116.5 C-28.37943604 117.06315918 -27.88387207 117.62631836 -27.37329102 118.20654297 C-24.16625058 121.81856803 -20.85378282 125.3164788 -17.33984375 128.6328125 C-16 130 -16 130 -14 133 C-10.41642759 133.25015873 -10.41642759 133.25015873 -7 133 C-6.85142319 128.65850945 -6.74268564 124.31837268 -6.67041016 119.97509766 C-6.64027752 118.49859844 -6.59936121 117.02227768 -6.54736328 115.54638672 C-6.47437371 113.42110221 -6.44051509 111.29818607 -6.4140625 109.171875 C-6.3826416 107.8940918 -6.3512207 106.61630859 -6.31884766 105.29980469 C-6.69415872 101.75967647 -6.69415872 101.75967647 -9.82177734 99.62988281 C-17.62487883 95.62823083 -25.31825395 93.9979328 -33 99 Z M40 102 C39.72082705 105.20813626 39.72082705 105.20813626 39.8046875 108.9765625 C39.8075174 109.66181 39.81034729 110.3470575 39.81326294 111.05307007 C39.82446719 113.24389027 39.84957141 115.43430316 39.875 117.625 C39.88502952 119.1093691 39.89415542 120.5937446 39.90234375 122.078125 C39.92440706 125.71888261 39.95893824 129.35940156 40 133 C45.04860195 133.39246511 45.04860195 133.39246511 49.3359375 131.1640625 C50.00882813 130.32617188 50.68171875 129.48828125 51.375 128.625 C52.50421875 127.26181641 52.50421875 127.26181641 53.65625 125.87109375 C54.4296875 124.92363281 55.203125 123.97617188 56 123 C57.61697664 121.2218374 59.2417203 119.45069968 60.875 117.6875 C66.36594794 111.90955038 66.36594794 111.90955038 67.9375 104.4375 C66.86950957 100.5215351 66.42495138 99.17192038 63 97 C55.25474311 94.78295621 45.85339171 96.14660829 40 102 Z " fill="#555251" transform="translate(112,19)"/>
<path d="M0 0 C4.53904366 -0.02291161 9.07788802 -0.04283781 13.61694336 -0.05493164 C15.16219766 -0.0599714 16.70744716 -0.0668032 18.25268555 -0.07543945 C20.46925029 -0.08752076 22.68575218 -0.09323173 24.90234375 -0.09765625 C25.5971434 -0.10281754 26.29194305 -0.10797882 27.00779724 -0.11329651 C28.6722933 -0.11349277 30.33665499 -0.06189129 32 0 C33 1 33 1 33.09765625 4.59765625 C33.0909822 6.08596867 33.07902183 7.57426432 33.0625 9.0625 C33.05798828 9.82111328 33.05347656 10.57972656 33.04882812 11.36132812 C33.0370068 13.24091871 33.01907078 15.12046899 33 17 C34.14339844 16.98839844 35.28679687 16.97679688 36.46484375 16.96484375 C37.95572754 16.95546712 39.44661309 16.94636679 40.9375 16.9375 C41.69224609 16.92912109 42.44699219 16.92074219 43.22460938 16.91210938 C45.14994313 16.90347559 47.07535581 16.94775667 49 17 C50 18 50 18 50.11352539 21.05102539 C50.11336634 22.39991271 50.10767612 23.74880614 50.09765625 25.09765625 C50.09553383 26.16094398 50.09553383 26.16094398 50.09336853 27.24571228 C50.08775443 29.51801712 50.07519963 31.79022475 50.0625 34.0625 C50.05748681 35.59960796 50.05292359 37.13671745 50.04882812 38.67382812 C50.0386297 42.44928667 50.01905732 46.22453404 50 50 C45.05 50.33 40.1 50.66 35 51 C35.495 54.465 35.495 54.465 36 58 C37.2375 57.60167969 37.2375 57.60167969 38.5 57.1953125 C56.24009269 51.7703288 74.68038504 49.2994085 92 58 C103.37467019 65.12540515 112.34862191 75.78993007 115.47753906 89.01904297 C118.29044958 103.60889814 117.07213299 117.22497214 109 130 C103.36422275 138.13512195 96.21658193 144.86331153 89.18847656 151.77392578 C84.01050023 156.8929827 79.2806558 162.09414607 75 168 C75.66386719 168.42410156 76.32773438 168.84820312 77.01171875 169.28515625 C84.19813157 174.05861294 89.30078303 178.24563741 91.61181641 186.78808594 C92.45680462 191.60292444 92.24266435 196.50311667 92.1875 201.375 C92.1865332 203.03208984 92.1865332 203.03208984 92.18554688 204.72265625 C92.14050904 212.85949096 92.14050904 212.85949096 91 214 C89.07869223 214.09879672 87.15370452 214.12632217 85.2298584 214.12698364 C83.34940071 214.13121338 83.34940071 214.13121338 81.43095398 214.13552856 C80.02883897 214.13358397 78.6267241 214.13153578 77.22460938 214.12939453 C75.75812232 214.13074852 74.2916356 214.13252845 72.82514954 214.13470459 C68.8314589 214.13927916 64.83779397 214.13748927 60.84410286 214.1343255 C56.67385918 214.13180202 52.50361778 214.13413941 48.33337402 214.13571167 C41.32885338 214.1375334 34.32434327 214.13512697 27.31982422 214.13037109 C19.20994711 214.12492847 11.10009514 214.12669112 2.99021864 214.1321975 C-3.96008028 214.13672853 -10.91037161 214.13737923 -17.86067152 214.13475883 C-22.01733277 214.133196 -26.1739822 214.13300245 -30.3306427 214.13629532 C-34.23756404 214.13917389 -38.14445282 214.1371986 -42.05137062 214.13140106 C-43.48935199 214.13007339 -44.92733608 214.13046771 -46.36531639 214.13266373 C-48.32016276 214.13537491 -50.27501509 214.1313807 -52.2298584 214.12698364 C-53.32641502 214.12660662 -54.42297165 214.12622959 -55.55275726 214.12584114 C-58 214 -58 214 -59 213 C-59.2835651 209.17444899 -59.23195395 205.33478608 -59.25 201.5 C-59.270625 200.43523437 -59.29125 199.37046875 -59.3125 198.2734375 C-59.3576387 189.08771183 -58.15697359 181.48496013 -51.76171875 174.57421875 C-48.79065524 171.91936599 -45.48051278 169.91693217 -42 168 C-48.0270903 160.54275268 -54.32430943 153.57582865 -61.1875 146.875 C-72.9482461 135.31591373 -82.97717305 123.11290933 -83.29248047 106.02807617 C-83.40945431 87.96988325 -83.40945431 87.96988325 -79 80 C-78.34644531 78.71996094 -78.34644531 78.71996094 -77.6796875 77.4140625 C-71.51611503 66.19838145 -62.78266377 58.75312749 -50.6875 54.75 C-34.92287934 50.30773576 -19.55302762 52.50490531 -4 57 C-3.34 54.69 -2.68 52.38 -2 50 C-6.95 50 -11.9 50 -17 50 C-17 39.11 -17 28.22 -17 17 C-11.39 17 -5.78 17 0 17 C0 11.39 0 5.78 0 0 Z M7 7 C7 12.61 7 18.22 7 24 C1.39 24 -4.22 24 -10 24 C-10 30.6 -10 37.2 -10 44 C-4.72 44 0.56 44 6 44 C5.71125 45.16917969 5.4225 46.33835938 5.125 47.54296875 C4.74970186 49.09107359 4.3747184 50.63925473 4 52.1875 C3.80921875 52.95642578 3.6184375 53.72535156 3.421875 54.51757812 C2.48376579 58.42078253 1.74042792 61.95229795 2 66 C0.83597656 65.61908203 0.83597656 65.61908203 -0.3515625 65.23046875 C-16.39783633 60.11787315 -36.74799472 54.1966906 -53 62 C-63.45492367 67.73110434 -71.61138878 76.05742995 -75.8125 87.3125 C-79.40740524 100.8769971 -77.80815761 113.86525276 -71 126 C-70.34 126.99 -69.68 127.98 -69 129 C-68.34 129 -67.68 129 -67 129 C-66.7539502 129.73645752 -66.50790039 130.47291504 -66.25439453 131.23168945 C-64.86263345 134.30315284 -63.35235658 135.96409241 -60.9296875 138.29296875 C-59.70765625 139.48696289 -59.70765625 139.48696289 -58.4609375 140.70507812 C-57.60757813 141.52427734 -56.75421875 142.34347656 -55.875 143.1875 C-41.05891901 157.46293207 -41.05891901 157.46293207 -36.73339844 165.29272461 C-35.01782924 167.3467239 -35.01782924 167.3467239 -31.75830078 167.27050781 C-30.4025127 167.18542376 -29.04802413 167.07791235 -27.6953125 166.953125 C-26.95650345 166.90289185 -26.2176944 166.85265869 -25.45649719 166.80090332 C-23.85288035 166.69101541 -22.24984254 166.57241173 -20.64743042 166.44616699 C-16.3449761 166.11156925 -12.03798249 165.85364407 -7.73046875 165.59375 C-6.8427327 165.5391864 -5.95499664 165.4846228 -5.0403595 165.42840576 C4.15991128 164.88684927 13.34777439 164.73803904 22.5625 164.75 C23.33658203 164.75068481 24.11066406 164.75136963 24.90820312 164.7520752 C35.67546107 164.7832567 46.32944717 165.24088976 57.0234375 166.5625 C62.4998673 167.22435527 62.4998673 167.22435527 68 167 C70.43354899 164.75115807 70.43354899 164.75115807 72.375 161.5625 C76.54421603 155.57970846 81.26529578 150.56672746 86.5 145.5 C98.95480978 133.27124516 109.97514565 121.30352262 110.5 102.8125 C109.97537061 89.79877642 105.67812702 77.96299448 96 69 C95.34 69 94.68 69 94 69 C93.67 68.01 93.34 67.02 93 66 C90.20066567 64.3300481 90.20066567 64.3300481 86.8125 62.875 C85.68457031 62.35679688 84.55664062 61.83859375 83.39453125 61.3046875 C66.68323202 54.88170252 48.06555307 60.3473054 32 66 C30.35 58.74 28.7 51.48 27 44 C32.61 44 38.22 44 44 44 C44 37.4 44 30.8 44 24 C38.06 23.67 32.12 23.34 26 23 C26 17.72 26 12.44 26 7 C19.73 7 13.46 7 7 7 Z " fill="#262626" transform="translate(112,19)"/>
<path d="M0 0 C1.803265 -0.00855011 1.803265 -0.00855011 3.64295959 -0.01727295 C6.17675919 -0.02666898 8.71057071 -0.03323529 11.24438477 -0.03710938 C15.05572726 -0.04676874 18.86651902 -0.07782643 22.67773438 -0.109375 C69.94597393 -0.31219008 69.94597393 -0.31219008 80.7890625 10.296875 C86.42961447 18.13900993 85.16015625 28.02891075 85.16015625 37.203125 C39.29015625 37.203125 -6.57984375 37.203125 -53.83984375 37.203125 C-53.83984375 15.13015849 -53.83984375 15.13015849 -47.58203125 8.6328125 C-35.92834695 -0.93052484 -14.25577478 0.05374419 0 0 Z " fill="#565352" transform="translate(112.83984375,188.796875)"/>
<path d="M0 0 C3.7493189 0.00316255 7.4978481 -0.02039462 11.24707031 -0.0456543 C55.84562994 -0.16118412 55.84562994 -0.16118412 67.07519531 9.00317383 C67.83832031 9.76629883 68.60144531 10.52942383 69.38769531 11.31567383 C69.05769531 12.30567383 68.72769531 13.29567383 68.38769531 14.31567383 C67.2260083 14.00847412 66.06432129 13.70127441 64.86743164 13.38476562 C46.84882443 8.91551275 27.66151112 9.97238741 9.22924805 10 C5.88536105 10.0046267 2.54183815 9.99771675 -0.80200195 9.97949219 C-32.4671307 8.37804416 -32.4671307 8.37804416 -62.61230469 15.31567383 C-61.24302147 10.8343833 -59.40640683 8.99826436 -55.61230469 6.31567383 C-38.57463348 -1.22922833 -18.17491972 -0.03198975 0 0 Z " fill="#747171" transform="translate(124.6123046875,188.684326171875)"/>
<path d="M0 0 C3.46972134 2.30824683 6.06910206 5.16867089 7.53125 9.0390625 C8.45849544 14.42276309 8.16027556 18.73822707 5.21875 23.4140625 C2.0011603 27.7295975 -1.65038744 31.69347389 -5.37939453 35.57080078 C-8.30300895 38.62842651 -10.49474241 41.67138137 -12.65625 45.2890625 C-16.46875 49.0390625 -16.46875 49.0390625 -32.46875 49.0390625 C-32.46875 35.1790625 -32.46875 21.3190625 -32.46875 7.0390625 C-31.80875 7.0390625 -31.14875 7.0390625 -30.46875 7.0390625 C-30.46875 6.3790625 -30.46875 5.7190625 -30.46875 5.0390625 C-21.31818566 -0.7840239 -10.59891343 -4.12552643 0 0 Z M-26.46875 11.0390625 C-26.74792295 14.24719876 -26.74792295 14.24719876 -26.6640625 18.015625 C-26.6612326 18.7008725 -26.65840271 19.38612 -26.65548706 20.09213257 C-26.64428281 22.28295277 -26.61917859 24.47336566 -26.59375 26.6640625 C-26.58372048 28.1484316 -26.57459458 29.6328071 -26.56640625 31.1171875 C-26.54434294 34.75794511 -26.50981176 38.39846406 -26.46875 42.0390625 C-21.42014805 42.43152761 -21.42014805 42.43152761 -17.1328125 40.203125 C-16.45992187 39.36523438 -15.78703125 38.52734375 -15.09375 37.6640625 C-13.96453125 36.30087891 -13.96453125 36.30087891 -12.8125 34.91015625 C-12.0390625 33.96269531 -11.265625 33.01523438 -10.46875 32.0390625 C-8.85177336 30.2608999 -7.2270297 28.48976218 -5.59375 26.7265625 C-0.10280206 20.94861288 -0.10280206 20.94861288 1.46875 13.4765625 C0.40075957 9.5605976 -0.04379862 8.21098288 -3.46875 6.0390625 C-11.21400689 3.82201871 -20.61535829 5.18567079 -26.46875 11.0390625 Z " fill="#262626" transform="translate(178.46875,109.9609375)"/>
<path d="M0 0 C8.47323197 4.16428352 8.47323197 4.16428352 11.453125 7.76171875 C11.81388855 9.67900085 11.81388855 9.67900085 11.79370117 11.8659668 C11.79336128 13.09690315 11.79336128 13.09690315 11.79301453 14.35270691 C11.77753067 15.234048 11.76204681 16.1153891 11.74609375 17.0234375 C11.74184891 17.9292305 11.73760406 18.8350235 11.73323059 19.76826477 C11.71643348 22.66221808 11.6787795 25.55547581 11.640625 28.44921875 C11.62557949 30.41079724 11.61189085 32.37238664 11.59960938 34.33398438 C11.56652657 39.14349731 11.51473722 43.95249008 11.453125 48.76171875 C-1.53269171 49.79089036 -1.53269171 49.79089036 -5.95214844 47.53271484 C-7.8441886 45.787515 -9.37359166 44.00456242 -10.921875 41.94921875 C-11.4900293 41.26939941 -12.05818359 40.58958008 -12.64355469 39.88916016 C-13.78048546 38.51936792 -14.89895452 37.13401117 -15.99707031 35.73291016 C-17.40522899 33.94187784 -18.85695711 32.2111451 -20.3515625 30.4921875 C-25.64343882 24.31269615 -29.16746953 19.4588464 -29 11.11328125 C-28.17993292 6.85741588 -25.63284948 3.71321269 -22.546875 0.76171875 C-16.41546108 -3.37562914 -6.69920949 -2.33882094 0 0 Z M-20.546875 7.76171875 C-22.65201818 10.32450176 -22.55161918 11.65555175 -22.40234375 14.99609375 C-21.39314521 19.43841062 -19.41749829 21.98990324 -16.421875 25.26171875 C-15.92631104 25.82487793 -15.43074707 26.38803711 -14.92016602 26.96826172 C-11.71312558 30.58028678 -8.40065782 34.07819755 -4.88671875 37.39453125 C-3.546875 38.76171875 -3.546875 38.76171875 -1.546875 41.76171875 C2.03669741 42.01187748 2.03669741 42.01187748 5.453125 41.76171875 C5.60170181 37.4202282 5.71043936 33.08009143 5.78271484 28.73681641 C5.81284748 27.26031719 5.85376379 25.78399643 5.90576172 24.30810547 C5.97875129 22.18282096 6.01260991 20.05990482 6.0390625 17.93359375 C6.0704834 16.65581055 6.1019043 15.37802734 6.13427734 14.06152344 C5.75896628 10.52139522 5.75896628 10.52139522 2.63134766 8.39160156 C-5.17175383 4.38994958 -12.86512895 2.75965155 -20.546875 7.76171875 Z " fill="#262626" transform="translate(99.546875,110.23828125)"/>
<path d="M0 0 C6.46467937 5.20765838 8.70357069 12.98904531 10 21 C11.10088354 33.31416877 8.9786483 44.35733018 1.25 54.25 C-0.14720686 55.85053174 -1.56412566 57.43406457 -3 59 C-3.6909375 59.79664063 -4.381875 60.59328125 -5.09375 61.4140625 C-8.26566908 65.03418754 -11.51175263 68.54915223 -14.95703125 71.91015625 C-15.46637207 72.40765381 -15.97571289 72.90515137 -16.50048828 73.41772461 C-17.54024755 74.4293691 -18.58419821 75.43672381 -19.63232422 76.43969727 C-23.04490402 79.78554458 -25.4192714 83.17930369 -27.875 87.3125 C-29.7109375 90.0390625 -29.7109375 90.0390625 -32 92 C-36.87595241 92.62403729 -41.21792551 92.0410415 -46 91 C-44.71937515 89.2925002 -43.38232443 87.62626404 -42 86 C-41.34 86 -40.68 86 -40 86 C-40 85.34 -40 84.68 -40 84 C-39.34 84 -38.68 84 -38 84 C-38 83.34 -38 82.68 -38 82 C-37.34 82 -36.68 82 -36 82 C-36 81.34 -36 80.68 -36 80 C-35.34 80 -34.68 80 -34 80 C-33.34 78.68 -32.68 77.36 -32 76 C-31.34 76 -30.68 76 -30 76 C-29.773125 75.4225 -29.54625 74.845 -29.3125 74.25 C-27.6591307 71.41565264 -25.57036056 70.03237811 -23 68 C-22.08213119 66.93527218 -21.18624346 65.85122697 -20.3125 64.75 C-19.549375 63.8425 -18.78625 62.935 -18 62 C-17.34 62 -16.68 62 -16 62 C-15.34 60.68 -14.68 59.36 -14 58 C-13.34 58 -12.68 58 -12 58 C-11.73832031 57.40445313 -11.47664063 56.80890625 -11.20703125 56.1953125 C-9.93395692 53.87988282 -8.65730509 52.61332024 -6.6875 50.875 C0.20887338 44.12230107 3.31357508 35.52258569 4 26 C3.98961889 16.99957423 2.51063926 8.62144048 0 0 Z " fill="#434140" transform="translate(212,94)"/>
<path d="M0 0 C1.63001953 0.01353516 1.63001953 0.01353516 3.29296875 0.02734375 C4.12441406 0.03894531 4.95585938 0.05054687 5.8125 0.0625 C2.5678737 1.74316974 -0.74903897 3.16613781 -4.125 4.5625 C-5.14464844 4.9853125 -6.16429688 5.408125 -7.21484375 5.84375 C-9.86688665 6.93105274 -12.5242185 8.0030731 -15.1875 9.0625 C-15.1875 9.7225 -15.1875 10.3825 -15.1875 11.0625 C-15.93 11.64 -16.6725 12.2175 -17.4375 12.8125 C-20.4279905 15.25926496 -22.07574441 17.85845703 -24.1875 21.0625 C-24.8475 21.0625 -25.5075 21.0625 -26.1875 21.0625 C-26.64996708 22.39440519 -27.10719155 23.7281307 -27.5625 25.0625 C-27.81773438 25.805 -28.07296875 26.5475 -28.3359375 27.3125 C-30.36671586 33.87060994 -31.52525941 39.59304952 -31.4375 46.4375 C-31.43363281 47.17411865 -31.42976563 47.9107373 -31.42578125 48.66967773 C-31.33692667 54.29281537 -30.68362052 59.62570489 -29.1875 65.0625 C-34.34251725 60.33583662 -36.12819748 54.47390245 -36.58203125 47.6015625 C-37.0257532 34.94018607 -35.57014783 24.05644265 -27.10546875 14.09375 C-19.46282264 5.99970524 -11.50275969 -0.12368559 0 0 Z " fill="#737070" transform="translate(71.1875,78.9375)"/>
<path d="M0 0 C6.27 0 12.54 0 19 0 C16 3 16 3 12.86328125 3.29296875 C11.69152344 3.25816406 10.51976562 3.22335938 9.3125 3.1875 C7.54326172 3.14689453 7.54326172 3.14689453 5.73828125 3.10546875 C4.83464844 3.07066406 3.93101563 3.03585938 3 3 C3.01160156 4.14339844 3.02320312 5.28679688 3.03515625 6.46484375 C3.04453288 7.95572754 3.05363321 9.44661309 3.0625 10.9375 C3.07087891 11.69224609 3.07925781 12.44699219 3.08789062 13.22460938 C3.09652441 15.14994313 3.05224333 17.07535581 3 19 C2 20 2 20 -1.59765625 20.09765625 C-3.08596867 20.0909822 -4.57426432 20.07902183 -6.0625 20.0625 C-6.82111328 20.05798828 -7.57972656 20.05347656 -8.36132812 20.04882812 C-10.24091871 20.0370068 -12.12046899 20.01907078 -14 20 C-13.94779297 21.35544922 -13.94779297 21.35544922 -13.89453125 22.73828125 C-13.86746094 23.91777344 -13.84039062 25.09726562 -13.8125 26.3125 C-13.77769531 27.48425781 -13.74289063 28.65601563 -13.70703125 29.86328125 C-14 33 -14 33 -17 36 C-17 29.73 -17 23.46 -17 17 C-11.39 17 -5.78 17 0 17 C0 11.39 0 5.78 0 0 Z " fill="#827F7F" transform="translate(119,26)"/>
</svg>
