<?xml version="1.0" encoding="UTF-8"?>
<svg version="1.1" xmlns="http://www.w3.org/2000/svg" width="256" height="256">
<path d="M0 0 C8.00711166 5.99274394 13.18266735 14.04103866 14.8125 23.9375 C15.96440963 36.17045579 13.10035808 45.17318529 5.8125 54.9375 C7.5597544 56.23287826 9.31041517 57.52366273 11.0625 58.8125 C12.03703125 59.53179687 13.0115625 60.25109375 14.015625 60.9921875 C16.25152154 62.54732225 18.34122493 63.81954223 20.8125 64.9375 C21.37654293 72.55207949 19.1904142 78.1816716 15.8125 84.9375 C12.65234375 85.3515625 12.65234375 85.3515625 8.75 85.5625 C6.81447266 85.67464844 6.81447266 85.67464844 4.83984375 85.7890625 C3.84082031 85.83804688 2.84179688 85.88703125 1.8125 85.9375 C4.44341714 101.98609457 14.10953823 112.7059437 26.9375 121.9375 C37.71013262 129.7327345 43.12475677 138.34566975 46.40625 151.27734375 C46.93686351 154.75184186 46.95775988 158.18254092 46.9375 161.6875 C46.94136719 162.37199219 46.94523438 163.05648437 46.94921875 163.76171875 C46.93922061 168.81077939 46.93922061 168.81077939 45.8125 169.9375 C44.08353403 170.03812696 42.3504348 170.06826512 40.61854553 170.07121277 C39.49256454 170.07547775 38.36658356 170.07974274 37.20648193 170.08413696 C35.96022034 170.08368378 34.71395874 170.08323059 33.42993164 170.08276367 C32.12601974 170.08612228 30.82210785 170.0894809 29.47868347 170.09294128 C25.89194127 170.10180188 22.3052229 170.10412026 18.71847081 170.10475707 C15.72875668 170.10570449 12.73904816 170.10938085 9.74933618 170.11292917 C2.69820368 170.12108157 -4.35291606 170.12351269 -11.40405273 170.12280273 C-18.68800614 170.12220174 -25.97188554 170.13275603 -33.25582021 170.1485464 C-39.50040949 170.16160337 -45.74497452 170.16698741 -51.98957735 170.16634732 C-55.72319515 170.16609179 -59.45674723 170.1689733 -63.19035149 170.17952538 C-67.35213185 170.19096571 -71.51374545 170.18647088 -75.67553711 170.18041992 C-76.91977448 170.18603943 -78.16401184 170.19165894 -79.44595337 170.19744873 C-80.57475418 170.19325424 -81.70355499 170.18905975 -82.86656189 170.18473816 C-84.3440914 170.18555531 -84.3440914 170.18555531 -85.85146999 170.18638897 C-88.1875 169.9375 -88.1875 169.9375 -90.1875 167.9375 C-90.76537399 153.22097563 -87.31158456 138.94115928 -77.1875 127.9375 C-74.33708563 125.36505157 -71.33095157 123.13684325 -68.1875 120.9375 C-55.38152065 111.62803378 -47.45209293 101.66690231 -44.1875 85.9375 C-45.15171875 85.94652344 -46.1159375 85.95554687 -47.109375 85.96484375 C-57.23786075 85.72713439 -57.23786075 85.72713439 -59.97265625 83.453125 C-61.64671006 80.47420034 -62.40089919 77.23614857 -63.1875 73.9375 C-63.38214844 73.26332031 -63.57679687 72.58914062 -63.77734375 71.89453125 C-64.23368557 69.07956878 -64.24441385 67.62471416 -63.1875 64.9375 C-59.94216864 61.97152235 -56.06756213 59.9182282 -52.25 57.78515625 C-51.239375 57.17542969 -50.22875 56.56570312 -49.1875 55.9375 C-49.1875 53.15678695 -50.43501053 52.04737788 -52.0625 49.8125 C-58.0171428 40.95075564 -58.51380001 30.81089913 -56.7578125 20.38671875 C-54.05426376 10.99105245 -47.93557949 3.55608703 -39.78515625 -1.65625 C-26.95138385 -8.60385611 -12.21923315 -7.81441154 0 0 Z " fill="#F7F7F7" transform="translate(149.1875,63.0625)"/>
<path d="M0 0 C4.53105427 3.68309983 8.68621738 7.63463407 12.765625 11.80859375 C13.28805786 12.34126862 13.81049072 12.87394348 14.34875488 13.42276001 C16.53007352 15.64918296 18.70943538 17.87718242 20.87353516 20.12036133 C30.23307397 29.80396038 39.46622913 37.1869465 52.3125 41.8125 C53.07111328 42.09802734 53.82972656 42.38355469 54.61132812 42.67773438 C57.83309439 43.88205463 60.98158055 44.99508525 64.30859375 45.8828125 C69.47181201 48.02603517 71.57954573 53.19741001 74 58 C76.36555556 64.33593736 76 70.14910772 76 77 C35.41 77 -5.18 77 -47 77 C-46.06130071 63.85820988 -43.98672969 52.93901475 -34 44 C-31.59225066 42.22344884 -29.13213584 40.54541954 -26.65234375 38.87109375 C-13.60009272 29.66339383 -6.99538889 19.36985627 -2.1640625 4.46484375 C-1 1 -1 1 0 0 Z " fill="#F8F8F8" transform="translate(113,149)"/>
<path d="M0 0 C8.00711166 5.99274394 13.18266735 14.04103866 14.8125 23.9375 C15.96440963 36.17045579 13.10035808 45.17318529 5.8125 54.9375 C7.5597544 56.23287826 9.31041517 57.52366273 11.0625 58.8125 C12.03703125 59.53179687 13.0115625 60.25109375 14.015625 60.9921875 C16.25152154 62.54732225 18.34122493 63.81954223 20.8125 64.9375 C21.37654293 72.55207949 19.1904142 78.1816716 15.8125 84.9375 C12.65234375 85.3515625 12.65234375 85.3515625 8.75 85.5625 C6.81447266 85.67464844 6.81447266 85.67464844 4.83984375 85.7890625 C3.84082031 85.83804688 2.84179688 85.88703125 1.8125 85.9375 C4.44341714 101.98609457 14.10953823 112.7059437 26.9375 121.9375 C37.71013262 129.7327345 43.12475677 138.34566975 46.40625 151.27734375 C46.93686351 154.75184186 46.95775988 158.18254092 46.9375 161.6875 C46.94136719 162.37199219 46.94523438 163.05648437 46.94921875 163.76171875 C46.93922061 168.81077939 46.93922061 168.81077939 45.8125 169.9375 C44.08353403 170.03812696 42.3504348 170.06826512 40.61854553 170.07121277 C39.49256454 170.07547775 38.36658356 170.07974274 37.20648193 170.08413696 C35.96022034 170.08368378 34.71395874 170.08323059 33.42993164 170.08276367 C32.12601974 170.08612228 30.82210785 170.0894809 29.47868347 170.09294128 C25.89194127 170.10180188 22.3052229 170.10412026 18.71847081 170.10475707 C15.72875668 170.10570449 12.73904816 170.10938085 9.74933618 170.11292917 C2.69820368 170.12108157 -4.35291606 170.12351269 -11.40405273 170.12280273 C-18.68800614 170.12220174 -25.97188554 170.13275603 -33.25582021 170.1485464 C-39.50040949 170.16160337 -45.74497452 170.16698741 -51.98957735 170.16634732 C-55.72319515 170.16609179 -59.45674723 170.1689733 -63.19035149 170.17952538 C-67.35213185 170.19096571 -71.51374545 170.18647088 -75.67553711 170.18041992 C-76.91977448 170.18603943 -78.16401184 170.19165894 -79.44595337 170.19744873 C-80.57475418 170.19325424 -81.70355499 170.18905975 -82.86656189 170.18473816 C-84.3440914 170.18555531 -84.3440914 170.18555531 -85.85146999 170.18638897 C-88.1875 169.9375 -88.1875 169.9375 -90.1875 167.9375 C-90.76537399 153.22097563 -87.31158456 138.94115928 -77.1875 127.9375 C-74.33708563 125.36505157 -71.33095157 123.13684325 -68.1875 120.9375 C-55.38152065 111.62803378 -47.45209293 101.66690231 -44.1875 85.9375 C-45.15171875 85.94652344 -46.1159375 85.95554687 -47.109375 85.96484375 C-57.23786075 85.72713439 -57.23786075 85.72713439 -59.97265625 83.453125 C-61.64671006 80.47420034 -62.40089919 77.23614857 -63.1875 73.9375 C-63.38214844 73.26332031 -63.57679687 72.58914062 -63.77734375 71.89453125 C-64.23368557 69.07956878 -64.24441385 67.62471416 -63.1875 64.9375 C-59.94216864 61.97152235 -56.06756213 59.9182282 -52.25 57.78515625 C-51.239375 57.17542969 -50.22875 56.56570312 -49.1875 55.9375 C-49.1875 53.15678695 -50.43501053 52.04737788 -52.0625 49.8125 C-58.0171428 40.95075564 -58.51380001 30.81089913 -56.7578125 20.38671875 C-54.05426376 10.99105245 -47.93557949 3.55608703 -39.78515625 -1.65625 C-26.95138385 -8.60385611 -12.21923315 -7.81441154 0 0 Z M-44.1875 9.9375 C-49.71337196 16.95002787 -51.72494169 23.8783528 -51.5703125 32.76953125 C-50.40784076 42.38957799 -44.82526666 49.33810193 -38.1875 55.9375 C-44.46085297 60.36420836 -50.77762233 64.71069661 -57.1875 68.9375 C-56.65349103 72.85356575 -55.99080533 75.33088934 -54.1875 78.9375 C-48.2475 78.9375 -42.3075 78.9375 -36.1875 78.9375 C-39.58060763 98.40322271 -46.53606381 112.25703794 -62.1875 124.9375 C-63.92455723 126.1233513 -65.673992 127.29135401 -67.4375 128.4375 C-74.533327 133.22069658 -79.73228635 140.75345451 -82.1875 148.9375 C-82.5175 153.5575 -82.8475 158.1775 -83.1875 162.9375 C-42.5975 162.9375 -2.0075 162.9375 39.8125 162.9375 C39.8125 150.46185493 38.84040603 142.55989514 30.8125 132.9375 C27.00118611 129.64150432 22.95166052 126.80218946 18.8125 123.9375 C17.58907246 122.93480603 16.37667672 121.91808622 15.1875 120.875 C13.06505332 118.72679109 13.06505332 118.72679109 10.8125 118.9375 C10.55082031 118.36 10.28914063 117.7825 10.01953125 117.1875 C8.74035708 114.80302 7.25542159 112.99262772 5.5 110.9375 C-1.81228207 101.70574389 -4.81509756 90.43728592 -6.1875 78.9375 C-4.99511719 78.99550781 -3.80273438 79.05351562 -2.57421875 79.11328125 C-1.00785159 79.16017847 0.55855784 79.20567868 2.125 79.25 C2.91068359 79.29189453 3.69636719 79.33378906 4.50585938 79.37695312 C6.7083304 79.42381421 8.65725181 79.39758348 10.8125 78.9375 C13.1538179 76.4081604 13.68119189 74.70791838 14.25390625 71.34765625 C13.65429137 68.07365286 12.4212484 67.29705018 9.75 65.375 C8.93144531 64.78332031 8.11289063 64.19164063 7.26953125 63.58203125 C3.26470062 60.90153253 -0.58623125 58.47125625 -5.1875 56.9375 C-4.48625 56.298125 -3.785 55.65875 -3.0625 55 C3.66159532 48.23769959 8.72865883 39.8208793 9.3125 30.1875 C9.00842241 21.95206532 5.64668531 14.44608339 0.0625 8.4375 C-6.91077473 2.08495237 -15.23961287 -0.46269234 -24.53515625 -0.33984375 C-31.9641247 0.43697033 -38.85726346 4.86330102 -44.1875 9.9375 Z " fill="#484848" transform="translate(149.1875,63.0625)"/>
<path d="M0 0 C6.30835707 3.64540306 12.27430236 7.48981359 18 12 C17.25 18.625 17.25 18.625 15 22 C12.04935852 22.2208564 9.31631769 22.28060989 6.375 22.1875 C5.17230469 22.16719727 5.17230469 22.16719727 3.9453125 22.14648438 C1.96325622 22.11109051 -0.01845551 22.05728234 -2 22 C0.25733564 35.15789064 3.38620928 48.50685033 13.21875 58.18359375 C15 60 15 60 15 62 C15.53238281 62.2371875 16.06476563 62.474375 16.61328125 62.71875 C19.68542459 64.36795297 22.41252095 66.40453934 25.1875 68.5 C26.00637695 69.10521484 26.00637695 69.10521484 26.84179688 69.72265625 C30.87604632 72.75209263 30.87604632 72.75209263 32 75 C26.00386485 74.03633542 20.63580727 72.22065255 15.0625 69.875 C14.41925781 69.6164624 13.77601563 69.3579248 13.11328125 69.09155273 C0.8002112 63.7369064 -8.28053264 52.91927005 -17.5 43.5 C-20.00470676 40.94221671 -22.51592839 38.39109006 -25.03125 35.84375 C-25.60202271 35.25638062 -26.17279541 34.66901123 -26.76086426 34.06384277 C-28.13637281 32.67112856 -29.56372703 31.32996113 -31 30 C-31.66 30 -32.32 30 -33 30 C-32.67 27.36 -32.34 24.72 -32 22 C-37.94 22 -43.88 22 -50 22 C-50 21.67 -50 21.34 -50 21 C-33.5 20.67 -17 20.34 0 20 C3.02607224 14.60668666 3.02607224 14.60668666 2.8125 9.4375 C2.71582031 8.71433594 2.61914062 7.99117188 2.51953125 7.24609375 C1.93061089 4.70000947 1.02508097 2.40029247 0 0 Z " fill="#D2D2D2" transform="translate(145,120)"/>
<path d="M0 0 C6.45298878 4.20194618 8.85720755 9.71450568 11 17 C12.39219464 25.22000139 9.9456851 32.31918533 5.57421875 39.265625 C2.80207835 43.13372789 0.09383311 46.48329932 -4 49 C-6.98425221 49.33243598 -9.83453484 49.06452105 -12.8125 48.75 C-13.60076172 48.68425781 -14.38902344 48.61851563 -15.20117188 48.55078125 C-17.13586232 48.3866257 -19.06826994 48.19594175 -21 48 C-17.90738779 44.90738779 -13.96676859 43.49478957 -10.04296875 41.6328125 C-5.14139428 39.00269937 -1.83480474 36.3973039 0.75 31.4375 C1.15734375 30.67308594 1.5646875 29.90867187 1.984375 29.12109375 C5.01878022 22.78385516 5.24929052 14.88971242 3.10546875 8.21484375 C2.40465262 6.69186877 1.66507214 5.18567321 0.875 3.70703125 C0 2 0 2 0 0 Z " fill="#D0D0D0" transform="translate(147,71)"/>
</svg>
