<?xml version="1.0" encoding="UTF-8"?>
<svg version="1.1" xmlns="http://www.w3.org/2000/svg" width="256" height="256">
<path d="M0 0 C0.73460449 -0.00902344 1.46920898 -0.01804688 2.22607422 -0.02734375 C7.99324419 0.00321754 13.38729074 0.96399824 19 2.25 C19.50581854 5.64499304 20.00362244 9.04111482 20.5 12.4375 C20.64308594 13.39720703 20.78617187 14.35691406 20.93359375 15.34570312 C21.06894531 16.27705078 21.20429688 17.20839844 21.34375 18.16796875 C21.53227539 19.44837036 21.53227539 19.44837036 21.72460938 20.75463867 C22.00272556 23.27469675 22.047608 25.71685782 22 28.25 C23.98 28.25 25.96 28.25 28 28.25 C28.29003906 26.765 28.29003906 26.765 28.5859375 25.25 C29.90583391 18.54187055 31.24604682 11.86105428 33 5.25 C45.47057792 4.76483342 54.03522271 6.63101539 65 12.25 C64.78599498 16.7675422 64.55540309 21.28384262 64.31030273 25.79980469 C64.22939178 27.33180453 64.15278805 28.86403884 64.08081055 30.39648438 C62.93337005 54.64308908 62.93337005 54.64308908 54.2578125 62.91015625 C49.72664835 66.88667582 49.72664835 66.88667582 47 68.25 C47.55484798 80.77938355 48.83900528 93.12679235 50.4375 105.5625 C50.87708887 109.01650534 51.31310149 112.47094286 51.74609375 115.92578125 C51.85174652 116.76706573 51.95739929 117.60835022 52.06625366 118.47512817 C53.2096529 127.71671297 54.11715483 136.98043589 55 146.25 C56.3921875 146.69279297 56.3921875 146.69279297 57.8125 147.14453125 C65.21405801 149.71149316 70.76141903 154.87943716 74.3125 161.8125 C76.12062944 168.22314074 76.1519896 174.45454632 76.125 181.0625 C76.12886719 182.02865234 76.13273438 182.99480469 76.13671875 183.99023438 C76.13478516 185.36598633 76.13478516 185.36598633 76.1328125 186.76953125 C76.13168457 187.60589111 76.13055664 188.44225098 76.12939453 189.30395508 C76 191.25 76 191.25 75 192.25 C73.06602511 192.34881747 71.12839223 192.37632227 69.19189453 192.37698364 C67.92984192 192.37980347 66.66778931 192.38262329 65.36749268 192.38552856 C63.95593248 192.38358397 62.54437242 192.38153578 61.1328125 192.37939453 C59.65647336 192.38074852 58.18013455 192.38252844 56.70379639 192.38470459 C52.68324716 192.38927919 48.66272347 192.38748926 44.64217377 192.3843255 C40.44390288 192.38180204 36.24563425 192.3841394 32.04736328 192.38571167 C24.99576421 192.38753341 17.94417561 192.38512695 10.89257812 192.38037109 C2.7281695 192.37492847 -5.43621416 192.37669112 -13.60062218 192.3821975 C-20.59762982 192.38672852 -27.59462993 192.38737923 -34.59163857 192.38475883 C-38.77624547 192.38319599 -42.96084062 192.38300247 -47.14544678 192.38629532 C-51.07863286 192.38917387 -55.01178661 192.38719864 -58.94496918 192.38140106 C-60.3926259 192.38007338 -61.84028532 192.38046772 -63.28794098 192.38266373 C-65.25592454 192.38537487 -67.22391402 192.38138073 -69.19189453 192.37698364 C-70.2958255 192.37660662 -71.39975647 192.37622959 -72.53713989 192.37584114 C-75 192.25 -75 192.25 -76 191.25 C-76.25445459 187.92455646 -76.18524425 184.58400484 -76.1875 181.25 C-76.19974609 180.32832031 -76.21199219 179.40664062 -76.22460938 178.45703125 C-76.24280231 169.85783618 -75.63023212 162.0975796 -70 155.25 C-66.03885742 151.31777087 -60.88731599 146.25 -55 146.25 C-54.89977539 145.27691895 -54.79955078 144.30383789 -54.69628906 143.30126953 C-54.21718984 138.65886685 -53.73422549 134.01687056 -53.25 129.375 C-53.1617395 128.52808594 -53.073479 127.68117188 -52.98254395 126.80859375 C-51.5225716 112.83711278 -49.93722532 98.88406098 -48.21972656 84.94189453 C-48.05793299 83.60709753 -47.89614862 82.27229942 -47.734375 80.9375 C-47.59225586 79.78636719 -47.45013672 78.63523437 -47.30371094 77.44921875 C-47.00871449 74.34179634 -46.83020499 71.36771933 -47 68.25 C-48.56365675 66.42824696 -48.56365675 66.42824696 -50.75 65.1875 C-57.56084602 60.55083939 -61.05449455 54.88722614 -62.6953125 46.83984375 C-64.04914919 35.33223189 -64.60617794 23.82772821 -65 12.25 C-62.94072044 11.26407845 -60.87743312 10.28652506 -58.8125 9.3125 C-57.66394531 8.76722656 -56.51539062 8.22195312 -55.33203125 7.66015625 C-49.95923723 5.38632431 -45.50612624 5.13312032 -39.6875 5.1875 C-38.43324219 5.19652344 -37.17898437 5.20554687 -35.88671875 5.21484375 C-34.93410156 5.22644531 -33.98148438 5.23804688 -33 5.25 C-32.16301505 8.70746016 -31.33103324 12.16610489 -30.5 15.625 C-30.26152344 16.60984375 -30.02304688 17.5946875 -29.77734375 18.609375 C-29.55175781 19.55039062 -29.32617188 20.49140625 -29.09375 21.4609375 C-28.88427734 22.33024902 -28.67480469 23.19956055 -28.45898438 24.09521484 C-28 26.25 -28 26.25 -28 28.25 C-26.02 28.25 -24.04 28.25 -22 28.25 C-21.95101562 27.46238281 -21.90203125 26.67476562 -21.8515625 25.86328125 C-21.30556167 17.90861404 -20.32521452 10.111224 -19 2.25 C-12.68870614 0.47395751 -6.51798591 0.03254247 0 0 Z " fill="#4A4A4A" transform="translate(128,40.75)"/>
<path d="M0 0 C2.79601997 12.64157963 4.07715431 25.41169599 5.17529297 38.28833008 C5.88489667 46.33534676 6.89928853 54.32683147 8.03491211 62.32421875 C8.72126354 67.274081 9.15123264 72.00244851 9 77 C8.40316406 76.93941406 7.80632812 76.87882812 7.19140625 76.81640625 C-8.10033378 75.33949228 -23.33173323 74.79933384 -38.6875 74.8125 C-39.99421661 74.81141235 -39.99421661 74.81141235 -41.32733154 74.81030273 C-54.00729111 74.81146547 -66.48706061 75.29744012 -79.08691406 76.8125 C-81.72935219 77.07148322 -84.34797468 77.06778339 -87 77 C-86.66952077 68.20241497 -86.04601829 59.56834152 -84.625 50.875 C-82.9400113 40.56432533 -81.98814997 30.20107402 -81.09033203 19.79833984 C-80.484302 13.03573239 -79.67636559 6.58315244 -78 0 C-51.83817145 -2.81428024 -26.11852081 -4.86435539 0 0 Z " fill="#F7F7F7" transform="translate(167,109)"/>
<path d="M0 0 C3.37143838 0.01075419 6.74234677 0.00001413 10.11376953 -0.01269531 C55.36882683 -0.04226716 55.36882683 -0.04226716 67.99267578 10.57324219 C74.62861824 18.49950679 72.24267578 26.85394989 72.24267578 37.26074219 C26.70267578 37.26074219 -18.83732422 37.26074219 -65.75732422 37.26074219 C-65.75732422 16.28705798 -65.75732422 16.28705798 -60.38232422 9.07324219 C-46.60786426 -3.43383404 -17.02689796 -0.06443012 0 0 Z " fill="#F8F8F8" transform="translate(124.75732421875,188.7392578125)"/>
<path d="M0 0 C0.73798828 -0.00386719 1.47597656 -0.00773437 2.23632812 -0.01171875 C6.45458711 -0.00421962 10.4077442 0.29536572 14.5625 1.125 C14.900829 4.33282685 15.23226146 7.54133098 15.5625 10.75 C15.65789062 11.65363281 15.75328125 12.55726562 15.8515625 13.48828125 C15.94179687 14.37128906 16.03203125 15.25429688 16.125 16.1640625 C16.20878906 16.97053223 16.29257813 17.77700195 16.37890625 18.60791016 C16.58548129 21.44007593 16.5625 24.28531054 16.5625 27.125 C22.1725 27.125 27.7825 27.125 33.5625 27.125 C34.20899305 24.22931253 34.85471732 21.33345721 35.5 18.4375 C35.68240234 17.62087891 35.86480469 16.80425781 36.05273438 15.96289062 C36.92977628 12.02417517 37.79590455 8.08708805 38.5625 4.125 C45.40624264 3.50284158 51.23043673 5.63811711 57.5625 8.125 C58.5625 9.125 58.5625 9.125 58.70410156 10.96191406 C58.70127318 17.99610962 58.12000932 24.89046059 57.3125 31.875 C57.20292969 32.97199219 57.09335938 34.06898437 56.98046875 35.19921875 C56.09420166 42.89574878 54.84582131 47.16200272 49 52.4375 C41.45004928 57.66438896 30.14977484 55.00428449 21.5 54.125 C2.70219004 52.38804847 -15.48815747 53.27269249 -34.23339844 55.44970703 C-35.56419434 55.60028564 -35.56419434 55.60028564 -36.921875 55.75390625 C-37.71303711 55.84873291 -38.50419922 55.94355957 -39.31933594 56.04125977 C-42.79495061 56.17866592 -44.65858807 55.14602686 -47.4375 53.125 C-54.72440912 46.17090644 -55.76453543 39.03851081 -56.5625 29.3125 C-56.64886719 28.36568359 -56.73523438 27.41886719 -56.82421875 26.44335938 C-57.32680113 20.647707 -57.52119332 14.94168557 -57.4375 9.125 C-50.53728296 5.46154215 -45.21390054 4.70204374 -37.4375 5.125 C-36.60035091 8.41570841 -35.76843104 11.70771647 -34.9375 15 C-34.69902344 15.93714844 -34.46054688 16.87429687 -34.21484375 17.83984375 C-33.98925781 18.73574219 -33.76367188 19.63164063 -33.53125 20.5546875 C-33.32177734 21.38210449 -33.11230469 22.20952148 -32.89648438 23.06201172 C-32.4375 25.125 -32.4375 25.125 -32.4375 27.125 C-26.8275 27.125 -21.2175 27.125 -15.4375 27.125 C-15.293125 24.69125 -15.14875 22.2575 -15 19.75 C-14.6206722 13.52471069 -14.13783211 7.32368421 -13.4375 1.125 C-8.96503415 0.00909763 -4.57956253 -0.02387261 0 0 Z " fill="#F6F6F6" transform="translate(127.4375,47.875)"/>
<path d="M0 0 C2.79601997 12.64157963 4.07715431 25.41169599 5.17529297 38.28833008 C5.88489667 46.33534676 6.89928853 54.32683147 8.03491211 62.32421875 C8.72126354 67.274081 9.15123264 72.00244851 9 77 C7.27014758 76.88487847 5.54111249 76.75744323 3.8125 76.625 C2.84957031 76.55539063 1.88664062 76.48578125 0.89453125 76.4140625 C-2.01508938 75.99784147 -4.32890774 75.20125904 -7 74 C-7.08636719 72.87207031 -7.17273438 71.74414062 -7.26171875 70.58203125 C-9.02885745 49.88603276 -12.409011 26.21977497 -28 11 C-28.66 10.67 -29.32 10.34 -30 10 C-30 9.34 -30 8.68 -30 8 C-30.72316406 7.7215625 -31.44632813 7.443125 -32.19140625 7.15625 C-35 6 -35 6 -37.40234375 4.78125 C-44.78065549 1.05230354 -51.81111749 -0.19904361 -60 -1 C-60 -1.33 -60 -1.66 -60 -2 C-40.146089 -3.96434455 -19.65229242 -3.6600746 0 0 Z " fill="#D1D1D1" transform="translate(167,109)"/>
<path d="M0 0 C6.875 1.875 6.875 1.875 8 3 C8.58477433 10.58593455 7.62012488 18.22386835 6.75 25.75 C6.58564453 27.39548828 6.58564453 27.39548828 6.41796875 29.07421875 C5.53170166 36.77074878 4.28332131 41.03700272 -1.5625 46.3125 C-5.35218112 48.93612539 -8.19228355 49.1153849 -12.6875 49.0625 C-13.68136719 49.05347656 -14.67523438 49.04445312 -15.69921875 49.03515625 C-16.83810547 49.01775391 -16.83810547 49.01775391 -18 49 C-18.33 48.34 -18.66 47.68 -19 47 C-18.34 47 -17.68 47 -17 47 C-17 46.34 -17 45.68 -17 45 C-16.0925 44.443125 -15.185 43.88625 -14.25 43.3125 C-8.16536421 38.98304761 -6.23174027 32.51064555 -4.375 25.5625 C-4.16335205 24.78986816 -3.9517041 24.01723633 -3.73364258 23.22119141 C-1.72672524 15.56323787 -0.71846942 7.87099339 0 0 Z " fill="#D1D1D1" transform="translate(178,54)"/>
</svg>
