<?xml version="1.0" encoding="UTF-8"?>
<svg version="1.1" xmlns="http://www.w3.org/2000/svg" width="256" height="256">
<path d="M0 0 C2.07958984 1.60473633 2.07958984 1.60473633 3.9609375 3.83203125 C4.67137207 4.62963867 5.38180664 5.42724609 6.11376953 6.24902344 C6.85997559 7.0949707 7.60618164 7.94091797 8.375 8.8125 C15.41743474 16.33114432 19.67892717 19.67445778 30.0625 20.6015625 C48.59175531 22.47654667 66.2659978 35.57411072 77.84423828 49.39916992 C93.00468305 68.34828093 99.75385872 93.94708038 98 118 C96.21294744 132.65683444 92.94854388 148.45212015 87 162 C87.845625 162.20625 88.69125 162.4125 89.5625 162.625 C96.25701164 165.30280466 100.22947118 169.50091915 103.2734375 175.97265625 C104.75985181 180.12023165 105.12750095 184.10006839 105.1328125 188.484375 C105.13474609 190.00998047 105.13474609 190.00998047 105.13671875 191.56640625 C105.13285156 192.61699219 105.12898437 193.66757813 105.125 194.75 C105.12886719 195.81605469 105.13273438 196.88210937 105.13671875 197.98046875 C105.13478516 199.49833984 105.13478516 199.49833984 105.1328125 201.046875 C105.13168457 201.97338867 105.13055664 202.89990234 105.12939453 203.85449219 C105 206 105 206 104 207 C102.07869223 207.09879672 100.15370452 207.12632217 98.2298584 207.12698364 C96.34940071 207.13121338 96.34940071 207.13121338 94.43095398 207.13552856 C93.02883897 207.13358397 91.6267241 207.13153578 90.22460938 207.12939453 C88.75812232 207.13074852 87.2916356 207.13252845 85.82514954 207.13470459 C81.8314589 207.13927916 77.83779397 207.13748927 73.84410286 207.1343255 C69.67385918 207.13180202 65.50361778 207.13413941 61.33337402 207.13571167 C54.32885338 207.1375334 47.32434327 207.13512697 40.31982422 207.13037109 C32.20994711 207.12492847 24.10009514 207.12669112 15.99021864 207.1321975 C9.03991972 207.13672853 2.08962839 207.13737923 -4.86067152 207.13475883 C-9.01733277 207.133196 -13.1739822 207.13300245 -17.3306427 207.13629532 C-21.23756404 207.13917389 -25.14445282 207.1371986 -29.05137062 207.13140106 C-30.48935199 207.13007339 -31.92733608 207.13046771 -33.36531639 207.13266373 C-35.32016276 207.13537491 -37.27501509 207.1313807 -39.2298584 207.12698364 C-40.32641502 207.12660662 -41.42297165 207.12622959 -42.55275726 207.12584114 C-45 207 -45 207 -46 206 C-46.31200319 202.19614319 -46.27869861 198.3775506 -46.3125 194.5625 C-46.34150391 193.50611328 -46.37050781 192.44972656 -46.40039062 191.36132812 C-46.4684534 182.86395241 -44.89604469 175.51031185 -39.6875 168.625 C-36.01215632 165.03512943 -32.34432122 162 -27 162 C-26.85304687 161.32195312 -26.70609375 160.64390625 -26.5546875 159.9453125 C-22.97979093 145.11154628 -13.62855738 133.55874943 -2 124 C-0.20913514 122.50003168 1.57601587 120.99370198 3.35693359 119.48193359 C4.59263221 118.43300809 5.83237911 117.38882787 7.07666016 116.35009766 C11.86995157 112.29176868 15.86453716 108.4480621 17.8125 102.3125 C18.06644531 101.54550781 18.32039063 100.77851562 18.58203125 99.98828125 C19.22810406 97.93816689 19.22810406 97.93816689 18 96 C17.53851563 96.50789063 17.07703125 97.01578125 16.6015625 97.5390625 C8.92449909 105.64094364 0.23793933 111.50809633 -11 112.8125 C-16.29957813 113.66664446 -18.70102307 114.56994527 -22 119 C-23.22630394 120.58555157 -24.45567259 122.16873583 -25.6875 123.75 C-26.55955078 124.91789062 -26.55955078 124.91789062 -27.44921875 126.109375 C-29.79059038 128.96384318 -30.85763896 128.985273 -34.625 129.375 C-44.79790314 129.2430985 -56.78885445 125.34398245 -64 118 C-67.55431219 114.2679722 -68.3298422 111.26768258 -68.625 106.25 C-68.20972268 96.28334443 -61.83128726 89.75186509 -56.0625 82.125 C-47.87716819 71.29544578 -42.24603742 60.9727031 -38.10253906 48.00341797 C-35.24196525 39.45680496 -30.83949719 33.09374361 -23.75 27.5 C-19.43421247 23.89103702 -18.28907368 20.35323652 -17 15 C-15.27345717 8.37439188 -13.75214309 4.91635274 -8 1 C-5.16511002 -0.41744499 -3.13869549 -0.30356265 0 0 Z " fill="#F7F7F7" transform="translate(106,26)"/>
<path d="M0 0 C2.07958984 1.60473633 2.07958984 1.60473633 3.9609375 3.83203125 C4.67137207 4.62963867 5.38180664 5.42724609 6.11376953 6.24902344 C6.85997559 7.0949707 7.60618164 7.94091797 8.375 8.8125 C15.41743474 16.33114432 19.67892717 19.67445778 30.0625 20.6015625 C48.59175531 22.47654667 66.2659978 35.57411072 77.84423828 49.39916992 C93.00468305 68.34828093 99.75385872 93.94708038 98 118 C96.21294744 132.65683444 92.94854388 148.45212015 87 162 C87.845625 162.20625 88.69125 162.4125 89.5625 162.625 C96.25701164 165.30280466 100.22947118 169.50091915 103.2734375 175.97265625 C104.75985181 180.12023165 105.12750095 184.10006839 105.1328125 188.484375 C105.13474609 190.00998047 105.13474609 190.00998047 105.13671875 191.56640625 C105.13285156 192.61699219 105.12898437 193.66757813 105.125 194.75 C105.12886719 195.81605469 105.13273438 196.88210937 105.13671875 197.98046875 C105.13478516 199.49833984 105.13478516 199.49833984 105.1328125 201.046875 C105.13168457 201.97338867 105.13055664 202.89990234 105.12939453 203.85449219 C105 206 105 206 104 207 C102.07869223 207.09879672 100.15370452 207.12632217 98.2298584 207.12698364 C96.34940071 207.13121338 96.34940071 207.13121338 94.43095398 207.13552856 C93.02883897 207.13358397 91.6267241 207.13153578 90.22460938 207.12939453 C88.75812232 207.13074852 87.2916356 207.13252845 85.82514954 207.13470459 C81.8314589 207.13927916 77.83779397 207.13748927 73.84410286 207.1343255 C69.67385918 207.13180202 65.50361778 207.13413941 61.33337402 207.13571167 C54.32885338 207.1375334 47.32434327 207.13512697 40.31982422 207.13037109 C32.20994711 207.12492847 24.10009514 207.12669112 15.99021864 207.1321975 C9.03991972 207.13672853 2.08962839 207.13737923 -4.86067152 207.13475883 C-9.01733277 207.133196 -13.1739822 207.13300245 -17.3306427 207.13629532 C-21.23756404 207.13917389 -25.14445282 207.1371986 -29.05137062 207.13140106 C-30.48935199 207.13007339 -31.92733608 207.13046771 -33.36531639 207.13266373 C-35.32016276 207.13537491 -37.27501509 207.1313807 -39.2298584 207.12698364 C-40.32641502 207.12660662 -41.42297165 207.12622959 -42.55275726 207.12584114 C-45 207 -45 207 -46 206 C-46.31200319 202.19614319 -46.27869861 198.3775506 -46.3125 194.5625 C-46.34150391 193.50611328 -46.37050781 192.44972656 -46.40039062 191.36132812 C-46.4684534 182.86395241 -44.89604469 175.51031185 -39.6875 168.625 C-36.01215632 165.03512943 -32.34432122 162 -27 162 C-26.85304687 161.32195312 -26.70609375 160.64390625 -26.5546875 159.9453125 C-22.97979093 145.11154628 -13.62855738 133.55874943 -2 124 C-0.20913514 122.50003168 1.57601587 120.99370198 3.35693359 119.48193359 C4.59263221 118.43300809 5.83237911 117.38882787 7.07666016 116.35009766 C11.86995157 112.29176868 15.86453716 108.4480621 17.8125 102.3125 C18.06644531 101.54550781 18.32039063 100.77851562 18.58203125 99.98828125 C19.22810406 97.93816689 19.22810406 97.93816689 18 96 C17.53851563 96.50789063 17.07703125 97.01578125 16.6015625 97.5390625 C8.92449909 105.64094364 0.23793933 111.50809633 -11 112.8125 C-16.29957813 113.66664446 -18.70102307 114.56994527 -22 119 C-23.22630394 120.58555157 -24.45567259 122.16873583 -25.6875 123.75 C-26.55955078 124.91789062 -26.55955078 124.91789062 -27.44921875 126.109375 C-29.79059038 128.96384318 -30.85763896 128.985273 -34.625 129.375 C-44.79790314 129.2430985 -56.78885445 125.34398245 -64 118 C-67.55431219 114.2679722 -68.3298422 111.26768258 -68.625 106.25 C-68.20972268 96.28334443 -61.83128726 89.75186509 -56.0625 82.125 C-47.87716819 71.29544578 -42.24603742 60.9727031 -38.10253906 48.00341797 C-35.24196525 39.45680496 -30.83949719 33.09374361 -23.75 27.5 C-19.43421247 23.89103702 -18.28907368 20.35323652 -17 15 C-15.27345717 8.37439188 -13.75214309 4.91635274 -8 1 C-5.16511002 -0.41744499 -3.13869549 -0.30356265 0 0 Z M-8.125 8.8125 C-9.99563428 11.99257828 -10.37873652 13.73940295 -10.875 17.3125 C-12.09794015 25.1667277 -16.07668777 29.49269859 -22.0625 34.4375 C-29.03470106 40.36254539 -31.28965516 47.65548908 -33.99169922 56.20019531 C-37.89429502 68.18011776 -44.94961076 77.92591696 -52.42773438 87.90527344 C-53.97149256 89.9856902 -55.48700701 92.08463434 -57 94.1875 C-57.49338867 94.84081299 -57.98677734 95.49412598 -58.49511719 96.16723633 C-61.92906916 100.99068726 -62.67868981 104.08481361 -62 110 C-58.36448385 116.39349392 -52.64939415 118.39720908 -46 121 C-44.9275 121.433125 -43.855 121.86625 -42.75 122.3125 C-39.25284969 123.18678758 -36.60037849 123.40090701 -33 123 C-30.41991916 120.53957434 -30.41991916 120.53957434 -28.4375 117.25 C-24.74693728 111.64305333 -21.54623752 107.79618197 -14.78125 106.27734375 C-13.15703125 106.10912109 -13.15703125 106.10912109 -11.5 105.9375 C1.35548821 104.23411141 9.28634418 96.02301638 18 87 C18.99778517 85.99779006 19.99684047 84.99683045 21 84 C21.28875 84.7425 21.5775 85.485 21.875 86.25 C22.89046328 88.89604824 22.89046328 88.89604824 24.04296875 90.84765625 C26.19488198 95.68726519 25.86363532 101.49344913 24.16015625 106.4375 C20.07914925 114.35218024 13.526473 119.81985835 6.6875 125.3125 C-5.36556297 135.04187954 -15.40961696 145.02021279 -20 160 C-19.3822168 159.93941406 -18.76443359 159.87882813 -18.12792969 159.81640625 C14.79887595 156.72691889 48.2109956 156.40203916 81 161 C85.98469298 144.12449541 85.98469298 144.12449541 90 127 C90.185625 126.10152344 90.37125 125.20304687 90.5625 124.27734375 C93.85340667 99.62492684 88.9332263 75.45363121 73.9296875 55.49609375 C73.29289063 54.67238281 72.65609375 53.84867188 72 53 C71.48695313 52.33097656 70.97390625 51.66195312 70.4453125 50.97265625 C69.35426027 49.60077105 68.18601895 48.29066768 67 47 C66.34 47 65.68 47 65 47 C65 46.34 65 45.68 65 45 C54.71318585 35.73259987 39.0608112 26.32657081 24.95703125 25.91015625 C15.93877617 25.63008622 11.90097684 21.65893663 5.9375 15.375 C5.21087158 14.57296143 4.48424316 13.77092285 3.7355957 12.94458008 C2.70438599 11.8079895 2.70438599 11.8079895 1.65234375 10.6484375 C1.04382568 9.94895996 0.43530762 9.24948242 -0.19165039 8.52880859 C-3.14963589 6.02807885 -5.2781069 6.38426765 -8.125 8.8125 Z " fill="#494949" transform="translate(106,26)"/>
<path d="M0 0 C3.34119509 -0.00218173 6.68205651 -0.02038852 10.02319336 -0.03930664 C55.34104385 -0.15976375 55.34104385 -0.15976375 66.86499023 8.56030273 C74.51029905 17.23876139 73.17749023 25.57175889 73.17749023 37.18530273 C27.30749023 37.18530273 -18.56250977 37.18530273 -65.82250977 37.18530273 C-65.82250977 16.15827571 -65.82250977 16.15827571 -59.82250977 9.18530273 C-55.07791293 6.15062825 -50.83170828 4.36950358 -45.32250977 2.99780273 C-44.07469727 2.67424805 -42.82688477 2.35069336 -41.54125977 2.01733398 C-28.01802246 -0.69514518 -13.72513804 -0.00099972 0 0 Z " fill="#F7F7F7" transform="translate(131.822509765625,188.814697265625)"/>
<path d="M0 0 C14.49435703 2.70233775 29.0614904 8.8559073 40 19 C40 19.66 40 20.32 40 21 C40.56847656 21.21398437 41.13695312 21.42796875 41.72265625 21.6484375 C46.66035111 24.57887047 49.71688076 30.36466078 53 35 C53.73476562 35.97646484 53.73476562 35.97646484 54.484375 36.97265625 C66.58001778 54.21287437 67.96235325 78.65804983 65.53515625 98.87109375 C64.82825742 102.62309521 63.95777164 106.30655241 63 110 C62.76410156 110.93827637 62.52820313 111.87655273 62.28515625 112.84326172 C57.43310316 132.13379367 57.43310316 132.13379367 56 135 C43.46 133.68 30.92 132.36 18 131 C20.17318255 124.48045236 21.83009248 120.14709346 25.625 114.8125 C26.51769105 113.51094031 27.40960034 112.20884415 28.30078125 110.90625 C28.75018066 110.2565625 29.19958008 109.606875 29.66259766 108.9375 C42.49027055 90.35400017 50.48455185 71.75374588 46.3125 48.73828125 C42.92698886 32.83255477 34.92914659 20.15371061 21.25 11.1875 C15.57452903 7.59756094 9.82084104 5.11702612 3.44921875 2.97265625 C1 2 1 2 0 0 Z " fill="#D2D2D2" transform="translate(131,52)"/>
<path d="M0 0 C1.9375 1.1875 1.9375 1.1875 3 3 C3.4375 5.9375 3.4375 5.9375 3 9 C0.76929393 11.96349841 -0.44216077 12.89762501 -4.12890625 13.57421875 C-5.82853516 13.63029297 -5.82853516 13.63029297 -7.5625 13.6875 C-12.36582839 13.86430011 -12.36582839 13.86430011 -17 15 C-15.32276617 8.86377868 -13.4664089 4.58093221 -9 0 C-5.85000502 -1.57499749 -3.36459118 -0.70833498 0 0 Z " fill="#4D4D4D" transform="translate(108,72)"/>
<path d="M0 0 C0.66 0 1.32 0 2 0 C6.29352772 8.58705544 1.66484756 21.36355973 -1 30 C-2.1328125 32.46875 -2.1328125 32.46875 -3 34 C-3.02578125 33.43152344 -3.0515625 32.86304688 -3.078125 32.27734375 C-3.50714419 26.43683251 -4.88139617 22.92940606 -8 18 C-8 17.34 -8 16.68 -8 16 C-8.66 15.67 -9.32 15.34 -10 15 C-9.34 15 -8.68 15 -8 15 C-7.731875 14.28457031 -7.46375 13.56914063 -7.1875 12.83203125 C-5.98268693 9.95871061 -4.58762888 7.36662374 -3 4.6875 C-2.484375 3.80449219 -1.96875 2.92148438 -1.4375 2.01171875 C-0.7259375 1.01591797 -0.7259375 1.01591797 0 0 Z " fill="#D4D4D4" transform="translate(135,94)"/>
<path d="M0 0 C3.79076735 1.32676857 6.59078807 2.84677362 9.75 5.3125 C9.75 5.9725 9.75 6.6325 9.75 7.3125 C9.16992188 7.33828125 8.58984375 7.3640625 7.9921875 7.390625 C7.21101563 7.44734375 6.42984375 7.5040625 5.625 7.5625 C4.47644531 7.63210937 4.47644531 7.63210937 3.3046875 7.703125 C-4.42210951 9.54621419 -7.7514487 15.5817654 -11.80859375 21.828125 C-14.25 24.3125 -14.25 24.3125 -17.8203125 24.734375 C-21.206735 24.31782189 -24.07722884 23.5506546 -27.25 22.3125 C-23.4250704 20.93552534 -20.19116796 21.69166257 -16.25 22.3125 C-15.48777669 20.78805338 -14.72559713 19.26358488 -13.96362305 17.73901367 C-13.32003527 16.4523273 -12.67566371 15.16603267 -12.03051758 13.88012695 C-10.65701302 11.14042186 -9.29173758 8.39940044 -7.96484375 5.63671875 C-4.7695775 -1.00894909 -4.7695775 -1.00894909 0 0 Z " fill="#CDCDCD" transform="translate(87.25,124.6875)"/>
<path d="M0 0 C6.17222879 1.24028238 12.06682122 2.89603589 18 5 C17.67 5.66 17.34 6.32 17 7 C12.94180817 6.34496718 9.46028718 5.05440879 5.6875 3.4375 C4.61886719 2.98246094 3.55023438 2.52742188 2.44921875 2.05859375 C1.64097656 1.70925781 0.83273438 1.35992187 0 1 C0 0.67 0 0.34 0 0 Z " fill="#CBCBCB" transform="translate(131,52)"/>
</svg>
