<?xml version="1.0" encoding="UTF-8"?>
<svg version="1.1" xmlns="http://www.w3.org/2000/svg" width="256" height="256">
<path d="M0 0 C5.83735326 3.54190356 10.32909404 7.64260971 12.625 14.1875 C14.09933653 20.25070897 14.61350487 27.03918827 11.36328125 32.59375 C10.65751953 33.56828125 10.65751953 33.56828125 9.9375 34.5625 C8.03584933 37.22166909 8.03584933 37.22166909 7.69384766 40.38256836 C9.30882086 46.69517444 11.40879291 52.77263056 13.6875 58.875 C14.05166016 59.86693359 14.41582031 60.85886719 14.79101562 61.88085938 C16.53318253 66.73358843 16.53318253 66.73358843 18.625 71.4375 C20.29751665 66.84036199 21.93609819 62.23302157 23.54443359 57.61303711 C24.09614096 56.04337939 24.65696623 54.47689545 25.22705078 52.91381836 C26.04540347 50.6651337 26.83019664 48.40704144 27.609375 46.14453125 C27.87063171 45.44850296 28.13188843 44.75247467 28.40106201 44.03535461 C29.20781593 41.80654025 29.20781593 41.80654025 29.625 38.4375 C27.94889303 35.56470855 27.94889303 35.56470855 25.625 33.4375 C22.73520622 27.68569892 22.79254008 21.7247631 23.625 15.4375 C26.50725378 8.07284466 31.17900385 2.66049808 38.25 -0.875 C45.91948121 -2.43730173 53.50192915 -2.59310178 60.5859375 1.0390625 C65.20258466 4.20526879 68.48310443 8.25300413 71.0625 13.1875 C72.3201549 20.45395054 72.9445623 27.9681292 69.07824707 34.5252533 C67.43813716 36.68338239 65.67838351 37.94840175 63.49023438 39.53735352 C61.15486049 41.54805623 59.8209004 42.72576092 58.99731445 45.71798706 C58.89299325 48.36730559 59.03306092 50.88766005 59.28125 53.52734375 C59.33696167 54.47186905 59.39267334 55.41639435 59.45007324 56.38954163 C59.63596766 59.38879655 59.87949623 62.3800947 60.125 65.375 C60.26164401 67.41446044 60.39449789 69.4541786 60.5234375 71.49414062 C60.84681513 76.47931293 61.22191248 81.4581649 61.625 86.4375 C62.10674683 85.95543594 62.58849365 85.47337189 63.08483887 84.97669983 C63.71619751 84.34509445 64.34755615 83.71348907 64.99804688 83.06274414 C65.93722961 82.12308556 65.93722961 82.12308556 66.89538574 81.16444397 C68.14497907 79.91677984 69.39918858 78.67373319 70.65625 77.43359375 C72.16436143 75.83323082 73.47762311 74.31622017 74.625 72.4375 C74.60582606 69.48400188 74.60582606 69.48400188 73.625 66.4375 C72.87042681 59.69749877 73.88418772 54.15812937 77.625 48.4375 C82.12859549 43.50140891 86.68077443 39.85126753 93.4921875 39.13671875 C101.19884976 39.10669279 105.68516929 39.99855718 112.25 44.0625 C116.9071931 48.7196931 120.32548799 54.66704557 120.75 61.33984375 C120.2466075 69.78739907 116.78050287 75.78365705 110.625 81.4375 C107.53620329 83.68389761 106.43172941 84.4375 102.625 84.4375 C102.24085938 85.65179688 101.85671875 86.86609375 101.4609375 88.1171875 C99.36590619 94.39250299 96.80208525 100.46202989 94.25 106.5625 C93.72648744 107.82021353 93.20321776 109.07802819 92.68017578 110.3359375 C91.00035646 114.37198794 89.31351512 118.40508098 87.625 122.4375 C87.32972412 123.14273804 87.03444824 123.84797607 86.73022461 124.57458496 C84.0953486 130.86648102 81.45901534 137.15776369 78.81494141 143.44580078 C78.41647003 144.39388107 78.41647003 144.39388107 78.00994873 145.3611145 C77.29199231 147.06902204 76.57350612 148.77670686 75.85498047 150.484375 C74.75451457 153.12654164 73.67999947 155.77690589 72.625 158.4375 C73.285 158.499375 73.945 158.56125 74.625 158.625 C81.62322912 160.52035372 87.87356738 165.20104196 91.625 171.4375 C94.19822915 178.14858507 93.85084166 184.76566326 93.75 191.875 C93.74097656 193.08349609 93.73195312 194.29199219 93.72265625 195.53710938 C93.69920168 198.50411278 93.66637794 201.47070143 93.625 204.4375 C74.08470205 204.46082758 54.54440691 204.47847848 35.00409794 204.48931217 C25.93184507 204.49447543 16.85960084 204.50151869 7.78735352 204.51293945 C-0.11708712 204.52288538 -8.02152151 204.52935321 -15.92596823 204.53158849 C-20.11394719 204.53289576 -24.30190827 204.53598259 -28.48988152 204.54323006 C-32.42715298 204.54998884 -36.36439908 204.55211725 -40.3016758 204.55060768 C-41.75094617 204.55088407 -43.20021735 204.55289004 -44.64948273 204.55670547 C-46.61970414 204.56164043 -48.58993898 204.55989809 -50.56016541 204.55775452 C-52.21801009 204.55913721 -52.21801009 204.55913721 -53.90934658 204.56054783 C-56.375 204.4375 -56.375 204.4375 -57.375 203.4375 C-58.52459946 190.12117411 -58.50122935 177.57915838 -51.25 166.0625 C-46.89664181 162.0876947 -41.4178977 158.4375 -35.375 158.4375 C-35.68010498 157.77685547 -35.98520996 157.11621094 -36.29956055 156.43554688 C-39.40736041 149.65922173 -42.34324016 142.82805132 -45.1875 135.9375 C-46.06611921 133.81889136 -46.94502889 131.70040315 -47.82421875 129.58203125 C-48.25524902 128.54256348 -48.6862793 127.5030957 -49.13037109 126.43212891 C-51.22477749 121.39290001 -53.32963782 116.35779276 -55.47802734 111.34130859 C-57.19077027 107.32940849 -58.81322563 103.30451677 -60.33203125 99.21484375 C-60.66380371 98.35286377 -60.99557617 97.49088379 -61.33740234 96.6027832 C-61.96562046 94.96617591 -62.57076283 93.32042884 -63.14697266 91.66479492 C-65.3373665 86.06489452 -67.92696658 84.08862601 -73.2956543 81.49316406 C-78.11350796 79.04718552 -80.57173127 74.19008631 -82.75 69.4375 C-84.19291298 62.51151768 -83.77783237 56.65398175 -80.375 50.4375 C-76.61028419 45.01903306 -72.91349957 41.15251628 -66.375 39.4375 C-58.84829586 38.61621598 -52.64462603 38.96545905 -46.375 43.4375 C-40.23856316 48.59768553 -37.17882612 54.10497794 -36.2578125 61.93359375 C-36.375 64.4375 -36.375 64.4375 -37.03955078 66.25830078 C-37.8126216 68.41634851 -38.31679772 70.14014195 -38.375 72.4375 C-36.74728303 75.31373701 -34.47795407 77.28559252 -32 79.4375 C-31.3709375 80.02144531 -30.741875 80.60539062 -30.09375 81.20703125 C-28.54238768 82.64086612 -26.96137976 84.04250654 -25.375 85.4375 C-23.59975158 78.91582051 -23.70883504 72.00857872 -23.43286133 65.28491211 C-23.35282665 63.51619453 -23.25654712 61.74813503 -23.14379883 59.98120117 C-22.09257166 50.00066055 -22.09257166 50.00066055 -25.07666016 40.85180664 C-27.09270333 39.15617443 -29.13574072 37.81409613 -31.375 36.4375 C-34.95848013 30.83408649 -36.1014246 24.97532141 -35.375 18.4375 C-33.82508475 11.46288139 -31.19719709 6.13804299 -25.28515625 1.9609375 C-17.57435295 -2.51307803 -8.32016828 -3.70860214 0 0 Z " fill="#F6F6F6" transform="translate(110.375,28.5625)"/>
<path d="M0 0 C5.83735326 3.54190356 10.32909404 7.64260971 12.625 14.1875 C14.09933653 20.25070897 14.61350487 27.03918827 11.36328125 32.59375 C10.65751953 33.56828125 10.65751953 33.56828125 9.9375 34.5625 C8.03584933 37.22166909 8.03584933 37.22166909 7.69384766 40.38256836 C9.30882086 46.69517444 11.40879291 52.77263056 13.6875 58.875 C14.05166016 59.86693359 14.41582031 60.85886719 14.79101562 61.88085938 C16.53318253 66.73358843 16.53318253 66.73358843 18.625 71.4375 C20.29751665 66.84036199 21.93609819 62.23302157 23.54443359 57.61303711 C24.09614096 56.04337939 24.65696623 54.47689545 25.22705078 52.91381836 C26.04540347 50.6651337 26.83019664 48.40704144 27.609375 46.14453125 C27.87063171 45.44850296 28.13188843 44.75247467 28.40106201 44.03535461 C29.20781593 41.80654025 29.20781593 41.80654025 29.625 38.4375 C27.94889303 35.56470855 27.94889303 35.56470855 25.625 33.4375 C22.73520622 27.68569892 22.79254008 21.7247631 23.625 15.4375 C26.50725378 8.07284466 31.17900385 2.66049808 38.25 -0.875 C45.91948121 -2.43730173 53.50192915 -2.59310178 60.5859375 1.0390625 C65.20258466 4.20526879 68.48310443 8.25300413 71.0625 13.1875 C72.3201549 20.45395054 72.9445623 27.9681292 69.07824707 34.5252533 C67.43813716 36.68338239 65.67838351 37.94840175 63.49023438 39.53735352 C61.15486049 41.54805623 59.8209004 42.72576092 58.99731445 45.71798706 C58.89299325 48.36730559 59.03306092 50.88766005 59.28125 53.52734375 C59.33696167 54.47186905 59.39267334 55.41639435 59.45007324 56.38954163 C59.63596766 59.38879655 59.87949623 62.3800947 60.125 65.375 C60.26164401 67.41446044 60.39449789 69.4541786 60.5234375 71.49414062 C60.84681513 76.47931293 61.22191248 81.4581649 61.625 86.4375 C62.10674683 85.95543594 62.58849365 85.47337189 63.08483887 84.97669983 C63.71619751 84.34509445 64.34755615 83.71348907 64.99804688 83.06274414 C65.93722961 82.12308556 65.93722961 82.12308556 66.89538574 81.16444397 C68.14497907 79.91677984 69.39918858 78.67373319 70.65625 77.43359375 C72.16436143 75.83323082 73.47762311 74.31622017 74.625 72.4375 C74.60582606 69.48400188 74.60582606 69.48400188 73.625 66.4375 C72.87042681 59.69749877 73.88418772 54.15812937 77.625 48.4375 C82.12859549 43.50140891 86.68077443 39.85126753 93.4921875 39.13671875 C101.19884976 39.10669279 105.68516929 39.99855718 112.25 44.0625 C116.9071931 48.7196931 120.32548799 54.66704557 120.75 61.33984375 C120.2466075 69.78739907 116.78050287 75.78365705 110.625 81.4375 C107.53620329 83.68389761 106.43172941 84.4375 102.625 84.4375 C102.24085938 85.65179688 101.85671875 86.86609375 101.4609375 88.1171875 C99.36590619 94.39250299 96.80208525 100.46202989 94.25 106.5625 C93.72648744 107.82021353 93.20321776 109.07802819 92.68017578 110.3359375 C91.00035646 114.37198794 89.31351512 118.40508098 87.625 122.4375 C87.32972412 123.14273804 87.03444824 123.84797607 86.73022461 124.57458496 C84.0953486 130.86648102 81.45901534 137.15776369 78.81494141 143.44580078 C78.41647003 144.39388107 78.41647003 144.39388107 78.00994873 145.3611145 C77.29199231 147.06902204 76.57350612 148.77670686 75.85498047 150.484375 C74.75451457 153.12654164 73.67999947 155.77690589 72.625 158.4375 C73.285 158.499375 73.945 158.56125 74.625 158.625 C81.62322912 160.52035372 87.87356738 165.20104196 91.625 171.4375 C94.19822915 178.14858507 93.85084166 184.76566326 93.75 191.875 C93.74097656 193.08349609 93.73195312 194.29199219 93.72265625 195.53710938 C93.69920168 198.50411278 93.66637794 201.47070143 93.625 204.4375 C74.08470205 204.46082758 54.54440691 204.47847848 35.00409794 204.48931217 C25.93184507 204.49447543 16.85960084 204.50151869 7.78735352 204.51293945 C-0.11708712 204.52288538 -8.02152151 204.52935321 -15.92596823 204.53158849 C-20.11394719 204.53289576 -24.30190827 204.53598259 -28.48988152 204.54323006 C-32.42715298 204.54998884 -36.36439908 204.55211725 -40.3016758 204.55060768 C-41.75094617 204.55088407 -43.20021735 204.55289004 -44.64948273 204.55670547 C-46.61970414 204.56164043 -48.58993898 204.55989809 -50.56016541 204.55775452 C-52.21801009 204.55913721 -52.21801009 204.55913721 -53.90934658 204.56054783 C-56.375 204.4375 -56.375 204.4375 -57.375 203.4375 C-58.52459946 190.12117411 -58.50122935 177.57915838 -51.25 166.0625 C-46.89664181 162.0876947 -41.4178977 158.4375 -35.375 158.4375 C-35.68010498 157.77685547 -35.98520996 157.11621094 -36.29956055 156.43554688 C-39.40736041 149.65922173 -42.34324016 142.82805132 -45.1875 135.9375 C-46.06611921 133.81889136 -46.94502889 131.70040315 -47.82421875 129.58203125 C-48.25524902 128.54256348 -48.6862793 127.5030957 -49.13037109 126.43212891 C-51.22477749 121.39290001 -53.32963782 116.35779276 -55.47802734 111.34130859 C-57.19077027 107.32940849 -58.81322563 103.30451677 -60.33203125 99.21484375 C-60.66380371 98.35286377 -60.99557617 97.49088379 -61.33740234 96.6027832 C-61.96562046 94.96617591 -62.57076283 93.32042884 -63.14697266 91.66479492 C-65.3373665 86.06489452 -67.92696658 84.08862601 -73.2956543 81.49316406 C-78.11350796 79.04718552 -80.57173127 74.19008631 -82.75 69.4375 C-84.19291298 62.51151768 -83.77783237 56.65398175 -80.375 50.4375 C-76.61028419 45.01903306 -72.91349957 41.15251628 -66.375 39.4375 C-58.84829586 38.61621598 -52.64462603 38.96545905 -46.375 43.4375 C-40.23856316 48.59768553 -37.17882612 54.10497794 -36.2578125 61.93359375 C-36.375 64.4375 -36.375 64.4375 -37.03955078 66.25830078 C-37.8126216 68.41634851 -38.31679772 70.14014195 -38.375 72.4375 C-36.74728303 75.31373701 -34.47795407 77.28559252 -32 79.4375 C-31.3709375 80.02144531 -30.741875 80.60539062 -30.09375 81.20703125 C-28.54238768 82.64086612 -26.96137976 84.04250654 -25.375 85.4375 C-23.59975158 78.91582051 -23.70883504 72.00857872 -23.43286133 65.28491211 C-23.35282665 63.51619453 -23.25654712 61.74813503 -23.14379883 59.98120117 C-22.09257166 50.00066055 -22.09257166 50.00066055 -25.07666016 40.85180664 C-27.09270333 39.15617443 -29.13574072 37.81409613 -31.375 36.4375 C-34.95848013 30.83408649 -36.1014246 24.97532141 -35.375 18.4375 C-33.82508475 11.46288139 -31.19719709 6.13804299 -25.28515625 1.9609375 C-17.57435295 -2.51307803 -8.32016828 -3.70860214 0 0 Z M-27.4375 13.125 C-29.14975939 19.17498317 -29.71592997 25.66283941 -26.6875 31.375 C-24.43175584 34.36233686 -22.54603883 36.45560073 -19.375 38.4375 C-18.055 38.4375 -16.735 38.4375 -15.375 38.4375 C-15.43034912 39.15067383 -15.48569824 39.86384766 -15.54272461 40.59863281 C-17.13349929 61.22407775 -18.61625769 81.74295174 -18.375 102.4375 C-19.035 102.4375 -19.695 102.4375 -20.375 102.4375 C-20.63925781 101.84453125 -20.90351562 101.2515625 -21.17578125 100.640625 C-22.41870425 98.35720946 -23.67901646 96.96323277 -25.5625 95.1875 C-28.75053895 92.09826391 -31.65247035 88.8573136 -34.53515625 85.484375 C-37.11643225 82.61263695 -39.92868443 80.00313687 -42.7734375 77.39453125 C-44.70743638 75.03127896 -45.19100376 73.47343792 -45.375 70.4375 C-44.385 68.9525 -44.385 68.9525 -43.375 67.4375 C-42.67337787 62.2406012 -42.74760461 57.76468256 -45 53 C-48.7561998 48.94725811 -52.80965681 45.85175892 -58.42578125 45.19921875 C-63.96396758 45.01748207 -67.02255155 45.69236994 -71.375 49.4375 C-75.49584302 53.78727875 -77.375 57.71676031 -77.375 63.75 C-75.68836509 69.96946623 -72.6659447 74.9254765 -67.25 78.5 C-64.24517887 79.6441804 -64.24517887 79.6441804 -60.375 79.4375 C-60.25125 80.675 -60.25125 80.675 -60.125 81.9375 C-59.35825049 85.51566437 -58.15214124 88.06507578 -56.46875 91.26953125 C-54.96950892 94.24124124 -53.78566386 97.30430033 -52.57421875 100.40234375 C-50.77213003 104.96333051 -48.88808245 109.49010155 -47.01245117 114.02124023 C-45.47799735 117.73551981 -43.96531625 121.45699418 -42.48046875 125.19140625 C-39.6818737 132.20746919 -36.74313671 139.16506239 -33.82226562 146.13085938 C-33.39236328 147.15888672 -32.96246094 148.18691406 -32.51953125 149.24609375 C-31.93715698 150.63526001 -31.93715698 150.63526001 -31.34301758 152.05249023 C-30.62428472 153.82331023 -29.97934927 155.6244522 -29.375 157.4375 C-28.69469223 157.36685333 -28.01438446 157.29620667 -27.3134613 157.22341919 C-18.65244151 156.40467172 -10.03811581 156.29088079 -1.34765625 156.3046875 C0.17346716 156.30401156 1.69459046 156.30303913 3.2157135 156.30178833 C6.38494915 156.30032455 9.55415637 156.30242273 12.72338867 156.30712891 C16.74842822 156.31282045 20.77340097 156.30954234 24.79843807 156.30355644 C27.9343362 156.29991073 31.07021899 156.30110774 34.20611763 156.30368423 C35.68860444 156.30434272 37.17109273 156.30356368 38.6535778 156.30120468 C47.68650145 156.2899812 56.62706272 156.59101152 65.625 157.4375 C69.08863351 150.11130974 72.34453284 142.7817666 75.30322266 135.23583984 C77.13005834 130.60321127 79.09700341 126.04772964 81.125 121.5 C83.79723227 115.49588754 86.16612592 109.42701195 88.41479492 103.25317383 C90.45674652 97.7166209 92.85602565 92.42425011 95.42578125 87.109375 C96.69084822 84.56341577 96.69084822 84.56341577 97.06640625 82.15625 C97.25074219 81.5890625 97.43507812 81.021875 97.625 80.4375 C99.55107589 79.7733359 101.47895189 79.11365786 103.41796875 78.48828125 C107.91800255 76.34578728 111.41593649 71.85562702 113.625 67.4375 C114.39468122 60.53560449 113.58539495 56.13056773 109.625 50.4375 C108.965 50.4375 108.305 50.4375 107.625 50.4375 C107.625 49.7775 107.625 49.1175 107.625 48.4375 C102.25209498 45.69388893 97.67258139 44.44428408 91.625 45.4375 C85.9985275 48.30381618 82.0406357 52.59252433 79.625 58.4375 C79.51169314 63.63073094 80.76962142 68.61351569 82.625 73.4375 C81.965 74.05625 81.305 74.675 80.625 75.3125 C78.3965451 77.19387427 78.3965451 77.19387427 78.625 79.4375 C78.07457031 79.65148437 77.52414063 79.86546875 76.95703125 80.0859375 C73.83399874 81.89593624 71.67731387 84.38876715 69.3125 87.0625 C68.83192139 87.59649414 68.35134277 88.13048828 67.85620117 88.68066406 C66.43855126 90.25999871 65.03007894 91.84697917 63.625 93.4375 C62.87476563 94.28570312 62.12453125 95.13390625 61.3515625 96.0078125 C59.76808205 97.81104126 58.19159794 99.61960478 56.625 101.4375 C55.51199711 94.82248279 55.2114967 88.19711782 54.87109375 81.50390625 C54.80592056 80.27083237 54.74074738 79.03775848 54.67359924 77.76731873 C54.46696325 73.84502667 54.26467215 69.92252442 54.0625 66 C53.92316535 63.33395045 53.78284228 60.66795407 53.64257812 58.00195312 C53.30009754 51.48063724 52.96118002 44.95914356 52.625 38.4375 C53.55828125 38.15648437 54.4915625 37.87546875 55.453125 37.5859375 C59.77358076 36.02163455 62.38734927 33.51327911 64.73828125 29.5703125 C66.65300221 24.96486031 66.55103109 19.76648807 64.71484375 15.1484375 C61.55330123 9.71993683 57.65163747 6.44637916 51.625 4.4375 C46.30090516 3.59291467 42.42390382 4.13406969 37.8125 7 C33.15211066 10.48714447 30.32789951 13.69320836 29.21875 19.6015625 C28.79874594 25.71262158 30.88930111 29.71693504 34.625 34.4375 C35.615 35.4275 35.615 35.4275 36.625 36.4375 C36.24873904 41.68914234 34.33044725 46.52212227 32.5625 51.4375 C32.10593018 52.72962402 32.10593018 52.72962402 31.64013672 54.04785156 C29.94167847 58.8344939 28.19687535 63.60207051 26.41796875 68.359375 C26.05646729 69.33261719 25.69496582 70.30585937 25.32250977 71.30859375 C24.62386313 73.18395025 23.91768522 75.05652368 23.20288086 76.92578125 C21.25517043 82.15474328 20.07813819 86.87037364 19.625 92.4375 C18.965 92.4375 18.305 92.4375 17.625 92.4375 C17.52832031 91.63441406 17.43164062 90.83132812 17.33203125 90.00390625 C16.45445812 85.57725283 14.92960699 81.57729234 13.3125 77.375 C10.86001402 70.87662597 8.63458484 64.3829163 6.66796875 57.71875 C5.15335894 52.95368542 3.36622304 48.29898563 1.55444336 43.63989258 C-0.375 38.63751687 -0.375 38.63751687 -0.375 36.4375 C1.29166667 34.77083333 2.95833333 33.10416667 4.625 31.4375 C7.53896616 26.76717068 7.24424529 21.76300951 6.625 16.4375 C4.26965564 11.54563094 0.9076542 8.62671058 -3.375 5.4375 C-13.13796811 2.1831773 -21.21305537 5.01436003 -27.4375 13.125 Z " fill="#484848" transform="translate(110.375,28.5625)"/>
<path d="M0 0 C3.5866548 0.02365095 7.17256375 0.02052634 10.75927734 0.01391602 C57.1719564 0.06942713 57.1719564 0.06942713 69.27880859 8.96118164 C76.79162339 16.60679871 75.09130859 27.32750716 75.09130859 37.33618164 C29.55130859 37.33618164 -15.98869141 37.33618164 -62.90869141 37.33618164 C-62.90869141 15.53618164 -62.90869141 15.53618164 -58.40869141 10.58618164 C-57.58369141 9.84368164 -56.75869141 9.10118164 -55.90869141 8.33618164 C-55.24869141 7.67618164 -54.58869141 7.01618164 -53.90869141 6.33618164 C-37.61045512 -0.9032675 -17.36606861 -0.12209591 0 0 Z " fill="#F7F7F7" transform="translate(122.90869140625,188.663818359375)"/>
<path d="M0 0 C3.93590244 3.68197325 5.15985292 6.32806993 5.4375 11.6875 C5.37710317 17.59776156 3.1346571 20.93112154 -1 25 C-5.882134 28.80806452 -5.882134 28.80806452 -9.0703125 29.35546875 C-11.12298032 29.81032145 -11.12298032 29.81032145 -11.984375 31.6171875 C-12.36335938 32.73480469 -12.36335938 32.73480469 -12.75 33.875 C-14.66979937 39.16206652 -16.79697232 44.32638302 -19 49.5 C-21.41545456 55.2106083 -23.80278762 60.92713264 -26.078125 66.6953125 C-27.16595616 69.41489039 -28.30148288 72.11270622 -29.4375 74.8125 C-31.23427368 79.09499431 -32.9247038 83.40431375 -34.5625 87.75 C-36.44002871 92.6858931 -38.57339719 97.3141463 -41 102 C-41.68022433 103.66117942 -42.34966556 105.32689291 -43 107 C-43.78158981 106.93148331 -44.56317963 106.86296661 -45.36845398 106.79237366 C-53.42525682 106.12411863 -61.43750828 105.8002518 -69.51953125 105.68359375 C-71.35640755 105.6524221 -71.35640755 105.6524221 -73.23039246 105.62062073 C-77.09104532 105.55593325 -80.9517583 105.4966213 -84.8125 105.4375 C-87.45117776 105.39423768 -90.08984974 105.35062111 -92.72851562 105.30664062 C-99.15228267 105.20033642 -105.57610772 105.09842964 -112 105 C-112 104.67 -112 104.34 -112 104 C-111.22922119 103.9906543 -110.45844238 103.98130859 -109.66430664 103.97167969 C-106.12975194 103.91758342 -102.59646518 103.83401158 -99.0625 103.75 C-97.85013672 103.73582031 -96.63777344 103.72164063 -95.38867188 103.70703125 C-88.83076274 103.52931014 -83.61844313 103.01233775 -77.7734375 99.921875 C-75.57823386 98.78075593 -73.44451241 98.31542096 -71 98 C-71 97.34 -71 96.68 -71 96 C-69.44732422 95.16275391 -69.44732422 95.16275391 -67.86328125 94.30859375 C-57.28787338 88.24613953 -46.49965269 76.99930537 -41 66 C-40.34 66 -39.68 66 -39 66 C-37.79371992 63.66785852 -36.8345262 61.50357861 -36 59 C-35.34 59 -34.68 59 -34 59 C-33.76796875 58.34257812 -33.5359375 57.68515625 -33.296875 57.0078125 C-31.60577742 53.08568859 -29.45061799 49.52957599 -27.25 45.875 C-24.29167214 40.9460364 -21.48145093 36.03456244 -18.9375 30.875 C-16.11095189 25.58531711 -12.24096525 21.92495775 -7 19 C-6.01 19 -5.02 19 -4 19 C-4 18.34 -4 17.68 -4 17 C-3.01 16.505 -3.01 16.505 -2 16 C-0.11965384 12.29847942 0.22422069 9.30515864 0.125 5.1875 C0.10695313 4.21167969 0.08890625 3.23585938 0.0703125 2.23046875 C0.04710937 1.49441406 0.02390625 0.75835937 0 0 Z " fill="#CFCFCF" transform="translate(219,79)"/>
<path d="M0 0 C6.61167971 6.26369657 6.61167971 6.26369657 7.3359375 11.3671875 C7.42595313 17.14619113 6.9034267 20.44600218 3 25 C2.360625 25.763125 1.72125 26.52625 1.0625 27.3125 C-1.32484498 29.26578226 -3.00371265 29.50144148 -6 30 C-5.93941406 31.0422876 -5.87882813 32.0845752 -5.81640625 33.15844727 C-5.58844464 37.10010187 -5.36620055 41.04206316 -5.14550781 44.98413086 C-5.05001332 46.67627408 -4.95305659 48.36833555 -4.85449219 50.06030273 C-4.23456396 60.72243568 -3.85544978 71.31834067 -4 82 C-4.33 82 -4.66 82 -5 82 C-5.07516846 81.36312256 -5.15033691 80.72624512 -5.2277832 80.07006836 C-5.58794472 77.02570987 -5.94998772 73.98157947 -6.3125 70.9375 C-6.44567627 69.81674072 -6.57885254 68.69598145 -6.71606445 67.54125977 C-7.39719152 61.85562436 -8.10046696 56.17477516 -8.8671875 50.5 C-9.00471436 49.47914307 -9.14224121 48.45828613 -9.28393555 47.40649414 C-9.5464272 45.47536225 -9.81328331 43.54481686 -10.08520508 41.61499023 C-12.12054172 26.62229919 -12.12054172 26.62229919 -8 20 C-6.67189785 18.32916181 -5.33827304 16.66270287 -4 15 C-0.30389447 9.87843397 0.44225142 6.30208277 0 0 Z " fill="#CFCFCF" transform="translate(169,37)"/>
<path d="M0 0 C7.54319951 5.90337353 7.54319951 5.90337353 8.37109375 11.515625 C8.53506417 18.26734817 7.54322396 22.85101284 3 28 C2.34 28.33 1.68 28.66 1 29 C2.42094486 33.34177597 3.87188674 37.66629462 5.4296875 41.9609375 C8.41837195 50.22587179 11.11051456 58.39786893 13 67 C9.618549 63.88380315 8.04703811 60.18591334 6.20703125 56.04296875 C5.85613937 55.26238602 5.5052475 54.48180328 5.14372253 53.67756653 C4.4048251 52.02744292 3.66958132 50.37567908 2.93774414 48.72241211 C1.8186645 46.20138717 0.68059923 43.68954502 -0.45898438 41.17773438 C-1.17565507 39.57083643 -1.89118775 37.96343036 -2.60546875 36.35546875 C-2.94603806 35.60839157 -3.28660736 34.86131439 -3.63749695 34.09159851 C-5.46646862 29.90781803 -6.52979534 26.65653315 -6 22 C-4.5 18.625 -4.5 18.625 -3 16 C-2.34 16 -1.68 16 -1 16 C1.14711018 10.49803017 1.89455962 5.68367887 0 0 Z " fill="#D0D0D0" transform="translate(109,36)"/>
<path d="M0 0 C4.22677651 1.92691282 5.90878063 3.74287486 8 8 C8.61357248 13.23781389 8.97794964 17.53307553 6 22 C5.99372516 25.68333069 7.28055758 27.54144362 9.72265625 30.11328125 C10.82588423 31.1900846 11.93954734 32.25628281 13.0625 33.3125 C13.63033203 33.86228516 14.19816406 34.41207031 14.78320312 34.97851562 C16.17990925 36.32827365 17.58878837 37.66541525 19 39 C18.01 39.495 18.01 39.495 17 40 C14.28415973 37.71993926 11.64096577 35.36620691 9 33 C8.00484375 32.14277344 7.0096875 31.28554687 5.984375 30.40234375 C-1.70012598 23.52455037 -1.70012598 23.52455037 -2.51171875 19.3984375 C-2.25898839 17.0823712 -1.81619835 15.17652894 -1 13 C0.00496852 9.98509443 0.10335303 7.95818308 0.0625 4.8125 C0.05347656 3.91144531 0.04445312 3.01039062 0.03515625 2.08203125 C0.02355469 1.39496094 0.01195312 0.70789063 0 0 Z " fill="#CECECE" transform="translate(59,77)"/>
<path d="M0 0 C0.66 0 1.32 0 2 0 C3.03296044 2.95424015 4.04926955 5.91394073 5.0625 8.875 C5.35705078 9.71675781 5.65160156 10.55851562 5.95507812 11.42578125 C6.22900391 12.23144531 6.50292969 13.03710938 6.78515625 13.8671875 C7.04176025 14.61081543 7.29836426 15.35444336 7.56274414 16.12060547 C8 18 8 18 7 20 C5.84658302 17.77447742 4.70218841 15.54504031 3.5625 13.3125 C3.23701172 12.68666016 2.91152344 12.06082031 2.57617188 11.41601562 C0.83193018 7.98147784 -0.60647569 4.85653825 -1 1 C-0.67 0.67 -0.34 0.34 0 0 Z " fill="#C5C5C5" transform="translate(114,83)"/>
</svg>
