<?xml version="1.0" encoding="UTF-8"?>
<svg version="1.1" xmlns="http://www.w3.org/2000/svg" width="256" height="256">
<path d="M0 0 C4.53904366 -0.02291161 9.07788802 -0.04283781 13.61694336 -0.05493164 C15.16219766 -0.0599714 16.70744716 -0.0668032 18.25268555 -0.07543945 C20.46925029 -0.08752076 22.68575218 -0.09323173 24.90234375 -0.09765625 C25.5971434 -0.10281754 26.29194305 -0.10797882 27.00779724 -0.11329651 C28.6722933 -0.11349277 30.33665499 -0.06189129 32 0 C33 1 33 1 33.09765625 4.59765625 C33.09191272 6.08597255 33.07889891 7.57426296 33.0625 9.0625 C33.041875 11.681875 33.02125 14.30125 33 17 C38.61 17 44.22 17 50 17 C50 27.89 50 38.78 50 50 C45.05 50.33 40.1 50.66 35 51 C35.495 54.465 35.495 54.465 36 58 C36.61746094 57.80664062 37.23492187 57.61328125 37.87109375 57.4140625 C53.56674805 52.58830577 67.86060733 50.42376714 84 55 C84.77085937 55.20625 85.54171875 55.4125 86.3359375 55.625 C96.64472482 58.8846956 105.23583374 67.87384028 110.76171875 76.8671875 C117.27698597 89.51911077 118.6928224 104.24628811 115 118 C110.00107152 131.56611566 99.98359987 141.15939552 89.90087891 151.06152344 C84.49479609 156.40216352 79.61340355 161.95131534 75 168 C75.58007812 168.3403125 76.16015625 168.680625 76.7578125 169.03125 C84.87515303 174.06775171 88.96694246 178.90082737 92 188 C92 196.58 92 205.16 92 214 C42.17 214 -7.66 214 -59 214 C-60.83826415 210.3234717 -60.11364602 206.03443379 -60 202 C-59.95746094 200.28876953 -59.95746094 200.28876953 -59.9140625 198.54296875 C-59.45162383 188.38032848 -57.4155072 181.39671677 -50.85546875 173.60546875 C-48.14528537 171.26044692 -45.1446693 169.71561248 -42 168 C-48.4326997 160.20278825 -55.07718643 152.81446692 -62.3125 145.75 C-73.75374543 134.50530279 -82.98767041 122.54411297 -83.29248047 106.02807617 C-83.40945431 87.96988325 -83.40945431 87.96988325 -79 80 C-78.34644531 78.71996094 -78.34644531 78.71996094 -77.6796875 77.4140625 C-71.5522587 66.26415107 -62.29463222 58.26899676 -50.1875 54.1875 C-34.70659442 50.14272218 -19.13433481 52.70047306 -4 57 C-3.34 54.69 -2.68 52.38 -2 50 C-6.95 50 -11.9 50 -17 50 C-17 39.11 -17 28.22 -17 17 C-11.39 17 -5.78 17 0 17 C0 11.39 0 5.78 0 0 Z M-34.5 100.75 C-35.252291 104.1353095 -34.76501176 106.61710395 -34 110 C-32.35143917 112.39583235 -30.81491999 114.38122214 -28.875 116.5 C-28.37943604 117.06315918 -27.88387207 117.62631836 -27.37329102 118.20654297 C-24.16625058 121.81856803 -20.85378282 125.3164788 -17.33984375 128.6328125 C-16 130 -16 130 -14 133 C-10.41642759 133.25015873 -10.41642759 133.25015873 -7 133 C-6.85142319 128.65850945 -6.74268564 124.31837268 -6.67041016 119.97509766 C-6.64027752 118.49859844 -6.59936121 117.02227768 -6.54736328 115.54638672 C-6.47437371 113.42110221 -6.44051509 111.29818607 -6.4140625 109.171875 C-6.3826416 107.8940918 -6.3512207 106.61630859 -6.31884766 105.29980469 C-6.69430451 101.76045788 -6.69430451 101.76045788 -9.81787109 99.62988281 C-17.56928984 95.65961493 -27.96381622 93.12445225 -34.5 100.75 Z M40 102 C39.72082705 105.20813626 39.72082705 105.20813626 39.8046875 108.9765625 C39.8075174 109.66181 39.81034729 110.3470575 39.81326294 111.05307007 C39.82446719 113.24389027 39.84957141 115.43430316 39.875 117.625 C39.88502952 119.1093691 39.89415542 120.5937446 39.90234375 122.078125 C39.92440706 125.71888261 39.95893824 129.35940156 40 133 C45.04860195 133.39246511 45.04860195 133.39246511 49.3359375 131.1640625 C50.00882813 130.32617188 50.68171875 129.48828125 51.375 128.625 C52.50421875 127.26181641 52.50421875 127.26181641 53.65625 125.87109375 C54.4296875 124.92363281 55.203125 123.97617188 56 123 C57.61697664 121.2218374 59.2417203 119.45069968 60.875 117.6875 C66.36594794 111.90955038 66.36594794 111.90955038 67.9375 104.4375 C66.86950957 100.5215351 66.42495138 99.17192038 63 97 C55.25474311 94.78295621 45.85339171 96.14660829 40 102 Z " fill="#F7F7F7" transform="translate(112,19)"/>
<path d="M0 0 C4.53904366 -0.02291161 9.07788802 -0.04283781 13.61694336 -0.05493164 C15.16219766 -0.0599714 16.70744716 -0.0668032 18.25268555 -0.07543945 C20.46925029 -0.08752076 22.68575218 -0.09323173 24.90234375 -0.09765625 C25.5971434 -0.10281754 26.29194305 -0.10797882 27.00779724 -0.11329651 C28.6722933 -0.11349277 30.33665499 -0.06189129 32 0 C33 1 33 1 33.09765625 4.59765625 C33.09191272 6.08597255 33.07889891 7.57426296 33.0625 9.0625 C33.041875 11.681875 33.02125 14.30125 33 17 C38.61 17 44.22 17 50 17 C50 27.89 50 38.78 50 50 C45.05 50.33 40.1 50.66 35 51 C35.495 54.465 35.495 54.465 36 58 C36.61746094 57.80664062 37.23492187 57.61328125 37.87109375 57.4140625 C53.56674805 52.58830577 67.86060733 50.42376714 84 55 C84.77085937 55.20625 85.54171875 55.4125 86.3359375 55.625 C96.64472482 58.8846956 105.23583374 67.87384028 110.76171875 76.8671875 C117.27698597 89.51911077 118.6928224 104.24628811 115 118 C110.00107152 131.56611566 99.98359987 141.15939552 89.90087891 151.06152344 C84.49479609 156.40216352 79.61340355 161.95131534 75 168 C75.58007812 168.3403125 76.16015625 168.680625 76.7578125 169.03125 C84.87515303 174.06775171 88.96694246 178.90082737 92 188 C92 196.58 92 205.16 92 214 C42.17 214 -7.66 214 -59 214 C-60.83826415 210.3234717 -60.11364602 206.03443379 -60 202 C-59.95746094 200.28876953 -59.95746094 200.28876953 -59.9140625 198.54296875 C-59.45162383 188.38032848 -57.4155072 181.39671677 -50.85546875 173.60546875 C-48.14528537 171.26044692 -45.1446693 169.71561248 -42 168 C-48.4326997 160.20278825 -55.07718643 152.81446692 -62.3125 145.75 C-73.75374543 134.50530279 -82.98767041 122.54411297 -83.29248047 106.02807617 C-83.40945431 87.96988325 -83.40945431 87.96988325 -79 80 C-78.34644531 78.71996094 -78.34644531 78.71996094 -77.6796875 77.4140625 C-71.5522587 66.26415107 -62.29463222 58.26899676 -50.1875 54.1875 C-34.70659442 50.14272218 -19.13433481 52.70047306 -4 57 C-3.34 54.69 -2.68 52.38 -2 50 C-6.95 50 -11.9 50 -17 50 C-17 39.11 -17 28.22 -17 17 C-11.39 17 -5.78 17 0 17 C0 11.39 0 5.78 0 0 Z M7 7 C7 12.61 7 18.22 7 24 C1.39 24 -4.22 24 -10 24 C-10 30.27 -10 36.54 -10 43 C-4.39 43 1.22 43 7 43 C5.99088542 46.25520833 4.98177083 49.51041667 3.97265625 52.765625 C3.65167969 53.83296875 3.33070312 54.9003125 3 56 C2.79246094 56.65484375 2.58492188 57.3096875 2.37109375 57.984375 C1.81750732 60.99122339 1.94139023 63.95229218 2 67 C1.45061768 66.79318604 0.90123535 66.58637207 0.33520508 66.37329102 C-2.17090094 65.43241136 -4.67916109 64.49740969 -7.1875 63.5625 C-8.05181641 63.23701172 -8.91613281 62.91152344 -9.80664062 62.57617188 C-10.64775391 62.26357422 -11.48886719 61.95097656 -12.35546875 61.62890625 C-13.51018677 61.1968689 -13.51018677 61.1968689 -14.68823242 60.75610352 C-27.08091459 56.70286276 -42.99104561 57.47495441 -54.56640625 63.2890625 C-64.93534585 69.06847146 -72.48975418 77.03334474 -75.8125 88.5625 C-78.67362314 101.60198648 -77.95752954 114.17839614 -70.80078125 125.6328125 C-68.66427129 128.87767221 -66.49227817 132.01696435 -64 135 C-63.34 135 -62.68 135 -62 135 C-61.60167969 135.89054077 -61.60167969 135.89054077 -61.1953125 136.79907227 C-59.9663057 139.06204128 -58.73683523 140.45232444 -56.875 142.21484375 C-56.25641113 142.81296875 -55.63782227 143.41109375 -55.00048828 144.02734375 C-54.34032715 144.65769531 -53.68016602 145.28804687 -53 145.9375 C-48.46278214 150.27642225 -44.55854028 154.41461066 -41.23779297 159.74975586 C-39.40167839 162.63766841 -37.63590454 164.80341288 -35 167 C-29.9221322 167.81867665 -25.75294792 167.26162436 -20.68334961 166.38500977 C-8.6550841 164.65918184 3.68491924 164.80106982 15.8125 164.8125 C16.60705597 164.8117749 17.40161194 164.8110498 18.22024536 164.81030273 C31.14878377 164.81159522 43.92627874 165.40727843 56.80859375 166.5625 C58.53900636 166.70899801 60.26946713 166.85492957 62 167 C63.16015625 167.10054687 64.3203125 167.20109375 65.515625 167.3046875 C68.09001498 167.2296289 68.09001498 167.2296289 69.80078125 165.3828125 C70.29964844 164.63773438 70.79851562 163.89265625 71.3125 163.125 C76.02877568 156.52837911 81.31255878 150.56744777 87.1484375 144.93359375 C94.50628815 137.82622313 100.72248984 130.81480685 106 122 C106.474375 121.21753906 106.94875 120.43507813 107.4375 119.62890625 C111.91044075 110.6674937 111.36275373 98.69457091 109.08203125 89.1640625 C104.22545613 75.67881509 95.92755355 67.86902108 83.55078125 61.19921875 C72.11153832 55.82119795 55.72100813 57.9399899 44.17089844 61.99926758 C42.43865697 62.64348772 40.71874451 63.3205904 39 64 C37.33339007 64.60432315 35.66673643 65.20852582 34 65.8125 C33.01 66.204375 32.02 66.59625 31 67 C30.97421875 66.35675781 30.9484375 65.71351562 30.921875 65.05078125 C30.43002766 57.21475891 28.48125623 50.44376869 26 43 C31.61 43 37.22 43 43 43 C43 36.73 43 30.46 43 24 C37.39 24 31.78 24 26 24 C26 18.39 26 12.78 26 7 C19.73 7 13.46 7 7 7 Z " fill="#494949" transform="translate(112,19)"/>
<path d="M0 0 C1.2395192 -0.0033284 2.47903839 -0.0066568 3.75611877 -0.01008606 C6.37769196 -0.01513976 8.99927156 -0.01749487 11.62084961 -0.01733398 C15.58389963 -0.01721335 19.54676126 -0.0376411 23.50976562 -0.05664062 C67.96472745 -0.15743877 67.96472745 -0.15743877 79.87890625 8.29296875 C87.24065451 17.44541254 86.19140625 24.8186084 86.19140625 37.16796875 C40.32140625 37.16796875 -5.54859375 37.16796875 -52.80859375 37.16796875 C-52.80859375 16.9958826 -52.80859375 16.9958826 -47.62109375 9.79296875 C-42.26670204 4.79553649 -35.27507634 3.66251711 -28.24609375 2.54296875 C-27.53001953 2.42179688 -26.81394531 2.300625 -26.07617188 2.17578125 C-23.9886219 1.82627334 -21.90081075 1.48843762 -19.80859375 1.16796875 C-18.83277344 0.99305908 -17.85695312 0.81814941 -16.8515625 0.63793945 C-11.26814955 -0.14819976 -5.62663271 0.00529573 0 0 Z " fill="#F7F7F7" transform="translate(111.80859375,188.83203125)"/>
<path d="M0 0 C0.70406982 0.00427002 1.40813965 0.00854004 2.13354492 0.01293945 C8.08378532 0.20899464 10.92560432 1.23609754 15 5.5 C18.11902202 9.12209008 18.36851844 12.32456492 18.49609375 16.92578125 C17.04712424 24.44444982 12.41766726 29.69280626 7.1875 35 C3.26604458 39.01288443 -0.29749062 42.83108553 -3.4375 47.5 C-4.8293457 49.15820312 -4.8293457 49.15820312 -7 50.5 C-9.68633819 50.55493756 -12.07482886 50.46878985 -14.72265625 50.1875 C-15.42201294 50.12626953 -16.12136963 50.06503906 -16.84191895 50.00195312 C-18.5626341 49.84919651 -20.28156172 49.6765364 -22 49.5 C-22.17328414 43.75267916 -22.30017827 38.00688367 -22.38452148 32.25756836 C-22.41968431 30.30287182 -22.46742524 28.34835887 -22.52807617 26.39428711 C-22.61318489 23.58140806 -22.65272762 20.77096455 -22.68359375 17.95703125 C-22.71972275 17.08601273 -22.75585175 16.2149942 -22.79307556 15.31758118 C-22.79690334 9.37755885 -22.79690334 9.37755885 -20.51589966 6.86569214 C-18.72673318 5.56011618 -16.97355846 4.50152654 -15 3.5 C-13.2984375 2.61828125 -13.2984375 2.61828125 -11.5625 1.71875 C-7.63794791 0.37614007 -4.1069048 -0.03766905 0 0 Z M-16 12.5 C-16.27917295 15.70813626 -16.27917295 15.70813626 -16.1953125 19.4765625 C-16.1924826 20.16181 -16.18965271 20.8470575 -16.18673706 21.55307007 C-16.17553281 23.74389027 -16.15042859 25.93430316 -16.125 28.125 C-16.11497048 29.6093691 -16.10584458 31.0937446 -16.09765625 32.578125 C-16.07559294 36.21888261 -16.04106176 39.85940156 -16 43.5 C-10.95139805 43.89246511 -10.95139805 43.89246511 -6.6640625 41.6640625 C-5.99117187 40.82617188 -5.31828125 39.98828125 -4.625 39.125 C-3.49578125 37.76181641 -3.49578125 37.76181641 -2.34375 36.37109375 C-1.5703125 35.42363281 -0.796875 34.47617188 0 33.5 C1.61697664 31.7218374 3.2417203 29.95069968 4.875 28.1875 C10.36594794 22.40955038 10.36594794 22.40955038 11.9375 14.9375 C10.86950957 11.0215351 10.42495138 9.67192038 7 7.5 C-0.74525689 5.28295621 -10.14660829 6.64660829 -16 12.5 Z " fill="#484848" transform="translate(168,108.5)"/>
<path d="M0 0 C8.42761107 4.09604426 8.42761107 4.09604426 11.46484375 7.75 C11.8256073 9.62931824 11.8256073 9.62931824 11.80541992 11.76245117 C11.80508003 12.9633564 11.80508003 12.9633564 11.80473328 14.18852234 C11.78924942 15.04798965 11.77376556 15.90745697 11.7578125 16.79296875 C11.75356766 17.6765657 11.74932281 18.56016266 11.74494934 19.47053528 C11.72815418 22.29316661 11.69050072 25.11508441 11.65234375 27.9375 C11.63729798 29.85090115 11.62360939 31.76431349 11.61132812 33.67773438 C11.57824794 38.36876459 11.52646005 43.05926131 11.46484375 47.75 C-1.44185667 49.79563382 -1.44185667 49.79563382 -6.05029297 47.49365234 C-8.10629576 45.60138832 -9.7793279 43.65939726 -11.47265625 41.4375 C-12.09035889 40.7043457 -12.70806152 39.97119141 -13.34448242 39.21582031 C-15.11888294 37.0922387 -16.8283722 34.92799807 -18.53515625 32.75 C-19.41305524 31.69511019 -20.29525024 30.64376569 -21.18359375 29.59765625 C-26.07415734 23.72721439 -29.00684102 19.76959512 -28.77734375 11.9921875 C-28.24233777 7.03906763 -26.16101065 4.40430232 -22.78515625 0.875 C-16.19657129 -3.40131202 -7.08735635 -2.50602655 0 0 Z M-22.03515625 9.5 C-22.78744725 12.8853095 -22.30016801 15.36710395 -21.53515625 18.75 C-19.88659542 21.14583235 -18.35007624 23.13122214 -16.41015625 25.25 C-15.91459229 25.81315918 -15.41902832 26.37631836 -14.90844727 26.95654297 C-11.70140683 30.56856803 -8.38893907 34.0664788 -4.875 37.3828125 C-3.53515625 38.75 -3.53515625 38.75 -1.53515625 41.75 C2.04841616 42.00015873 2.04841616 42.00015873 5.46484375 41.75 C5.61342056 37.40850945 5.72215811 33.06837268 5.79443359 28.72509766 C5.82456623 27.24859844 5.86548254 25.77227768 5.91748047 24.29638672 C5.99047004 22.17110221 6.02432866 20.04818607 6.05078125 17.921875 C6.08220215 16.6440918 6.11362305 15.36630859 6.14599609 14.04980469 C5.77053924 10.51045788 5.77053924 10.51045788 2.64697266 8.37988281 C-5.10444609 4.40961493 -15.49897247 1.87445225 -22.03515625 9.5 Z " fill="#484848" transform="translate(99.53515625,110.25)"/>
<path d="M0 0 C3.20663312 2.89896043 4.96575902 5.54597024 6.6875 9.5 C7.10386719 10.4384375 7.52023438 11.376875 7.94921875 12.34375 C11.69725439 21.81833825 11.73473666 34.8930861 8.125 44.375 C2.17317614 56.2458553 -6.99932144 65.29445426 -16.47558594 74.37475586 C-20.9761394 78.73894311 -24.28750297 82.78569786 -27.4375 88.1875 C-29.3671875 91.02734375 -29.3671875 91.02734375 -32 93 C-38.32613878 94.1185954 -44.73068066 93.04594951 -51 92 C-51 91.67 -51 91.34 -51 91 C-49.53820312 90.75624634 -49.53820312 90.75624634 -48.046875 90.50756836 C-42.57091829 88.92360188 -39.14825586 84.84401358 -35.25 80.87890625 C-34.02458496 79.65710915 -34.02458496 79.65710915 -32.77441406 78.41062927 C-31.05056858 76.68580602 -29.33291449 74.95477555 -27.62109375 73.21801758 C-25.02438291 70.58720314 -22.40477413 67.98099808 -19.78125 65.37695312 C-18.10273279 63.69153095 -16.42560438 62.00472432 -14.75 60.31640625 C-13.97688477 59.54825089 -13.20376953 58.78009552 -12.40722656 57.98866272 C-2.7124896 48.08579756 3.40831302 38.30157796 3.3125 24.25 C3.31121094 23.46157715 3.30992187 22.6731543 3.30859375 21.86083984 C3.21806795 16.33537152 2.4579733 11.4190888 0.65625 6.1640625 C0 4 0 4 0 0 Z " fill="#D1D1D1" transform="translate(212,93)"/>
<path d="M0 0 C1.10279297 0.07831055 2.20558594 0.15662109 3.34179688 0.23730469 C8.15578882 0.63770363 12.04373605 1.1631667 16.5 3.125 C15.84 4.445 15.18 5.765 14.5 7.125 C9.7830151 7.20232762 5.21118494 7.13765916 0.52050781 6.62939453 C-5.99670127 6.01492105 -12.47359088 5.98105877 -19.015625 5.9921875 C-20.27082947 5.99123077 -21.52603394 5.99027405 -22.8192749 5.98928833 C-26.12416372 5.98843991 -29.42900428 5.99242223 -32.73388672 5.99804688 C-35.42534757 6.00065425 -38.11677509 5.99583454 -40.80823135 5.99105644 C-44.04403202 5.98655849 -47.27982329 5.98971361 -50.515625 5.9921875 C-51.7136676 5.99016327 -52.91171021 5.98813904 -54.14605713 5.98605347 C-59.71460765 6.00165374 -65.01262094 6.18151692 -70.5 7.125 C-72.64500031 7.1883117 -74.79170098 7.2116101 -76.9375 7.1875 C-77.98808594 7.17847656 -79.03867188 7.16945312 -80.12109375 7.16015625 C-80.90613281 7.14855469 -81.69117187 7.13695312 -82.5 7.125 C-83.16 5.805 -83.82 4.485 -84.5 3.125 C-79.03850701 0.72062294 -73.90102986 0.41903865 -68 0 C-66.83017578 -0.0834668 -65.66035156 -0.16693359 -64.45507812 -0.25292969 C-43.02714237 -1.61369803 -21.4152259 -1.52797342 0 0 Z " fill="#2F2F2F" transform="translate(162.5,183.875)"/>
</svg>
