<?xml version="1.0" encoding="UTF-8"?>
<svg version="1.1" xmlns="http://www.w3.org/2000/svg" width="256" height="256">
<path d="M0 0 C5.22059431 4.65464493 7.56200014 9.41560148 8.234375 16.453125 C7.94071486 19.64423185 6.9725578 20.73687143 4.875 23.125 C-11.84845314 43.52356684 -15.49894531 69.7941542 -17.69042969 95.16357422 C-17.97776859 97.7963056 -18.48061286 100.40306428 -19 103 C-14.71 103 -10.42 103 -6 103 C-6.05220703 101.48986328 -6.05220703 101.48986328 -6.10546875 99.94921875 C-6.65717968 76.6933429 -1.78026486 55.08198998 10 35 C13 35 13 35 14.54296875 36.46875 C15.08566406 37.1390625 15.62835938 37.809375 16.1875 38.5 C18.60117442 41.39842912 21.05871513 44.04959796 23.8125 46.625 C39.32955339 62.02176615 49.19707468 82.975087 50.08984375 104.859375 C49.96857936 124.63032146 44.71207018 142.71249742 32 158 C32.75023437 158.15855469 33.50046875 158.31710938 34.2734375 158.48046875 C43.8141711 160.6553715 53.15829096 163.01278418 58.71533203 171.68066406 C62.91542201 179.26349469 63.43247198 187.06044637 63.25 195.5625 C63.24484375 196.55830078 63.2396875 197.55410156 63.234375 198.58007812 C63.15503149 205.84496851 63.15503149 205.84496851 62 207 C60.06602511 207.09881747 58.12839223 207.12632227 56.19189453 207.12698364 C54.92984192 207.12980347 53.66778931 207.13262329 52.36749268 207.13552856 C50.95593248 207.13358397 49.54437242 207.13153578 48.1328125 207.12939453 C46.65647336 207.13074852 45.18013455 207.13252844 43.70379639 207.13470459 C39.68324716 207.13927919 35.66272347 207.13748926 31.64217377 207.1343255 C27.44390288 207.13180204 23.24563425 207.1341394 19.04736328 207.13571167 C11.99576421 207.13753341 4.94417561 207.13512695 -2.10742188 207.13037109 C-10.2718305 207.12492847 -18.43621416 207.12669112 -26.60062218 207.1321975 C-33.59762982 207.13672852 -40.59462993 207.13737923 -47.59163857 207.13475883 C-51.77624547 207.13319599 -55.96084062 207.13300247 -60.14544678 207.13629532 C-64.07863286 207.13917387 -68.01178661 207.13719864 -71.94496918 207.13140106 C-73.3926259 207.13007338 -74.84028532 207.13046772 -76.28794098 207.13266373 C-78.25592454 207.13537487 -80.22391402 207.13138073 -82.19189453 207.12698364 C-83.2958255 207.12660662 -84.39975647 207.12622959 -85.53713989 207.12584114 C-88 207 -88 207 -89 206 C-89.67937855 194.32416868 -90.41862499 179.62416214 -83 170 C-75.76907379 162.26064929 -67.40748459 159.4345505 -57 159 C-57.58007812 158.22398437 -58.16015625 157.44796875 -58.7578125 156.6484375 C-69.63221324 141.75503365 -75.61138897 125.86031265 -75.5 107.25 C-75.49355469 106.11256348 -75.48710938 104.97512695 -75.48046875 103.80322266 C-75.27709064 94.3876191 -73.86060451 86.60898994 -70 78 C-69.55793213 76.99187256 -69.55793213 76.99187256 -69.10693359 75.96337891 C-62.13826389 60.3771863 -51.7984877 45.3359593 -38.296875 34.65234375 C-36.55288481 33.17937906 -35.2048934 31.94248975 -34 30 C-34.47361899 26.43945891 -34.47361899 26.43945891 -35.33203125 24.13671875 C-37.08076102 18.54282878 -36.51246221 12.35038274 -34.234375 6.98828125 C-30.9750425 1.73828049 -25.92577275 -2.79915486 -19.9375 -4.5625 C-12.43112383 -5.3965418 -6.32031715 -4.32236565 0 0 Z " fill="#494949" transform="translate(139,26)"/>
<path d="M0 0 C5.28803395 1.80959337 8.47251899 5.04613723 11 10 C11.44594389 13.26667328 11.22037444 14.64594665 9.4609375 17.47265625 C8.77257812 18.32730469 8.08421875 19.18195312 7.375 20.0625 C0.83679005 28.69155095 -3.17353285 37.60736498 -6.140625 47.9921875 C-6.68408238 49.89428832 -7.28091219 51.78262368 -7.94921875 53.64453125 C-13.49605738 71.35729846 -14.68226739 89.57150873 -15 108 C-6.75 108 1.5 108 10 108 C9.9175 105.23625 9.835 102.4725 9.75 99.625 C9.59838518 83.28092241 10.20012897 57.11864718 21.68359375 44.08984375 C22.11800781 43.73019531 22.55242187 43.37054688 23 43 C34.69317482 53.93057646 43.04786717 65.20650277 49 80 C49.65162109 81.51787109 49.65162109 81.51787109 50.31640625 83.06640625 C56.35998585 99.21771479 54.28084249 119.56150221 47.4140625 135.08203125 C45.23084051 139.58718822 42.91349538 143.92360733 40 148 C39.62300964 148.64602676 39.24601929 149.29205353 38.85760498 149.95765686 C36.23527253 153.77016223 34.23509119 155.71232673 29.64828491 156.78067017 C25.37463317 157.11090098 21.16618154 157.19400386 16.8828125 157.16796875 C15.30010335 157.18099628 13.71740897 157.1959466 12.13473511 157.21272278 C8.8241105 157.2379897 5.51520024 157.23297637 2.20458984 157.20776367 C-2.01950171 157.17900554 -6.23738153 157.23629658 -10.4605999 157.31794262 C-13.72797489 157.36961379 -16.99387911 157.36965663 -20.26156998 157.35515785 C-21.81723797 157.35536317 -23.37300678 157.37250228 -24.92827988 157.40755272 C-36.99974878 157.64270457 -36.99974878 157.64270457 -41.9336853 153.5907135 C-44.23240138 150.82490986 -46.16408109 148.08816979 -48 145 C-48.42255066 144.33703918 -48.84510132 143.67407837 -49.28045654 142.99102783 C-59.37989105 126.17027251 -61.7749861 104.50566721 -57.1640625 85.56640625 C-51.52398777 68.28657997 -40.50583783 53.90170607 -28 41 C-27.15566406 40.12730469 -26.31132813 39.25460938 -25.44140625 38.35546875 C-22.1063678 34.96566776 -18.8695204 31.7787831 -15 29 C-16.00314392 26.2992279 -16.99197353 24.01173099 -18.625 21.625 C-20.44322347 18.1538461 -20.4082578 15.87844912 -20 12 C-16.70436678 2.5008219 -9.82627327 -1.83255257 0 0 Z " fill="#F7F7F7" transform="translate(129,28)"/>
<path d="M0 0 C3.35622353 0.01069558 6.71190806 0.00005195 10.06811523 -0.01269531 C20.62064606 -0.02082046 31.11390611 0.20208573 41.63256836 1.08886719 C42.50549026 1.15797302 43.37841217 1.22707886 44.27778625 1.29827881 C53.53579068 2.18646367 63.57135467 4.61315674 69.87084961 11.82324219 C76.75574047 20.22606174 73.55834961 21.63235624 73.55834961 37.26074219 C28.01834961 37.26074219 -17.52165039 37.26074219 -64.44165039 37.26074219 C-64.44165039 15.7735627 -64.44165039 15.7735627 -58.00415039 8.51074219 C-43.02122987 -2.50392958 -17.40565201 -0.06573418 0 0 Z " fill="#F7F7F7" transform="translate(121.441650390625,188.7392578125)"/>
<path d="M0 0 C5.7001284 5.01261291 8.11473261 12.15377925 11 19 C11.44214844 20.02351563 11.88429687 21.04703125 12.33984375 22.1015625 C18.33352308 38.26956582 16.28350833 58.55547679 9.4140625 74.08203125 C7.23084051 78.58718822 4.91349538 82.92360733 2 87 C1.59998779 87.68513672 1.19997559 88.37027344 0.7878418 89.07617188 C-0.96753416 91.64361032 -2.40463327 93.26241508 -5 95 C-10.20526979 95.84421982 -15.22079883 95.43954467 -20.4375 95 C-21.85067755 94.91154477 -23.26409729 94.82687301 -24.67773438 94.74609375 C-28.12237686 94.54104231 -31.56091395 94.28465784 -35 94 C-31.73000668 91.34291749 -28.51308975 89.06062402 -24.875 86.9375 C-9.87301929 77.4828104 -0.87744892 64.14364789 3.75390625 47.25 C7.1562887 31.26118177 4.19858926 15.50248343 0 0 Z " fill="#D1D1D1" transform="translate(167,89)"/>
<path d="M0 0 C2.97482538 2.51715994 4.79521354 4.5124132 6.3125 8.125 C5.88596356 13.4140518 3.40977477 15.9437349 0.19921875 20.05078125 C-5.41710543 27.58244156 -8.5781898 36.0236643 -11.140625 44.9921875 C-11.6837417 46.89309593 -12.28045612 48.78019893 -12.94921875 50.640625 C-18.35760898 67.93138931 -19.87471949 85.98417112 -20 104 C-27.02317822 97.82741947 -27.51517871 90.40398363 -28.3203125 81.4296875 C-28.8529826 65.5561186 -21.71787904 52.78961715 -14.50927734 39.18701172 C-13.43776023 37.16464235 -12.36830021 35.14118188 -11.30078125 33.11669922 C-10.24938045 31.12622948 -9.19110952 29.13936884 -8.125 27.15673828 C-4.27187299 19.88408747 -0.89811322 12.75320765 -0.3125 4.4375 C-0.24675781 3.59058594 -0.18101562 2.74367187 -0.11328125 1.87109375 C-0.07589844 1.25363281 -0.03851563 0.63617187 0 0 Z " fill="#D0D0D0" transform="translate(134,31)"/>
</svg>
